<svg xmlns="http://www.w3.org/2000/svg" width="40.501" height="40.5" viewBox="0 0 40.501 40.5"><g transform="translate(-2148.249 -8266.25)"><path d="M163.061,88.373a20,20,0,1,1,19.952,20.047c-.217,0-.435-.006-.653-.012a19.986,19.986,0,0,1-19.3-20.035" transform="translate(1985.439 8198.08)" fill="#f57474" stroke="#000" stroke-width="0.5"/><g transform="translate(-16 82)"><path d="M11.189,30a.782.782,0,0,1-.2-.032c-.65-.178-1.236-.335-1.835-.46a.413.413,0,0,1-.288-.15.452.452,0,0,1,0-.355c.156-.587.3-1.186.448-1.766.139-.563.283-1.145.434-1.714a.327.327,0,0,0-.3-.5,9.93,9.93,0,0,1-1.221-.316.812.812,0,0,0-.263-.057c-.17,0-.261.11-.324.393-.13.578-.279,1.162-.423,1.726-.14.546-.283,1.109-.41,1.666-.065.287-.15.389-.324.389a.807.807,0,0,1-.223-.04c-.591-.175-1.192-.326-1.787-.447a.422.422,0,0,1-.293-.155.436.436,0,0,1,0-.346c.118-.457.232-.922.343-1.372.175-.709.355-1.441.55-2.155a.467.467,0,0,0,0-.36c-.046-.077-.136-.125-.312-.166-.63-.153-1.269-.314-1.887-.47H2.865c-.813-.2-1.654-.417-2.485-.614-.213-.051-.316-.106-.356-.19s-.018-.2.07-.379c.37-.758.673-1.456.928-2.136.092-.245.209-.35.39-.35a.9.9,0,0,1,.259.048c.458.139.921.251,1.314.342a1,1,0,0,0,1.3-.543,1.038,1.038,0,0,0,.07-.291C5.3,15.433,6.239,11.663,7.151,8A1.316,1.316,0,0,0,6.19,6.254,17.68,17.68,0,0,0,4.456,5.8c-.146-.032-.225-.073-.264-.137a.373.373,0,0,1,0-.293c.171-.626.367-1.368.531-2.118.044-.2.112-.273.244-.273a.8.8,0,0,1,.2.033c.662.171,1.338.337,1.991.5.816.2,1.656.408,2.481.626a.9.9,0,0,0,.231.038c.174,0,.258-.1.32-.367.118-.511.25-1.029.377-1.531.159-.627.323-1.271.463-1.91C11.083.1,11.172,0,11.34,0a.9.9,0,0,1,.245.044c.536.153,1.109.312,1.693.425a.507.507,0,0,1,.361.177.516.516,0,0,1,0,.408c-.148.543-.284,1.1-.416,1.637-.137.56-.279,1.137-.433,1.7a.447.447,0,0,0,0,.355c.047.075.141.119.323.152a11.7,11.7,0,0,1,1.323.307.649.649,0,0,0,.182.032c.161,0,.218-.112.266-.32.146-.624.3-1.258.458-1.87.129-.516.262-1.046.387-1.57.049-.2.111-.314.279-.314a.643.643,0,0,1,.177.03c.654.19,1.3.352,1.93.483a.351.351,0,0,1,.243.128.408.408,0,0,1,0,.312c-.119.465-.239.951-.345,1.38V3.5c-.174.7-.354,1.43-.543,2.141-.087.327-.026.447.286.558a10.069,10.069,0,0,1,3.195,1.7,4.42,4.42,0,0,1,1.418,5.149,4.1,4.1,0,0,1-3.083,2.82,7.684,7.684,0,0,1,1.591,1.142,3.953,3.953,0,0,1,1.168,3.5,6.13,6.13,0,0,1-2.63,4.714,5.989,5.989,0,0,1-3.366.86c-.317,0-.658-.014-1.044-.043a18.115,18.115,0,0,1-2.022-.257,1.211,1.211,0,0,0-.22-.024c-.243,0-.356.119-.431.455-.133.6-.286,1.2-.434,1.786-.137.541-.279,1.1-.4,1.656C11.432,29.906,11.349,30,11.189,30ZM10.168,15.755c-.128,0-.162.1-.2.234-.4,1.618-.829,3.325-1.31,5.221-.047.181,0,.26.184.31a19.254,19.254,0,0,0,4.577.793c.1.007.186.01.27.01a3.876,3.876,0,0,0,2.007-.559,2.4,2.4,0,0,0,.541-.541A2.443,2.443,0,0,0,15.7,17.81a11.448,11.448,0,0,0-4.726-1.874c-.24-.056-.48-.111-.719-.169A.379.379,0,0,0,10.168,15.755Zm1.98-7.843c-.121,0-.186.071-.227.245-.3,1.221-.611,2.458-.912,3.655l-.24.955c-.043.176-.057.328.2.392a16.581,16.581,0,0,0,3.482.627l.272-.012c.184-.008.37-.015.552-.032a2.3,2.3,0,0,0,2.233-2.31,2.472,2.472,0,0,0-1.5-2.263,13.708,13.708,0,0,0-3.761-1.244.454.454,0,0,0-.105-.012Z" transform="translate(2172 8190)"/><path d="M11.189,30a.782.782,0,0,1-.2-.032c-.65-.178-1.236-.335-1.835-.46a.413.413,0,0,1-.288-.15.452.452,0,0,1,0-.355c.156-.587.3-1.186.448-1.766.139-.563.283-1.145.434-1.714a.327.327,0,0,0-.3-.5,9.93,9.93,0,0,1-1.221-.316.812.812,0,0,0-.263-.057c-.17,0-.261.11-.324.393-.13.578-.279,1.162-.423,1.726-.14.546-.283,1.109-.41,1.666-.065.287-.15.389-.324.389a.807.807,0,0,1-.223-.04c-.591-.175-1.192-.326-1.787-.447a.422.422,0,0,1-.293-.155.436.436,0,0,1,0-.346c.118-.457.232-.922.343-1.372.175-.709.355-1.441.55-2.155a.467.467,0,0,0,0-.36c-.046-.077-.136-.125-.312-.166-.63-.153-1.269-.314-1.887-.47H2.865c-.813-.2-1.654-.417-2.485-.614-.213-.051-.316-.106-.356-.19s-.018-.2.07-.379c.37-.758.673-1.456.928-2.136.092-.245.209-.35.39-.35a.9.9,0,0,1,.259.048c.458.139.921.251,1.314.342a1,1,0,0,0,1.3-.543,1.038,1.038,0,0,0,.07-.291C5.3,15.433,6.239,11.663,7.151,8A1.316,1.316,0,0,0,6.19,6.254,17.68,17.68,0,0,0,4.456,5.8c-.146-.032-.225-.073-.264-.137a.373.373,0,0,1,0-.293c.171-.626.367-1.368.531-2.118.044-.2.112-.273.244-.273a.8.8,0,0,1,.2.033c.662.171,1.338.337,1.991.5.816.2,1.656.408,2.481.626a.9.9,0,0,0,.231.038c.174,0,.258-.1.32-.367.118-.511.25-1.029.377-1.531.159-.627.323-1.271.463-1.91C11.083.1,11.172,0,11.34,0a.9.9,0,0,1,.245.044c.536.153,1.109.312,1.693.425a.507.507,0,0,1,.361.177.516.516,0,0,1,0,.408c-.148.543-.284,1.1-.416,1.637-.137.56-.279,1.137-.433,1.7a.447.447,0,0,0,0,.355c.047.075.141.119.323.152a11.7,11.7,0,0,1,1.323.307.649.649,0,0,0,.182.032c.161,0,.218-.112.266-.32.146-.624.3-1.258.458-1.87.129-.516.262-1.046.387-1.57.049-.2.111-.314.279-.314a.643.643,0,0,1,.177.03c.654.19,1.3.352,1.93.483a.351.351,0,0,1,.243.128.408.408,0,0,1,0,.312c-.119.465-.239.951-.345,1.38V3.5c-.174.7-.354,1.43-.543,2.141-.087.327-.026.447.286.558a10.069,10.069,0,0,1,3.195,1.7,4.42,4.42,0,0,1,1.418,5.149,4.1,4.1,0,0,1-3.083,2.82,7.684,7.684,0,0,1,1.591,1.142,3.953,3.953,0,0,1,1.168,3.5,6.13,6.13,0,0,1-2.63,4.714,5.989,5.989,0,0,1-3.366.86c-.317,0-.658-.014-1.044-.043a18.115,18.115,0,0,1-2.022-.257,1.211,1.211,0,0,0-.22-.024c-.243,0-.356.119-.431.455-.133.6-.286,1.2-.434,1.786-.137.541-.279,1.1-.4,1.656C11.432,29.906,11.349,30,11.189,30ZM10.168,15.755c-.128,0-.162.1-.2.234-.4,1.618-.829,3.325-1.31,5.221-.047.181,0,.26.184.31a19.254,19.254,0,0,0,4.577.793c.1.007.186.01.27.01a3.876,3.876,0,0,0,2.007-.559,2.4,2.4,0,0,0,.541-.541A2.443,2.443,0,0,0,15.7,17.81a11.448,11.448,0,0,0-4.726-1.874c-.24-.056-.48-.111-.719-.169A.379.379,0,0,0,10.168,15.755Zm1.98-7.843c-.121,0-.186.071-.227.245-.3,1.221-.611,2.458-.912,3.655l-.24.955c-.043.176-.057.328.2.392a16.581,16.581,0,0,0,3.482.627l.272-.012c.184-.008.37-.015.552-.032a2.3,2.3,0,0,0,2.233-2.31,2.472,2.472,0,0,0-1.5-2.263,13.708,13.708,0,0,0-3.761-1.244.454.454,0,0,0-.105-.012Z" transform="translate(2173 8189)" fill="#fff" stroke="#000" stroke-miterlimit="10" stroke-width="0.25"/></g></g></svg>