<?xml version="1.0" encoding="UTF-8"?><svg id="b" xmlns="http://www.w3.org/2000/svg" viewBox="0 0 397.43 198.85"><defs><style>.d{fill:red;}.d,.e{stroke-width:0px;}.e{fill:blue;}</style></defs><g id="c"><path class="e" d="m45.62,119.88c-10.58-6.97-25.28-4.36-34.34,3.96C1.3,133-1.65,147.88.83,160.79s9.89,23.47,20.15,30.57,22.97,9.41,34.93,5.83,21.62-11.76,26.17-22.99c.56-1.38,1.02-2.8,1.39-4.24.48-1.87-2.41-2.67-2.89-.8-2.82,10.92-11.41,19.6-21.72,23.81s-22.38,3.72-32.45-1.8c-10.07-5.51-17.85-15.1-21.35-26.01-3.71-11.57-2.62-25.21,4.72-35.17s23.16-14.9,34.34-7.54c1.62,1.06,3.12-1.53,1.51-2.59h0Z"/><path class="e" d="m106.84,111.82c-.09,15.66-.19,31.33-.28,46.99l-.07,11.5c-.02,3.45-.36,7.08.14,10.51.42,2.92,2.12,5.34,5.19,5.76,1.47.2,2.93-.04,4.36-.35,1.92-.42,3.82-.88,5.74-1.33,8.59-1.99,17.18-3.98,25.77-5.97,1.88-.44,1.08-3.33-.8-2.89-7.13,1.65-14.27,3.3-21.4,4.95-3.5.81-6.99,1.71-10.51,2.42-1.31.27-3.02.56-4.16-.34-.93-.73-1.2-2.06-1.31-3.17-.33-3.32-.04-6.78-.02-10.11l.07-11,.13-22c.05-8.33.1-16.66.15-25,.01-1.93-2.99-1.93-3,0h0Z"/><path class="e" d="m180.65,114.61c.84,16.74,1.68,33.47,2.52,50.21l.72,14.42c.1,1.92,3.1,1.93,3,0-.84-16.74-1.68-33.47-2.52-50.21l-.72-14.42c-.1-1.92-3.1-1.93-3,0h0Z"/><path class="e" d="m181.05,104.71c3.86,0,3.87-6,0-6s-3.87,6,0,6h0Z"/><path class="e" d="m244.1,102.46c-15.45,7.37-30.17,21.77-29.2,40.15.42,7.91,3.6,16.01,9.71,21.25,7.34,6.28,17.51,7.12,26.52,4.41,11.14-3.36,19.77-11.66,27.6-19.88,1.33-1.4-.79-3.52-2.12-2.12-6.53,6.86-13.5,13.78-22.3,17.65-8.12,3.58-18.17,4.29-25.81-.84-6.04-4.06-9.53-11.2-10.41-18.28-.98-7.89,1.29-15.54,5.73-22.07,5.34-7.86,13.31-13.63,21.8-17.68,1.74-.83.22-3.42-1.51-2.59h0Z"/><path class="e" d="m312.8,101.98c7.08,21.5,11.35,43.9,12.61,66.5.36,6.41.47,12.84.35,19.26-.03,1.65,2.65,2.1,2.95.4.08-.44.15-.88.23-1.32.33-1.89-2.56-2.7-2.89-.8-.08.44-.15.88-.23,1.32l2.95.4c.41-22.81-2.16-45.68-7.66-67.82-1.57-6.31-3.38-12.56-5.41-18.74-.6-1.83-3.5-1.04-2.89.8h0Z"/><path class="e" d="m356.68,112.33c-5.54,5.38-11.07,10.76-16.61,16.14-3.85,3.75-12.15,10.06-6.96,15.97,2.05,2.34,5.36,3.57,8.05,4.99,3.44,1.81,6.88,3.62,10.32,5.44,6.81,3.59,13.61,7.17,20.42,10.76,7.76,4.09,15.51,8.17,23.27,12.26,1.71.9,3.22-1.69,1.51-2.59-12.88-6.78-25.76-13.57-38.64-20.35-6.44-3.39-12.89-6.76-19.32-10.18-2.23-1.19-5.07-2.8-3.99-5.78s4.23-5.23,6.4-7.35c5.89-5.72,11.78-11.45,17.67-17.17,1.39-1.35-.74-3.47-2.12-2.12h0Z"/><path class="d" d="m111.58,69.87c18.76-20.58,37.36-41.34,56.3-61.76,1.77-1.91,3.76-4.01,6.32-4.81,2.71-.85,5.29.19,7.55,1.69,2.63,1.74,4.94,4.01,7.31,6.07,2.63,2.29,5.26,4.58,7.9,6.87,10.53,9.17,21.05,18.33,31.58,27.5,11.78,10.26,23.56,20.51,35.34,30.77,1.45,1.26,3.58-.85,2.12-2.12-21.56-18.77-43.11-37.53-64.67-56.3-5.24-4.56-10.36-9.34-15.78-13.68-2.26-1.81-4.79-3.53-7.71-3.98-2.75-.43-5.42.33-7.69,1.9-2.54,1.75-4.54,4.13-6.6,6.39l-7.05,7.74-14.45,15.85c-10.86,11.92-21.72,23.83-32.59,35.75-1.3,1.42.82,3.55,2.12,2.12h0Z"/></g></svg>