<svg xmlns="http://www.w3.org/2000/svg" width="40.5" height="40.5" viewBox="0 0 40.5 40.5"><g transform="translate(-2239.25 -8266.25)"><path d="M175.857,20.582A20,20,0,1,1,195.81,40.629c-.218,0-.436,0-.654-.012a19.985,19.985,0,0,1-19.3-20.034" transform="translate(2063.643 8265.871)" fill="#c8ede9" stroke="#000" stroke-width="0.5"/><g transform="translate(3 82)"><path d="M206.362,33.128a8.259,8.259,0,0,1-4.746,2.191v2a1.644,1.644,0,0,1-.444,1.191,1.728,1.728,0,0,1-2.349,0,1.641,1.641,0,0,1-.445-1.191V35.382a14.4,14.4,0,0,1-3.524-.762,10.052,10.052,0,0,1-2.952-1.587,1.589,1.589,0,0,1-.572-.635,2.049,2.049,0,0,1-.159-.857,1.849,1.849,0,0,1,.4-1.175,1.139,1.139,0,0,1,.9-.508,1.527,1.527,0,0,1,.586.111,6.711,6.711,0,0,1,.715.365,11.745,11.745,0,0,0,2.873,1.4,9.819,9.819,0,0,0,2.968.444,5.6,5.6,0,0,0,3.286-.826,2.744,2.744,0,0,0,1.159-2.381,1.914,1.914,0,0,0-.635-1.492,4.635,4.635,0,0,0-1.587-.905q-.953-.333-2.667-.777a28.969,28.969,0,0,1-3.873-1.223,6.714,6.714,0,0,1-2.571-1.889,5.119,5.119,0,0,1-1.079-3.428,5.915,5.915,0,0,1,1.842-4.381,8.443,8.443,0,0,1,4.826-2.254v-2a1.644,1.644,0,0,1,.444-1.191,1.728,1.728,0,0,1,2.349,0,1.644,1.644,0,0,1,.444,1.191v1.968a10.651,10.651,0,0,1,5.524,2.318,1.78,1.78,0,0,1,.761,1.492,1.854,1.854,0,0,1-.4,1.175,1.165,1.165,0,0,1-.936.508,1.652,1.652,0,0,1-.556-.1,3.764,3.764,0,0,1-.715-.381,12.058,12.058,0,0,0-2.46-1.382,7.447,7.447,0,0,0-2.746-.46,5.15,5.15,0,0,0-3.143.874,2.822,2.822,0,0,0-1.174,2.4,2.268,2.268,0,0,0,.666,1.7,4.424,4.424,0,0,0,1.683,1q1.016.349,2.762.793A27.285,27.285,0,0,1,204.6,23.7a6.442,6.442,0,0,1,2.493,1.826,4.979,4.979,0,0,1,1.032,3.317,5.8,5.8,0,0,1-1.762,4.286" transform="translate(2056.828 8181.031)"/><path d="M206.362,33.128a8.259,8.259,0,0,1-4.746,2.191v2a1.644,1.644,0,0,1-.444,1.191,1.728,1.728,0,0,1-2.349,0,1.641,1.641,0,0,1-.445-1.191V35.382a14.4,14.4,0,0,1-3.524-.762,10.052,10.052,0,0,1-2.952-1.587,1.589,1.589,0,0,1-.572-.635,2.049,2.049,0,0,1-.159-.857,1.849,1.849,0,0,1,.4-1.175,1.139,1.139,0,0,1,.9-.508,1.527,1.527,0,0,1,.586.111,6.711,6.711,0,0,1,.715.365,11.745,11.745,0,0,0,2.873,1.4,9.819,9.819,0,0,0,2.968.444,5.6,5.6,0,0,0,3.286-.826,2.744,2.744,0,0,0,1.159-2.381,1.914,1.914,0,0,0-.635-1.492,4.635,4.635,0,0,0-1.587-.905q-.953-.333-2.667-.777a28.969,28.969,0,0,1-3.873-1.223,6.714,6.714,0,0,1-2.571-1.889,5.119,5.119,0,0,1-1.079-3.428,5.915,5.915,0,0,1,1.842-4.381,8.443,8.443,0,0,1,4.826-2.254v-2a1.644,1.644,0,0,1,.444-1.191,1.728,1.728,0,0,1,2.349,0,1.644,1.644,0,0,1,.444,1.191v1.968a10.651,10.651,0,0,1,5.524,2.318,1.78,1.78,0,0,1,.761,1.492,1.854,1.854,0,0,1-.4,1.175,1.165,1.165,0,0,1-.936.508,1.652,1.652,0,0,1-.556-.1,3.764,3.764,0,0,1-.715-.381,12.058,12.058,0,0,0-2.46-1.382,7.447,7.447,0,0,0-2.746-.46,5.15,5.15,0,0,0-3.143.874,2.822,2.822,0,0,0-1.174,2.4,2.268,2.268,0,0,0,.666,1.7,4.424,4.424,0,0,0,1.683,1q1.016.349,2.762.793A27.285,27.285,0,0,1,204.6,23.7a6.442,6.442,0,0,1,2.493,1.826,4.979,4.979,0,0,1,1.032,3.317,5.8,5.8,0,0,1-1.762,4.286" transform="translate(2057.828 8180.031)" fill="#fff" stroke="#000" stroke-width="0.25"/></g></g></svg>