<svg xmlns="http://www.w3.org/2000/svg" width="116.315" height="52.959" viewBox="0 0 116.315 52.959"><g transform="translate(-1251.5 -8300.366)"><path d="M7.533,0A6.069,6.069,0,0,0,4.922.45,2.721,2.721,0,0,0,3.439,2.332a2.143,2.143,0,0,0,.994,2.231c.692.478,1.476.82,2.176,1.293a16.282,16.282,0,0,1,2,1.6,6.513,6.513,0,0,1,1.649,1.911A1.428,1.428,0,0,1,9.739,11a4.319,4.319,0,0,1-2.25.793,31.058,31.058,0,0,1-6.671.155l.575,1.388.53-.5c.761-.721-.39-1.87-1.15-1.15l-.53.5a.823.823,0,0,0,.575,1.388A32.745,32.745,0,0,0,6.9,13.487c1.753-.19,3.738-.524,4.687-2.21a2.828,2.828,0,0,0,.168-2.522,6.994,6.994,0,0,0-1.648-2.118A18.645,18.645,0,0,0,5.83,3.49c-.258-.138-.688-.293-.8-.589a.827.827,0,0,1,.208-.69c.515-.629,1.565-.576,2.292-.585A.814.814,0,0,0,7.533,0" transform="translate(1254.734 8321.136) rotate(-9)" fill="#323e92"/><path d="M.967,4.872a11.617,11.617,0,0,0,3.617-.35,11.962,11.962,0,0,0,1.747-.615,4.529,4.529,0,0,0,1.522-.895C8.879,1.922,7.736.594,6.646.192A4.387,4.387,0,0,0,3.48.458,6.414,6.414,0,0,0,.918,2.445a4.36,4.36,0,0,0-.847,1.57A2.926,2.926,0,0,0,.3,5.912C1.167,7.864,3.31,8.978,5.274,9.506a15.606,15.606,0,0,0,3.607.558c1.3.031,2.812-.72,2.74-2.216-.05-1.042-1.677-1.048-1.626,0,.034.7-1.089.6-1.533.564a16.657,16.657,0,0,1-2.281-.356A7.257,7.257,0,0,1,2.373,6.109,1.827,1.827,0,0,1,1.75,4.145a4.475,4.475,0,0,1,1.476-1.7,4.33,4.33,0,0,1,1.978-.8,2.091,2.091,0,0,1,.955.1,1.138,1.138,0,0,1,.332.195c-.1-.087.113.113.108.112q.045.076.029-.055l.039-.09c.007.009-1.059.558-1.161.6a10.093,10.093,0,0,1-1.495.485,10.1,10.1,0,0,1-3.046.257c-1.045-.064-1.042,1.563,0,1.626" transform="translate(1271.112 8320.767) rotate(-9)" fill="#323e92"/><path d="M7.163.88C6.483-.48,4.578.038,3.475.448A5.385,5.385,0,0,0,1.613,1.534,4.51,4.51,0,0,0,.465,3.568,8.514,8.514,0,0,0,0,5.917,3.393,3.393,0,0,0,.837,8.167a4.61,4.61,0,0,0,4.038,1.964,8.19,8.19,0,0,0,4.582-2.48A.814.814,0,0,0,8.307,6.5,7.425,7.425,0,0,1,5.542,8.315,3.058,3.058,0,0,1,4,8.511,2.832,2.832,0,0,1,2.643,7.69a3.107,3.107,0,0,1-.937-1.183,2.927,2.927,0,0,1,.081-1.618,3.593,3.593,0,0,1,1.536-2.6,6.126,6.126,0,0,1,1.53-.557,2.47,2.47,0,0,1,.692-.1.387.387,0,0,1,.228.037c-.057-.034-.084-.1-.014.037.468.936,1.871.114,1.4-.821" transform="translate(1285.225 8317.311) rotate(-9)" fill="#323e92"/><path d="M0,1.047A18.86,18.86,0,0,0,2.557,9.861V9.04l.033-.048.359-.209q.642.389.429.06l-.064-.13c-.064-.131-.126-.263-.184-.4-.108-.247-.2-.5-.288-.756a6.689,6.689,0,0,1-.351-1.625,4.356,4.356,0,0,1,.623-2.7c1.037-1.6,3.22-1.713,4.93-1.558A.819.819,0,0,0,8.857.864.83.83,0,0,0,8.044.051,8.094,8.094,0,0,0,3.466.78,5.145,5.145,0,0,0,.9,4.763a7.092,7.092,0,0,0,.172,2.531,8.5,8.5,0,0,0,.975,2.5,1.163,1.163,0,0,0,1.147.591.971.971,0,0,0,.848-1.155,7.364,7.364,0,0,0-.638-1.212c-.186-.369-.361-.743-.516-1.126A17.208,17.208,0,0,1,1.627,1.047C1.588,0-.038,0,0,1.047" transform="translate(1298.285 8315.072) rotate(-9)" fill="#323e92"/><path d="M2.231,6.388a6.861,6.861,0,0,0,6.3-2.773,2.7,2.7,0,0,0,.688-1.882A1.713,1.713,0,0,0,7.883.4,10.67,10.67,0,0,0,3.595.089C.652.469-.333,3.926.1,6.459a7.06,7.06,0,0,0,4.815,5.374,8.068,8.068,0,0,0,8.1-2.086.814.814,0,0,0-1.15-1.15,6.577,6.577,0,0,1-5.38,1.941A5.717,5.717,0,0,1,2.11,7.477c-.792-1.61-.737-4.048.653-5.337a1.862,1.862,0,0,1,1.113-.458,10.111,10.111,0,0,1,1.944,0,8.88,8.88,0,0,1,1.527.25,1.714,1.714,0,0,1,.289.1c-.063-.119-.024-.007-.07.047a2.685,2.685,0,0,0-.183.325A5.265,5.265,0,0,1,2.231,4.762a.817.817,0,0,0-.813.813.834.834,0,0,0,.813.813" transform="translate(1309.692 8312.457) rotate(-9)" fill="#323e92"/><path d="M0,.813A47.467,47.467,0,0,0,.874,6.129a19.327,19.327,0,0,0,.77,2.451,6.786,6.786,0,0,1,.666,2.482.814.814,0,0,0,1.626,0,6.87,6.87,0,0,0-.588-2.567,21.777,21.777,0,0,1-.833-2.5A41.281,41.281,0,0,1,1.631.813.839.839,0,0,0,.818,0,.818.818,0,0,0,0,.813" transform="translate(1327.536 8308.471) rotate(-9)" fill="#323e92"/><path d="M.576,3.218a5.206,5.206,0,0,0,3.014-.4,25.111,25.111,0,0,1,2.856-.742,24.512,24.512,0,0,1,5.884-.422c1.046.048,1.044-1.579,0-1.626a26.413,26.413,0,0,0-5.87.4,25.125,25.125,0,0,0-2.8.669c-.81.244-1.8.79-2.655.559A.814.814,0,0,0,.576,3.218" transform="translate(1323.1 8306.549) rotate(-9)" fill="#323e92"/><path d="M4.778.042A20.64,20.64,0,0,0,2.268,1.228q-.575.325-1.125.69a2.685,2.685,0,0,0-.986.9A1.619,1.619,0,0,0,1.346,5c.828.263,1.712.375,2.55.613A17.77,17.77,0,0,1,8.632,7.671c.385.246,1.386.8,1.2,1.408-.088.283-.536.439-.77.55a7.824,7.824,0,0,1-1.1.414A8.927,8.927,0,0,1,2.412,9.9a.813.813,0,0,0-.432,1.568,10.526,10.526,0,0,0,5.34.4,10.221,10.221,0,0,0,2.5-.806,2.432,2.432,0,0,0,1.635-1.941c.151-1.914-2.128-3.029-3.565-3.73A23.012,23.012,0,0,0,2.719,3.645c-.249-.055-.5-.1-.751-.159-.048-.012-.337-.133-.345-.128.03-.02-.043.283-.065.26s.211-.164.223-.173c.224-.15.448-.3.677-.439A17.77,17.77,0,0,1,5.21,1.61a.838.838,0,0,0,.568-1,.819.819,0,0,0-1-.568" transform="translate(1260.094 8336.551) rotate(-9)" fill="#323e92"/><path d="M4.778.042A20.64,20.64,0,0,0,2.268,1.228q-.575.325-1.125.69a2.685,2.685,0,0,0-.986.9A1.619,1.619,0,0,0,1.346,5c.827.263,1.712.375,2.55.613A17.77,17.77,0,0,1,8.632,7.671c.385.246,1.386.8,1.2,1.408-.088.283-.536.439-.77.55a7.824,7.824,0,0,1-1.1.414A8.927,8.927,0,0,1,2.412,9.9a.813.813,0,0,0-.432,1.568,10.527,10.527,0,0,0,5.34.4,10.221,10.221,0,0,0,2.5-.806,2.433,2.433,0,0,0,1.635-1.941C11.6,7.208,9.324,6.093,7.887,5.393A23,23,0,0,0,2.719,3.645c-.25-.055-.5-.1-.751-.159-.048-.012-.337-.133-.345-.128.03-.02-.043.283-.065.26s.211-.164.223-.173c.224-.15.448-.3.677-.439A17.77,17.77,0,0,1,5.21,1.61a.838.838,0,0,0,.568-1,.819.819,0,0,0-1-.568" transform="translate(1354.449 8325.084) rotate(-9)" fill="#323e92"/><path d="M1.96,7.282A12.411,12.411,0,0,0,5.916,5.614,12.808,12.808,0,0,0,7.6,4.313,3.858,3.858,0,0,0,8.848,2.591C9.289.957,7.463.086,6.127.007A5.14,5.14,0,0,0,2.579,1.339,7.062,7.062,0,0,0,.543,4.894a16.229,16.229,0,0,0-.4,2.183A8.445,8.445,0,0,0,.032,9.185c.194,1.53,1.566,2.385,2.873,2.946a9.1,9.1,0,0,0,4.314.726A6.121,6.121,0,0,0,11.5,11.049c.981-1.21,1-2.771,1.667-4.118.464-.935-.938-1.759-1.4-.821-.5,1-.637,2.1-1.056,3.119a3.044,3.044,0,0,1-2.205,1.76A7.271,7.271,0,0,1,2.155,9.84a1.382,1.382,0,0,1-.529-1.231,14.071,14.071,0,0,1,.16-1.648A9.208,9.208,0,0,1,2.756,3.7,4.043,4.043,0,0,1,4.806,1.85a3.078,3.078,0,0,1,1.376-.213c.289.027.876.141,1.052.41.2.3-.5.845-.69,1.026A10.332,10.332,0,0,1,5.1,4.21a11.076,11.076,0,0,1-3.568,1.5c-1.02.235-.588,1.8.432,1.568" transform="translate(1274.235 8334.496) rotate(-9)" fill="#323e92"/><path d="M0,1.185A34.569,34.569,0,0,0,1.929,12.858a.819.819,0,0,0,.892.583.8.8,0,0,0,.705-.8C3.4,11.373,3.338,10.1,3.333,8.826A16.659,16.659,0,0,1,3.525,5.2,4.35,4.35,0,0,1,5.219,2.769c.249-.2,1.757-1.517,2.031-1.075.552.887,1.959.071,1.4-.821A1.86,1.86,0,0,0,6.913.006,3.576,3.576,0,0,0,5.125.818,8.094,8.094,0,0,0,2.354,3.642,10.175,10.175,0,0,0,1.712,7.95,41.071,41.071,0,0,0,1.9,12.641l1.6-.216A33.179,33.179,0,0,1,1.627,1.185.814.814,0,0,0,0,1.185" transform="translate(1290.951 8332.311) rotate(-9)" fill="#323e92"/><path d="M.024,1.014A96.886,96.886,0,0,0,3.138,11.644a.824.824,0,0,0,1.486.195c.864-1.647,1.749-3.283,2.587-4.943a18.5,18.5,0,0,0,1.06-2.458,21.406,21.406,0,0,1,.8-2.418A.836.836,0,0,0,8.778.906.82.82,0,0,0,7.666,1.2a18,18,0,0,0-.853,2.461A15.372,15.372,0,0,1,5.807,6.074c-.837,1.66-1.723,3.3-2.587,4.943l1.486.194A96.911,96.911,0,0,1,1.592.582C1.356-.437-.212-.006.024,1.014" transform="translate(1302.391 8331.858) rotate(-9)" fill="#323e92"/><path d="M.045,1C.691,2.962.013,5.042.014,7.051a19.591,19.591,0,0,0,1.4,6.3.833.833,0,0,0,1,.568.821.821,0,0,0,.568-1A17.688,17.688,0,0,1,1.644,6.757C1.7,4.681,2.283,2.6,1.613.563,1.288-.427-.283,0,.045,1" transform="translate(1315.207 8330.119) rotate(-9)" fill="#323e92"/><path d="M9.668,1.254C9.306,0,7.955-.191,6.866.15A13.811,13.811,0,0,0,4.03,1.387,8.051,8.051,0,0,0,.218,5.978a5.407,5.407,0,0,0,1.281,5.3c1.637,1.62,3.912,1.394,6,1.093l3.842-.555a5.368,5.368,0,0,0,3.23-1.1c.746-.736-.4-1.886-1.15-1.15a3.57,3.57,0,0,1-2.042.618l-2.9.419c-.894.129-1.79.288-2.692.359a4.644,4.644,0,0,1-2.369-.284,3.451,3.451,0,0,1-1.8-3.209A5.445,5.445,0,0,1,3.679,3.608a9.4,9.4,0,0,1,2.4-1.436c.238-.1,1.917-.861,2.026-.485a.814.814,0,0,0,1.568-.432" transform="translate(1322.657 8330.633) rotate(-9)" fill="#323e92"/><path d="M2.46,6.661A27.776,27.776,0,0,0,5.239,4.773c.441-.34.873-.69,1.293-1.055A3.492,3.492,0,0,0,7.7,2.4C8.091,1.232,6.922.537,5.965.306A6.616,6.616,0,0,0,2.546.179C.324.917.05,3.623,0,5.617A4.568,4.568,0,0,0,1.009,8.729,7.053,7.053,0,0,0,3.445,10.6a4.773,4.773,0,0,0,3.788.324,13.055,13.055,0,0,0,3.379-1.891A.84.84,0,0,0,10.9,7.921.819.819,0,0,0,9.791,7.63,13.4,13.4,0,0,1,7.554,9.023,3.5,3.5,0,0,1,5.138,9.5C3.805,9.173,2.115,8.136,1.732,6.729a7.031,7.031,0,0,1,.007-2.538A3.675,3.675,0,0,1,2.41,2.167,2.106,2.106,0,0,1,4.36,1.68a7.721,7.721,0,0,1,1.248.213,2.088,2.088,0,0,1,.425.131c.115.059.236.228.113-.049C6.069,1.8,6.2,1.885,6.122,1.9c-.057.009-.262.244-.3.282q-.27.246-.547.484c-.354.3-.715.6-1.085.883a26.541,26.541,0,0,1-2.547,1.71.814.814,0,0,0,.821,1.4" transform="translate(1341.978 8327.479) rotate(-9)" fill="#323e92"/><rect width="109.328" height="36.303" transform="translate(1254.153 8317.469) rotate(-9)" fill="none"/><path d="M.011.577.717,4.2A8.865,8.865,0,0,0,1.7,7.323c.314.5,1.106.038.79-.462a8.5,8.5,0,0,1-.909-2.994L.893.334A.462.462,0,0,0,.33.015a.467.467,0,0,0-.32.563" transform="matrix(0.999, 0.035, -0.035, 0.999, 1252.008, 8306.259)" fill="#e50019"/><path d="M.78,1.389A2.02,2.02,0,0,1,1.624.917a1.123,1.123,0,0,1,.8.312A7.448,7.448,0,0,1,4.074,2.671,2.291,2.291,0,0,1,4.6,4.417a3.594,3.594,0,0,1-.9,1.652c-.241.281-.5.552-.756.813a2.176,2.176,0,0,1-.88.608.458.458,0,0,0,.243.882A4.591,4.591,0,0,0,4.242,6.829,4.809,4.809,0,0,0,5.474,4.7C5.865,2.766,4.265,1.41,2.859.417A1.859,1.859,0,0,0,1.453.022a3.048,3.048,0,0,0-1.32.72.46.46,0,0,0,0,.647.469.469,0,0,0,.647,0" transform="matrix(0.999, 0.035, -0.035, 0.999, 1251.795, 8305.351)" fill="#e50019"/><path d="M2.122.435a2.12,2.12,0,0,0-1.3.986,4.463,4.463,0,0,0-.781,1.65,2.389,2.389,0,0,0,.4,1.787A4.16,4.16,0,0,0,1.662,6.112a1.984,1.984,0,0,0,1.7.212,4.674,4.674,0,0,0,1.475-.97A1.94,1.94,0,0,0,5.645,3.8,4.707,4.707,0,0,0,4.96,1.964a9.551,9.551,0,0,0-.554-.9A3.294,3.294,0,0,0,3.7.238a1.879,1.879,0,0,0-1.99.136c-.525.267-.062,1.057.462.79.286-.145.733-.4,1.03-.159a2.412,2.412,0,0,1,.414.52q.221.318.415.653a7.075,7.075,0,0,1,.617,1.3,1,1,0,0,1,.06.6,1.145,1.145,0,0,1-.33.463c-.513.5-1.3,1.229-2.07.887a2.609,2.609,0,0,1-.929-.818,1.855,1.855,0,0,1-.472-1.1,2.8,2.8,0,0,1,.553-1.4,1.455,1.455,0,0,1,.9-.794.461.461,0,0,0,.32-.563.468.468,0,0,0-.563-.32" transform="matrix(0.999, 0.035, -0.035, 0.999, 1259.177, 8305.809)" fill="#e50019"/><path d="M.023,1.049A25.491,25.491,0,0,1,1.534,6.719l.882-.243c-.331-.965-.662-1.931-.93-2.916-.131-.484-.248-.972-.34-1.465-.044-.233-.083-.467-.114-.7C1.017,1.272,1,1.15.991,1.028.984.957.977.886.972.814c0-.025,0-.049,0-.074q0-.134-.1.121L.638.924C.558.931.57.86.613.921a1.455,1.455,0,0,0,.137.141q.142.149.281.3.292.316.574.642c.359.415.707.84,1.039,1.277A27.064,27.064,0,0,1,4.5,6.081a.461.461,0,0,0,.719.093C6.508,4.538,6.77,2.466,6.975.457A.46.46,0,0,0,6.518,0,.468.468,0,0,0,6.06.457c-.177,1.73-.372,3.653-1.488,5.069l.719.093A27.582,27.582,0,0,0,2.036,1.109Q1.818.863,1.594.623a2.958,2.958,0,0,0-.5-.485A.657.657,0,0,0,.051.709,8.644,8.644,0,0,0,.233,2.17c.084.479.192.955.315,1.426.276,1.057.631,2.091.986,3.124a.458.458,0,0,0,.882-.243A25.5,25.5,0,0,0,.905.805.471.471,0,0,0,.343.486a.461.461,0,0,0-.32.563" transform="matrix(0.999, 0.035, -0.035, 0.999, 1265.507, 8305.144)" fill="#e50019"/><path d="M.061.689a6.113,6.113,0,0,1,.328.657L.343,1.237a6.09,6.09,0,0,1,.244.693.464.464,0,0,0,.563.32.465.465,0,0,0,.32-.563A6.532,6.532,0,0,0,.851.227.463.463,0,0,0,.225.063.466.466,0,0,0,.061.689" transform="matrix(0.999, 0.035, -0.035, 0.999, 1273.343, 8302.886)" fill="#e50019"/><path d="M.006.442A34.511,34.511,0,0,0,.681,7.9a.454.454,0,0,0,.5.328.463.463,0,0,0,.4-.449l.03-.369a.461.461,0,0,0-.457-.457.467.467,0,0,0-.457.457l-.03.369.9-.122A33.363,33.363,0,0,1,.921.442a.458.458,0,0,0-.915,0" transform="matrix(0.999, 0.035, -0.035, 0.999, 1277.789, 8304.658)" fill="#e50019"/><path d="M.578,1.561A21.969,21.969,0,0,1,3.8.917.472.472,0,0,0,4.256.46.46.46,0,0,0,3.8,0,23.533,23.533,0,0,0,.335.678a.465.465,0,0,0-.32.563.464.464,0,0,0,.563.32" transform="matrix(0.999, 0.035, -0.035, 0.999, 1276.165, 8303.798)" fill="#e50019"/><path d="M2.858.052A2.214,2.214,0,0,0,.567,1.3,3.6,3.6,0,0,0,.056,3.847C.427,5.829,2.722,6.6,4.475,6.784a1.874,1.874,0,0,0,1.484-.46,3.757,3.757,0,0,0,.81-1.2A.469.469,0,0,0,6.6,4.5a.462.462,0,0,0-.626.164c-.245.5-.56,1.209-1.211,1.224A4.719,4.719,0,0,1,3.612,5.7a6.022,6.022,0,0,1-1.147-.365A2.651,2.651,0,0,1,1.053,4.017a2.418,2.418,0,0,1,.07-1.81C1.341,1.686,1.929.752,2.615.935A.458.458,0,0,0,2.858.052" transform="matrix(0.999, 0.035, -0.035, 0.999, 1288.194, 8305.517)" fill="#e50019"/><path d="M.011.572l.543,2.57A18.607,18.607,0,0,0,1.07,5.4a2.006,2.006,0,0,0,1.5,1.5,2.63,2.63,0,0,0,1.14-.218A6.937,6.937,0,0,0,4.874,6.14a.458.458,0,0,0-.462-.79A5.649,5.649,0,0,1,3.47,5.8a1.71,1.71,0,0,1-.845.186c-.52-.124-.707-.877-.81-1.315C1.472,3.231,1.2,1.774.894.329.772-.247-.11,0,.011.572" transform="matrix(0.999, 0.035, -0.035, 0.999, 1296.363, 8304.868)" fill="#e50019"/><path d="M.024.561a38.734,38.734,0,0,1,1.421,6.2.46.46,0,0,0,.563.32.47.47,0,0,0,.32-.563A38.69,38.69,0,0,0,.906.318C.729-.241-.155,0,.024.561" transform="matrix(0.999, 0.035, -0.035, 0.999, 1302.681, 8305.039)" fill="#e50019"/><path d="M2.822.928A.759.759,0,0,0,2.049,0a1.805,1.805,0,0,0-1.1.527A3.235,3.235,0,0,0,.012,2.733,7.38,7.38,0,0,0,.065,4.076a5.176,5.176,0,0,0,.278,1.3,2.354,2.354,0,0,0,1.7,1.566A1.591,1.591,0,0,0,3.909,5.6a.46.46,0,0,0-.457-.457.469.469,0,0,0-.458.457c-.023.178-.234.346-.405.412a.814.814,0,0,1-.7-.079,2.157,2.157,0,0,1-.885-1.654,5.093,5.093,0,0,1,.049-2.23,1.958,1.958,0,0,1,.4-.73,1.49,1.49,0,0,1,.311-.27,1.169,1.169,0,0,1,.193-.1L2.049.915a.2.2,0,0,1-.11-.231c-.125.574.756.819.882.243" transform="matrix(0.999, 0.035, -0.035, 0.999, 1307.335, 8305.155)" fill="#e50019"/><path d="M.056.685A7.11,7.11,0,0,1,.523,3.74,10.6,10.6,0,0,0,.871,7c.183.557,1.066.318.882-.243a10.658,10.658,0,0,1-.317-3.245A7.655,7.655,0,0,0,.846.223.461.461,0,0,0,.22.059.467.467,0,0,0,.056.685" transform="matrix(0.999, 0.035, -0.035, 0.999, 1313.086, 8305.269)" fill="#e50019"/><path d="M2.654.133l-1.71,2C.471,2.691-.391,3.409.2,4.178a2.663,2.663,0,0,0,.9.649q.51.275,1.038.513a16.944,16.944,0,0,0,2.285.839A.458.458,0,0,0,4.666,5.3a15.248,15.248,0,0,1-1.915-.68q-.455-.2-.9-.426a4.939,4.939,0,0,1-.829-.468c-.012-.009-.12-.1-.12-.106,0-.086.17-.229.214-.28l.708-.829L3.3.78a.47.47,0,0,0,0-.647.461.461,0,0,0-.647,0" transform="matrix(0.999, 0.035, -0.035, 0.999, 1314.308, 8305.94)" fill="#e50019"/><rect width="67.484" height="11.653" transform="matrix(0.999, 0.035, -0.035, 0.999, 1251.907, 8302.137)" fill="none"/></g></svg>