<svg xmlns="http://www.w3.org/2000/svg" width="40.5" height="40.5" viewBox="0 0 40.5 40.5"><g transform="translate(-2329.25 -8266.25)"><path d="M213.432,78.555A20,20,0,1,1,233.385,98.6c-.218,0-.437,0-.653-.013a19.985,19.985,0,0,1-19.3-20.034" transform="translate(2116.068 8207.898)" fill="#e0dcfa" stroke="#000" stroke-width="0.5"/><g transform="translate(20 82)"><path d="M239.273,83.154A2.141,2.141,0,0,1,239.7,84.5a2.046,2.046,0,0,1-.828,1.69,12.366,12.366,0,0,1-3.451,2.031,10.31,10.31,0,0,1-3.7.7,8.385,8.385,0,0,1-6.06-2.3,11.978,11.978,0,0,1-3.218-6.545h-2.337a1.451,1.451,0,0,1-1.043-.414,1.363,1.363,0,0,1-.432-1.025,1.306,1.306,0,0,1,.432-1.006,1.487,1.487,0,0,1,1.043-.4h2.013c-.026-.288-.035-.73-.035-1.329s.01-1.043.035-1.331h-2.013a1.451,1.451,0,0,1-1.043-.414,1.319,1.319,0,0,1-.432-.988,1.363,1.363,0,0,1,.432-1.025,1.451,1.451,0,0,1,1.043-.414h2.337a11.877,11.877,0,0,1,3.236-6.508,8.4,8.4,0,0,1,6.042-2.3,10.5,10.5,0,0,1,3.7.7,11.737,11.737,0,0,1,3.451,2.033,2.489,2.489,0,0,1,.629.736,2.044,2.044,0,0,1,.2.954,2.131,2.131,0,0,1-.432,1.347,1.312,1.312,0,0,1-1.079.558,1.706,1.706,0,0,1-.665-.126,4.217,4.217,0,0,1-.775-.45,11.544,11.544,0,0,0-2.534-1.546,6.029,6.029,0,0,0-2.319-.467,4.282,4.282,0,0,0-3.218,1.24,7.245,7.245,0,0,0-1.672,3.83h4.6a1.436,1.436,0,0,1,1.061.414,1.4,1.4,0,0,1,.412,1.025,1.332,1.332,0,0,1-.412,1.006,1.471,1.471,0,0,1-1.061.4h-4.891q-.035.432-.035,1.331c0,.6.012,1.041.035,1.329h4.891a1.471,1.471,0,0,1,1.061.4,1.338,1.338,0,0,1,.412,1.006,1.4,1.4,0,0,1-.412,1.025,1.436,1.436,0,0,1-1.061.414h-4.6a7.28,7.28,0,0,0,1.672,3.865,4.274,4.274,0,0,0,3.218,1.24,5.427,5.427,0,0,0,2.211-.485,17.718,17.718,0,0,0,2.643-1.528,4.462,4.462,0,0,1,.775-.45,1.742,1.742,0,0,1,.665-.126,1.317,1.317,0,0,1,1.079.558" transform="translate(2099.369 8129.074)"/><path d="M239.273,83.154A2.141,2.141,0,0,1,239.7,84.5a2.046,2.046,0,0,1-.828,1.69,12.366,12.366,0,0,1-3.451,2.031,10.31,10.31,0,0,1-3.7.7,8.385,8.385,0,0,1-6.06-2.3,11.978,11.978,0,0,1-3.218-6.545h-2.337a1.451,1.451,0,0,1-1.043-.414,1.363,1.363,0,0,1-.432-1.025,1.306,1.306,0,0,1,.432-1.006,1.487,1.487,0,0,1,1.043-.4h2.013c-.026-.288-.035-.73-.035-1.329s.01-1.043.035-1.331h-2.013a1.451,1.451,0,0,1-1.043-.414,1.319,1.319,0,0,1-.432-.988,1.363,1.363,0,0,1,.432-1.025,1.451,1.451,0,0,1,1.043-.414h2.337a11.877,11.877,0,0,1,3.236-6.508,8.4,8.4,0,0,1,6.042-2.3,10.5,10.5,0,0,1,3.7.7,11.737,11.737,0,0,1,3.451,2.033,2.489,2.489,0,0,1,.629.736,2.044,2.044,0,0,1,.2.954,2.131,2.131,0,0,1-.432,1.347,1.312,1.312,0,0,1-1.079.558,1.706,1.706,0,0,1-.665-.126,4.217,4.217,0,0,1-.775-.45,11.544,11.544,0,0,0-2.534-1.546,6.029,6.029,0,0,0-2.319-.467,4.282,4.282,0,0,0-3.218,1.24,7.245,7.245,0,0,0-1.672,3.83h4.6a1.436,1.436,0,0,1,1.061.414,1.4,1.4,0,0,1,.412,1.025,1.332,1.332,0,0,1-.412,1.006,1.471,1.471,0,0,1-1.061.4h-4.891q-.035.432-.035,1.331c0,.6.012,1.041.035,1.329h4.891a1.471,1.471,0,0,1,1.061.4,1.338,1.338,0,0,1,.412,1.006,1.4,1.4,0,0,1-.412,1.025,1.436,1.436,0,0,1-1.061.414h-4.6a7.28,7.28,0,0,0,1.672,3.865,4.274,4.274,0,0,0,3.218,1.24,5.427,5.427,0,0,0,2.211-.485,17.718,17.718,0,0,0,2.643-1.528,4.462,4.462,0,0,1,.775-.45,1.742,1.742,0,0,1,.665-.126,1.317,1.317,0,0,1,1.079.558" transform="translate(2100.369 8128.074)" fill="#fff" stroke="#000" stroke-width="0.25"/></g></g></svg>