<svg xmlns="http://www.w3.org/2000/svg" width="54.009" height="52.201" viewBox="0 0 54.009 52.201"><path d="M39.745,96.979,26.076,86.824c-5.124-3.807-10.418-7.809-13.368-13.47-2.009-3.856-1.846-9.985,2.368-11.06,1.878-.479,3.825.324,5.569,1.169A84.3,84.3,0,0,1,34.887,72.2c.646.49,1.463,1.017,2.206.693a2.288,2.288,0,0,0,.923-.98l6.59-10.628c2.889-4.657,7.245-9.983,12.591-8.779,3.762.847,6.1,4.9,6.246,8.753s-1.4,7.55-2.948,11.081q-6.853,15.6-14.7,30.733" transform="translate(-10.442 -51.333)" fill="none" stroke="#f0f" stroke-miterlimit="10" stroke-width="2"/></svg>