<svg xmlns="http://www.w3.org/2000/svg" xmlns:xlink="http://www.w3.org/1999/xlink" width="678" height="1468" viewBox="0 0 678 1468"><defs><clipPath id="a"><rect width="678" height="1468" transform="translate(0.387 0.467)"/></clipPath></defs><g transform="translate(-621 194)"><rect width="678" height="1468" transform="translate(621 -194)" fill="#b3b3b3"/><g transform="translate(620.613 -194.467)" clip-path="url(#a)"><g transform="translate(59.175 118.35)"><rect width="681.384" height="95.202" fill="#fff"/><rect width="681.384" height="95.202" transform="translate(0 139.236)" fill="#fff"/><rect width="681.384" height="95.202" transform="translate(0 280.211)" fill="#fff"/><rect width="681.384" height="95.202" transform="translate(0 419.447)" fill="#fff"/><rect width="681.384" height="95.202" transform="translate(0 560.423)" fill="#fff"/><rect width="681.384" height="95.202" transform="translate(0 699.659)" fill="#fff"/></g><g transform="translate(24.366 963.944)"><rect width="684" height="527" transform="translate(0.021 0.523)" fill="#e4e4e4"/><rect width="682.254" height="525.876" transform="translate(0.87 0.87)" fill="none" stroke="#000" stroke-width="1"/><path d="M.5,526.376V.5H682.754V34.258H35.135V526.373Z" transform="translate(0.37 0.37)" fill="#ccc"/><path d="M1.74,525.92H34.635V33.761H682.254V1.7H1.74V525.922m34.635,1.7H0V0H683.995V35.457H36.375Z"/></g><path d="M280.3,501.1a195.422,195.422,0,0,1,25.585,12.879c8.876,5.4,15.142,9.224,14.446,11.487s-8.006,3.829-40.03-.7Z" transform="translate(207.546 311.037)" fill="#fac59e" stroke="#000" stroke-width="0.5"/><g transform="translate(276.603 796.898)"><path d="M15008.8,8586.8v67.877H14518a270.4,270.4,0,0,1,37.594-15.313c2.783-.872,7.83-5.222,7.83-5.222a64.831,64.831,0,0,0,11.485-1.393c42.12-12.184,85.282-18.449,128.446-24.018,25.934-3.309,52.039-5.918,78.146-7.484,28.543-1.74,57.262-3.654,85.8-5.918,28.717-2.262,57.436-6.092,86.326-7.484h4.178c2.783-.172,5.57-.172,8.18-.348,1.043,0,2.09-.174,3.133-.174a16.075,16.075,0,0,0,2.782-.172c1.394,0,2.96-.174,4.353-.174,2.438-.174,4.873-.174,7.311-.174h25.238" transform="translate(-14518 -7981.357)" fill="#f1d624" stroke="#000" stroke-linecap="round" stroke-width="0.5"/><path d="M14625.7,8574.84c9.051-.7,16.361-6.265,25.064-8.354,22.625-5.222,42.813-1.74,59.348,15.837,1.393,1.567,2.783,3.133,4.178,4.524,2.09,1.914,3.83,2.611,4.873-1.043,1.219-3.83,4.352-7.136,3.307-11.662-.521-25.236-3.307-50.124-11.66-74.142-3.309-9.4-6.789-18.623-12.531-26.8-9.572-13.575-31.156-19.493-45.773-12.01-7.311,3.829-11.312,11.14-15.316,18.1-9.572,16.36-12.01,34.809-12.355,53.257-.176,14.273.52,28.37.867,42.294" transform="translate(-14438.931 -8076.787)" fill="#f57474" stroke="#000" stroke-linecap="round" stroke-width="0.5"/><path d="M14692.2,8446.86c0-2.262-.174-4.7-.174-6.962-.174-16.36,10.27-26.8,26.8-27.5,14.793-.522,28.02,5.395,41.6,9.745,13.4-42.119,24.367-84.76,25.064-129.314.348-22.452-8.354-40.9-29.588-49.254-27.848-11.14-56.912-3.481-59.523,36.723-1.043,15.664-.7,31.328-2.09,46.992-2.437,27.325-9.051,53.605-16.359,79.887a65.93,65.93,0,0,0-2.264,14.272c-.523,12.878,5.568,20.71,16.533,25.409" transform="translate(-14401.242 -8238.934)" fill="#f57474" stroke="#000" stroke-linecap="round" stroke-width="0.5"/><path d="M14989.5,8430.57v341.3h-.348c-4.352,0-8.529-.173-12.881,0-13.227.174-26.279.7-39.334,1.219a13.035,13.035,0,0,0-2.608.173c-28.72,1.22-57.437,5.049-86.327,7.484-28.543,2.262-57.086,4.351-85.8,5.918-26.107,1.567-52.215,4.178-78.146,7.483-43.338,5.57-86.5,11.835-128.445,24.019-3.48,1.043-7.484,4-11.486.521a65.594,65.594,0,0,1,2.959-6.092,820.628,820.628,0,0,1,51-71.53c19.317-23.846,37.071-42.469,64.919-64.4,28.02-21.929,38.289-21.234,46.99-23.323,22.8-5.221,42.814-1.74,59.35,15.838,1.393,1.567,2.783,3.133,4.178,4.524,2.088,1.914,3.828,2.61,4.873-1.044,1.219-3.829,4.7-13.053,5.047-13.923a503.445,503.445,0,0,0,22.628-112.434c2.438-29.238,3.827-58.477,1.218-87.892-2.437-29.587-2.959-59.7-18.449-86.325,0-2.262-.172-4.7-.172-6.962-.174-16.36,10.268-26.8,26.8-27.5,14.793-.7,26.629,3.132,57.086,17.056,30.285,13.924,43.338,24.888,64.223,38.639,10.443,6.788,20.713,13.923,30.807,21.059,2.959,2.089,5.744,4.178,8.529,6.265,4.352,3.133,8.7,6.44,12.879,9.572.17.177.344.351.518.351" transform="translate(-14498.673 -8165.91)" fill="#e0dcfa" stroke="#000" stroke-linecap="round" stroke-width="0.5"/><path d="M14646.7,8473.28l13.4,55.346c.348,1.741,3.133,1.044,2.783-.7l-13.4-55.346a1.436,1.436,0,0,0-2.785.7" transform="translate(-14422.731 -8066.77)" fill="#fff"/><path d="M14720.7,8259.78l-13.4,55.346c-.35,1.741-3.133,1.044-2.785-.7l13.4-55.346a1.435,1.435,0,0,1,2.782.7" transform="translate(-14379.92 -8224.854)" fill="#fff"/><path d="M14781.3,8674.07c2.609-19.493,1.391-39.16-1.742-58.478-3.307-19.842-8.527-39.16-13.574-58.653-5.221-19.494-10.094-38.987-14.621-58.653s-8.875-39.334-12.705-59.176-7.482-39.682-10.791-59.523c-.348-2.61-.869-5.048-1.219-7.658-.348-1.74-2.959-1.044-2.609.7,3.133,19.842,6.787,39.509,10.615,59.349,3.83,19.667,8.006,39.16,12.357,58.653,4.523,19.493,9.223,38.987,14.271,58.479,5.049,19.145,10.443,38.29,14.271,57.956,3.654,19.318,5.918,39.16,4.178,58.827-.174,2.438-.521,4.873-.869,7.483-.521,1.744,2.262,2.614,2.438.7" transform="translate(-14365.482 -8141.205)" fill="#fff"/><path d="M14564.5,8647.13c6.264-7.659,10.791-16.534,15.314-25.236A134.705,134.705,0,0,1,14595.2,8597a138.6,138.6,0,0,1,20.537-19.84c7.482-6.092,15.314-11.662,22.975-17.4a249.013,249.013,0,0,0,22.278-18.274c.868-.87,1.739-1.567,2.608-2.436s-.521-2.089-1.391-1.219a203.5,203.5,0,0,1-22.105,18.449c-7.658,5.742-15.49,11.485-22.973,17.4a157.2,157.2,0,0,0-20.887,19.32,77.274,77.274,0,0,0-8.525,11.313,135.345,135.345,0,0,0-7.311,12.88c-4.527,8.7-8.7,17.752-14.623,25.758-.7,1.044-1.566,1.914-2.262,2.959-1.217.872.176,2.091,1.047,1.221" transform="translate(-14478.662 -8016.842)" fill="#fff"/></g><path d="M344.722,443.836c-6.788,8.18-13.924,9.4-35.679,18.1-8.18,3.133-17.578,7.484-28.543,12.531V401.718a62.477,62.477,0,0,1,20.363-9.572,12.821,12.821,0,0,0,2.437-.7c30.284-9.572,66.659,21.581,41.423,52.387" transform="translate(207.695 218.542)" fill="#fac59e" stroke="#000" stroke-width="0.5"/><path d="M280.4,445.2a183.047,183.047,0,0,1,25.41,12.879c8.876,5.4,15.142,9.224,14.446,11.487s-8.006,3.829-39.856-.7Z" transform="translate(207.621 269.646)" fill="#fac59e" stroke="#000" stroke-width="0.5"/><g transform="translate(208.853 434.729)"><rect width="262" height="460" transform="translate(-0.467 -0.261)" fill="#f1d624"/><line y2="460" transform="translate(-0.467 -0.261)" fill="none" stroke="#707070" stroke-width="0.05"/><line y2="460" transform="translate(10.533 -0.261)" fill="none" stroke="#707070" stroke-width="0.05"/><line y2="460" transform="translate(20.533 -0.261)" fill="none" stroke="#707070" stroke-width="0.05"/><line y2="460" transform="translate(31.533 -0.261)" fill="none" stroke="#707070" stroke-width="0.05"/><line y2="460" transform="translate(41.533 -0.261)" fill="none" stroke="#707070" stroke-width="0.05"/><line y2="460" transform="translate(52.533 -0.261)" fill="none" stroke="#707070" stroke-width="0.05"/><line y2="460" transform="translate(62.533 -0.261)" fill="none" stroke="#707070" stroke-width="0.05"/><line y2="460" transform="translate(73.533 -0.261)" fill="none" stroke="#707070" stroke-width="0.05"/><line y2="460" transform="translate(83.533 -0.261)" fill="none" stroke="#707070" stroke-width="0.05"/><line y2="460" transform="translate(93.533 -0.261)" fill="none" stroke="#707070" stroke-width="0.05"/><line y2="460" transform="translate(104.533 -0.261)" fill="none" stroke="#707070" stroke-width="0.05"/><line y2="460" transform="translate(114.533 -0.261)" fill="none" stroke="#707070" stroke-width="0.05"/><line y2="460" transform="translate(125.533 -0.261)" fill="none" stroke="#707070" stroke-width="0.05"/><line y2="460" transform="translate(135.533 -0.261)" fill="none" stroke="#707070" stroke-width="0.05"/><line y2="460" transform="translate(146.533 -0.261)" fill="none" stroke="#707070" stroke-width="0.05"/><line y2="460" transform="translate(156.533 -0.261)" fill="none" stroke="#707070" stroke-width="0.05"/><line y2="460" transform="translate(167.533 -0.261)" fill="none" stroke="#707070" stroke-width="0.05"/><line y2="460" transform="translate(177.533 -0.261)" fill="none" stroke="#707070" stroke-width="0.05"/><line y2="460" transform="translate(187.533 -0.261)" fill="none" stroke="#707070" stroke-width="0.05"/><line y2="460" transform="translate(198.533 -0.261)" fill="none" stroke="#707070" stroke-width="0.05"/><line y2="460" transform="translate(208.533 -0.261)" fill="none" stroke="#707070" stroke-width="0.05"/><line y2="460" transform="translate(219.533 -0.261)" fill="none" stroke="#707070" stroke-width="0.05"/><line y2="460" transform="translate(229.533 -0.261)" fill="none" stroke="#707070" stroke-width="0.05"/><line y2="460" transform="translate(240.533 -0.261)" fill="none" stroke="#707070" stroke-width="0.05"/><line y2="460" transform="translate(250.533 -0.261)" fill="none" stroke="#707070" stroke-width="0.05"/><line y2="460" transform="translate(261.533 -0.261)" fill="none" stroke="#707070" stroke-width="0.05"/><line x1="262" transform="translate(-0.467 10.739)" fill="none" stroke="#707070" stroke-width="0.05"/><line x1="262" transform="translate(-0.467 20.739)" fill="none" stroke="#707070" stroke-width="0.05"/><line x1="262" transform="translate(-0.467 31.739)" fill="none" stroke="#707070" stroke-width="0.05"/><line x1="262" transform="translate(-0.467 41.739)" fill="none" stroke="#707070" stroke-width="0.05"/><line x1="262" transform="translate(-0.467 51.739)" fill="none" stroke="#707070" stroke-width="0.05"/><line x1="262" transform="translate(-0.467 62.739)" fill="none" stroke="#707070" stroke-width="0.05"/><line x1="262" transform="translate(-0.467 72.739)" fill="none" stroke="#707070" stroke-width="0.05"/><line x1="262" transform="translate(-0.467 83.739)" fill="none" stroke="#707070" stroke-width="0.05"/><line x1="262" transform="translate(-0.467 93.739)" fill="none" stroke="#707070" stroke-width="0.05"/><line x1="262" transform="translate(-0.467 104.739)" fill="none" stroke="#707070" stroke-width="0.05"/><line x1="262" transform="translate(-0.467 114.739)" fill="none" stroke="#707070" stroke-width="0.05"/><line x1="262" transform="translate(-0.467 125.739)" fill="none" stroke="#707070" stroke-width="0.05"/><line x1="262" transform="translate(-0.467 135.739)" fill="none" stroke="#707070" stroke-width="0.05"/><line x1="262" transform="translate(-0.467 145.739)" fill="none" stroke="#707070" stroke-width="0.05"/><line x1="262" transform="translate(-0.467 156.739)" fill="none" stroke="#707070" stroke-width="0.05"/><line x1="262" transform="translate(-0.467 166.739)" fill="none" stroke="#707070" stroke-width="0.05"/><line x1="262" transform="translate(-0.467 177.739)" fill="none" stroke="#707070" stroke-width="0.05"/><line x1="262" transform="translate(-0.467 187.739)" fill="none" stroke="#707070" stroke-width="0.05"/><line x1="262" transform="translate(-0.467 198.739)" fill="none" stroke="#707070" stroke-width="0.05"/><line x1="262" transform="translate(-0.467 208.739)" fill="none" stroke="#707070" stroke-width="0.05"/><line x1="262" transform="translate(-0.467 219.739)" fill="none" stroke="#707070" stroke-width="0.05"/><line x1="262" transform="translate(-0.467 229.739)" fill="none" stroke="#707070" stroke-width="0.05"/><line x1="262" transform="translate(-0.467 239.739)" fill="none" stroke="#707070" stroke-width="0.05"/><line x1="262" transform="translate(-0.467 250.739)" fill="none" stroke="#707070" stroke-width="0.05"/><line x1="262" transform="translate(-0.467 260.739)" fill="none" stroke="#707070" stroke-width="0.05"/><line x1="262" transform="translate(-0.467 271.739)" fill="none" stroke="#707070" stroke-width="0.05"/><line x1="262" transform="translate(-0.467 281.739)" fill="none" stroke="#707070" stroke-width="0.05"/><line x1="262" transform="translate(-0.467 292.739)" fill="none" stroke="#707070" stroke-width="0.05"/><line x1="262" transform="translate(-0.467 302.739)" fill="none" stroke="#707070" stroke-width="0.05"/><line x1="262" transform="translate(-0.467 313.739)" fill="none" stroke="#707070" stroke-width="0.05"/><line x1="262" transform="translate(-0.467 323.739)" fill="none" stroke="#707070" stroke-width="0.05"/><line x1="262" transform="translate(-0.467 333.739)" fill="none" stroke="#707070" stroke-width="0.05"/><line x1="262" transform="translate(-0.467 344.739)" fill="none" stroke="#707070" stroke-width="0.05"/><line x1="262" transform="translate(-0.467 354.739)" fill="none" stroke="#707070" stroke-width="0.05"/><line x1="262" transform="translate(-0.467 365.739)" fill="none" stroke="#707070" stroke-width="0.05"/><line x1="262" transform="translate(-0.467 375.739)" fill="none" stroke="#707070" stroke-width="0.05"/><line x1="262" transform="translate(-0.467 386.739)" fill="none" stroke="#707070" stroke-width="0.05"/><line x1="262" transform="translate(-0.467 396.739)" fill="none" stroke="#707070" stroke-width="0.05"/><line x1="262" transform="translate(-0.467 407.739)" fill="none" stroke="#707070" stroke-width="0.05"/><line x1="262" transform="translate(-0.467 417.739)" fill="none" stroke="#707070" stroke-width="0.05"/><line x1="262" transform="translate(-0.467 427.739)" fill="none" stroke="#707070" stroke-width="0.05"/><line x1="262" transform="translate(-0.467 438.739)" fill="none" stroke="#707070" stroke-width="0.05"/><line x1="262" transform="translate(-0.467 448.739)" fill="none" stroke="#707070" stroke-width="0.05"/><line x1="262" transform="translate(-0.467 459.739)" fill="none" stroke="#707070" stroke-width="0.05"/></g><path d="M296.934,402.009c-6.266,5.221-13.227,10.791-16.534,13.4V335.872c18.971-6.614,34.113,3.307,36.9,22.1,4.351,14.446-2.437,31.328-20.363,44.033" transform="translate(207.621 177.177)" fill="#fac59e" stroke="#000" stroke-width="0.5"/><path d="M140.331,598.615a17.874,17.874,0,0,1,24.018,6.962c0,.348.348.348.348.522,2.089,4.177,2.089,9.05,4.177,13.227,3.829,6.962,12.357,9.921,19.667,13.227,7.31,3.133,15.142,9.05,14.968,17.23-.522,8.528-9.921,13.227-18.1,14.62-16.012,2.959-33.068-.87-48.21-6.962a19.9,19.9,0,0,1-5.221-2.959,13.376,13.376,0,0,1-2.959-11.313c1.218-9.05,6.788-17.578,6.092-26.8-.522-3.133-.87-6.44-1.218-9.921.348-3.133,2.959-6.788,6.092-6.788Z" transform="translate(95.325 441.649)" fill="#ff4af2" opacity="0.6"/><g transform="translate(189.708 412.103)"><path d="M298.116,529.595H.5V.5H298.116ZM22.256,27.825V477.382h254.1V27.825Z" transform="translate(0.37 0.37)" fill="#fff"/><path d="M297.616,529.095V1.74H1.74V529.095H297.616M21.756,27.325H277.6v451.3H21.756V27.325m277.6,503.51H0V0H299.356ZM23.5,29.065V476.882H275.86V29.065Z"/></g><g transform="translate(320.067 897.549)"><path d="M15703.6,5543.1a18.086,18.086,0,1,1-5.3-12.8,18.086,18.086,0,0,1,5.3,12.8h0" transform="translate(-15667.399 -5524.129)"/><path d="M15704.2,5542.6a18.085,18.085,0,1,1-5.3-12.8,18.086,18.086,0,0,1,5.3,12.8h0" transform="translate(-15666.954 -5524.5)" fill="#f57474" stroke="#000" stroke-width="0.5"/><path d="M15674.5,5545.35h14.445V5530.9H15674.5Zm13.055-1.393h-11.486V5532.47h11.486Z" transform="translate(-15662.141 -5519.761)"/></g><g transform="translate(158.789 412.799)"><path d="M62.429,258.545l30.1-19.145V768.8L60.511,740.93Z" transform="translate(-61.352 -239.4)" fill="#f57474"/><path d="M62.069,258.452s22.794-14.585,30.323-19.323" transform="translate(-61.352 -239.326)" fill="none" stroke="#000" stroke-linecap="round" stroke-width="1"/><path d="M62.2,250.4l-.7,482.277" transform="translate(-61.5 -231.255)" fill="none" stroke="#000" stroke-linecap="round" stroke-width="1"/><path d="M61.5,527.5l30.836,27.847" transform="translate(-61.5 -26.078)" fill="none" stroke="#000" stroke-linecap="round" stroke-width="1"/></g><path d="M299.47,765.746l-7.484,8.7h0a24.8,24.8,0,0,1-5.4,5.047l-3.481,2.611c-.7.7-24.192,13.053-44.033,23.844a202.373,202.373,0,0,1-41.423,16.708L147.007,844.24c-12.183,3.307-31.676,22.278-39.682,32.024C98.1,887.4-.234,1056.92-.234,1056.92s-.348-254.453,0-254.8c19.667-24.018,33.591-54.3,48.732-99.9-17.927-188.49,21.93-130.359,44.729-255.5,7.832-34.809,10.443-32.72,10.791-44.729.7-24.714-10.1-32.2-3.655-48.732,12.009-32.546,39.856-18.623,54.128,1.392,25.41,35.505,20.711,75.013,4.873,117.132-4,9.224-16.36,34.983-12.183,48.558,0,.174,4.7,5.569,11.835,14.446L158.668,737.2l30.98,28.369Z" transform="translate(-0.288 177.192)" fill="#fac59e" stroke="#000" stroke-width="0.5"/><path d="M339.153,466.077c-19.667-27.325-68.573-14.62-68.051,21.059,7.484,66.659,100.424,36.375,68.051-21.059" transform="translate(200.733 264.179)" fill="#fac59e" stroke="#000" stroke-width="0.5"/><path d="M341.462,559.416c-15.316,28.2-80.583,16.708-80.06-20.363,8.7-56.564,110.518-30.284,80.06,20.363" transform="translate(193.551 305.551)" fill="#fac59e" stroke="#000" stroke-width="0.5"/><path d="M287.681,558.578c-30.11-10.269-25.062-47.862,13.575-45.948C296.383,527.6,293.076,542.566,287.681,558.578Z" transform="translate(198.599 309.522)" fill="none" stroke="#000" stroke-miterlimit="10" stroke-width="0.5"/><path d="M296.181,505.478c-30.11-10.269-25.062-47.862,13.575-45.948-4.7,14.968-8.18,29.936-13.575,45.948" transform="translate(204.893 270.204)" fill="none" stroke="#000" stroke-width="0.5"/><path d="M286.821,409.056c1.566,11.835,2.611,23.67,3.481,35.505,0,.174.174.174.174,0-.87-11.835-1.914-23.67-3.481-35.505,0-.174-.348-.174-.174,0" transform="translate(212.339 212.786)"/><path d="M288.9,339.833a91.427,91.427,0,0,1,10.965,22.278c0,.174.174,0,.174,0a91.427,91.427,0,0,0-10.965-22.278c0-.174-.174,0-.174,0" transform="translate(213.914 181.57)"/><path d="M303.365,538.4a53.821,53.821,0,0,1-10.965,7.658v.174a48.487,48.487,0,0,0,10.965-7.832h0" transform="translate(216.506 318.655)"/><path d="M309.417,468.233c-3.307,11.487-6.788,22.8-10.617,34.113,0,.174.174.174.174,0,3.829-11.313,7.484-22.626,10.617-34.113,0,0-.174-.174-.174,0" transform="translate(221.245 266.643)"/><path d="M337.861,433.409c-6.266,8.528-20.363,10.617-29.065,7.136-16.186-6.266-19.319-33.765-10.269-41.945" transform="translate(217.341 225.141)" fill="none" stroke="#000" stroke-linecap="round" stroke-miterlimit="9.998" stroke-width="0.5"/><path d="M59.6,399.915c3.133,0,7.658-5.4,11.661-12.7,12.183-22.626,2.263-50.995,1.566-52.909" transform="translate(44.13 177.53)" fill="none" stroke="#000" stroke-linecap="round" stroke-miterlimit="10" stroke-width="0.5"/><path d="M102.637,441.1a391.223,391.223,0,0,1-16.36,52.561C78.271,513.328,69.221,532.473,59.3,551.27" transform="translate(43.908 256.61)" fill="none" stroke="#000" stroke-linecap="round" stroke-width="0.25"/><path d="M76.925,661.967a48.75,48.75,0,0,0-15.838-2.611c-9.05-.522-19.145-.522-26.455-6.788a8.815,8.815,0,0,1-2.263-10.617c-6.614-.87-13.053-1.74-19.667-2.959h-.174l-3.481.87a.608.608,0,0,1-.348-.174c0-.174,0-.174.174-.174l2.959-.7h0c-.87-.348-1.914-.7-2.785-1.044-.174,0-.174-.174,0-.348,0-.174.174-.174.348,0l2.611,1.044a4.947,4.947,0,0,1-1.566-2.959c0-.174,0-.348.174-.348s.348,0,.348.174A4.061,4.061,0,0,0,12.7,638.3c.174.174.174.174,0,.348h0c6.614,1.392,13.4,2.263,20.015,3.133V641.6a11.1,11.1,0,0,1,10.965-4.351c.348,0,.174.522-.174.522-4.525-.7-9.921,1.392-11.313,6.266a8.307,8.307,0,0,0,.87,6.092,14.992,14.992,0,0,0,5.221,4.7,32.4,32.4,0,0,0,12.705,3.655c8.528,1.044,17.578.174,25.933,3.307a94.766,94.766,0,0,0-3.133-13.924,64.913,64.913,0,0,1-18.275-3.133c-.348-.174-.174-.522.174-.522a62.551,62.551,0,0,0,17.927,3.133c-.522-2.089-1.218-4.177-1.74-6.266-1.392-4.873-2.437-9.746-5.569-13.75a13.1,13.1,0,0,0-8.354-5.221,10.651,10.651,0,0,0-8.354,3.307A22.365,22.365,0,0,0,44.553,637.6c0,.348-.522.174-.522-.174.7-4.873,2.263-9.921,6.092-13.227a10.053,10.053,0,0,1,8.528-2.437A13.622,13.622,0,0,1,67,627.506c3.133,4.351,4.177,9.572,5.743,14.62l1.566,5.221c4,.174,8.006.348,11.835.522-.522-1.566-3.307-2.959-4.351-3.481-.348-.174,0-.522.174-.522.87.348,1.566.87,2.263,1.218a4.921,4.921,0,0,1,2.437,3.133c.174,1.914-2.089,2.959-3.307,3.655-.348.174-.522-.348-.174-.522a7.29,7.29,0,0,0,2.785-1.915,2.514,2.514,0,0,0,.348-1.218c-3.829-.174-7.832-.348-11.835-.522a92.193,92.193,0,0,1,3.133,14.1c0,.174,0,.348-.174.348a.639.639,0,0,0-.522-.174Z" transform="translate(6.442 390.271)"/><g transform="translate(110.402 949.89)"><path d="M76.7,495.9a196.643,196.643,0,0,0-17.927-23.67c-.174-.174-.174,0-.174.174a216.681,216.681,0,0,1,17.927,23.67c.174,0,.348,0,.174-.174" transform="translate(-28.49 -542.159)"/><path d="M79.6,491.8l-25.062,6.092c-.174,0,0,.174,0,.174L79.6,491.974c.174,0,0-.174,0-.174" transform="translate(-31.559 -527.615)"/><path d="M65.318,546.712a264.2,264.2,0,0,1,27.151-11.487,248.125,248.125,0,0,0,24.54-9.746,60.6,60.6,0,0,0,22.278-17.4.17.17,0,0,0-.174-.174c-10.791,14.446-28.717,20.537-44.9,26.455a251.9,251.9,0,0,0-26.632,10.96A241.208,241.208,0,0,0,41.3,559.939" transform="translate(-41.3 -515.694)"/></g><g transform="translate(24.366 -461.218)"><rect width="684" height="542" transform="translate(0.02 -0.315)" fill="#e4e4e4"/><rect width="682.254" height="539.538" transform="translate(0.87 0.87)" fill="none" stroke="#000" stroke-width="1"/><path d="M682.754,540.038H.5V.5H35.135V505.4H682.754Z" transform="translate(0.37 0.37)" fill="#ccc"/><path d="M1.74,1.74v537.8H682.254v-32.9H34.635V1.74H1.74M0,0H36.375V504.9h647.62v36.375H0Z"/></g><g transform="translate(445.505 228.682) rotate(6.03)"><path d="M10.8,9.528C7.662,8.483,4.529,7.266,1.57,6.047.352,5.352-.518,1.521.352.651A1.652,1.652,0,0,1,2.615.3h0A5.76,5.76,0,0,0,8.357,1.348C9.4,1,10.1,1.869,10.447,2.392a3.388,3.388,0,0,0,3.828,1.393,2.4,2.4,0,0,1,2.785.87,4.3,4.3,0,0,0,4.178,1.74c1.566-.174,2.088.7,1.219,2.263-2.09,3.655-2.437,3.829-6.613,2.61a4.115,4.115,0,0,0-1.393-.349L10.8,9.528" transform="translate(0 6.484)" fill="#fff"/><path d="M179.867,91.2a4.8,4.8,0,0,1-1.566-.175,69.426,69.426,0,0,1-11.486-2.959c-1.914-.521-3.654-1.219-5.57-1.565L82.752,62.481H82.4c-.348,0-.521-.174-.869-.174A23.639,23.639,0,0,1,74.4,57.782a37.841,37.841,0,0,1-5.4-6.44c-.172-.348-.348-.521-.521-.87h0l-.348-.521C65.348,45.773,61,44.033,56.82,42.118a11.978,11.978,0,0,0-1.393-.521c-6.092-2.611-12.357-5.048-18.449-7.483-5.918-2.263-11.66-4.352-17.055-6.44-1.74-.7-3.654-1.219-5.4-1.915h0c-1.568-.521-3.309-1.044-4.873-1.74a18.233,18.233,0,0,0-2.959-.7,12.623,12.623,0,0,1-3.654-1.044c-.174-.174-.521-.174-.7-.349a2.506,2.506,0,0,1-1.91-1.564A3.225,3.225,0,0,1,1.3,16.186a4.413,4.413,0,0,0,1.391-1.74c-.521-2.089-.7-4.177,1.74-5.569.871-.522.7-1.393.523-2.263A10.281,10.281,0,0,1,4.6,4.177a3.666,3.666,0,0,1,.871-2.262A3.643,3.643,0,0,1,8.088,0a6.3,6.3,0,0,1,2.959,1.219,26.4,26.4,0,0,0,9.4,3.307h0c.869.174,1.74.349,2.438.521,1.74.349,3.48.87,5.221,1.219,2.611.7,5.395,1.393,8.006,1.915,3.48.87,6.961,1.566,10.27,2.437q4.438,1.043,8.875,2.089a6.189,6.189,0,0,0,1.74.348,34.391,34.391,0,0,1,4.525,1.219,23.848,23.848,0,0,0,8.527,1.566,30.522,30.522,0,0,0,8.877-1.392c.172,0,.521-.175.7-.175h.35A85.951,85.951,0,0,1,93.2,11.141c.348,0,.869-.175,1.219-.175a9.091,9.091,0,0,1,3.654.7c2.438.7,4.873,1.566,7.311,2.263,1.914.521,3.828,1.218,5.568,1.74,13.048,3.825,26.448,8,39.331,12.005,8.7,2.61,17.754,5.4,26.629,8.181,3.133,1.044,6.439,1.74,9.572,2.61h0c1.914.521,4,1.044,5.918,1.566a5.075,5.075,0,0,1,2.783,1.914,14.579,14.579,0,0,1,2.264,5.048,15,15,0,0,1,0,5.569c-.174,1.045-.521,2.089-.7,2.959h0c-.174.349-.174.87-.348,1.393-1.045,3.48-2.09,7.136-3.309,10.616v.175a1.761,1.761,0,0,1-.7,1.219l-.869,2.784h0c-.7,2.437-1.568,4.873-2.264,7.137,0,.174,0,.174-.172.348a2.151,2.151,0,0,1-.7,1.393c-.174.7-.348,1.219-.521,1.914a7.786,7.786,0,0,1-1.914,4A10.121,10.121,0,0,1,183,89.635C182.479,90.852,181.26,91.2,179.867,91.2ZM148.713,69.443a1.048,1.048,0,0,1,.7.175c.348.348.7.7.7,1.044h0c0,.174,0,.174.172.349l.7,1.74,1.914,4.525c.174.349.521.521.7.349a.171.171,0,0,0,.174-.175c0-.174.172-.348,0-.348l-1.568-4c-.174-.349-.348-.87-.521-1.219-.348-.87-.7-1.74-1.043-2.437a1.876,1.876,0,0,0-1.914-1.044h-4.176L141.94,64.05l-2.45-3.83c-.174-.175-.174-.349-.348-.522a3.663,3.663,0,0,0-.7-1.044,76.293,76.293,0,0,0,18.8,2.437h.521c1.393,0,2.959-.175,4.352-.175,1.566,0,3.133-.174,4.7-.174h1.566a15.107,15.107,0,0,1,4.873.87,10.577,10.577,0,0,1,4.178,2.611c0,.174.174.174.35.174s.348-.174.521-.349,0-.349-.174-.521C175,60.045,170.471,59.7,166.816,59.7c-1.568,0-3.133.174-4.525.174h-1.043c-1.393,0-2.611.174-4,.174a73.2,73.2,0,0,1-17.4-2.089,70.776,70.776,0,0,1-20.2-8.359c-1.566-.87-2.959-1.915-4.525-2.959a12.269,12.269,0,0,1-1.74-1.392h0c-.869-.7-1.74-1.219-2.609-1.915A11.694,11.694,0,0,0,105.9,41.6h-.35a9.846,9.846,0,0,1-4.873-1.393,7.59,7.59,0,0,1-3.307-4.351c-.174-.349-.174-.87-.348-1.219A3.888,3.888,0,0,0,95.285,31.5a4.444,4.444,0,0,0-4.178,0,11.1,11.1,0,0,0-3.48,3.481,17.22,17.22,0,0,1-5.742-6.962.374.374,0,0,0-.35-.349c-.172,0-.348.174-.521.349a.326.326,0,0,0,0,.521,18.389,18.389,0,0,0,6.439,7.66h.174c.174,0,.35-.175.521-.349v-.175A6.8,6.8,0,0,1,91.63,32.2a3.389,3.389,0,0,1,1.391-.174,2.614,2.614,0,0,1,2.611,1.914c.174.349.174.87.348,1.219a8.575,8.575,0,0,0,1.045,2.959,8.031,8.031,0,0,0,2.959,2.959,9.822,9.822,0,0,0,4.35,1.393,12.78,12.78,0,0,1,5.57,1.566,24.936,24.936,0,0,1,2.611,1.914,9.78,9.78,0,0,1,1.393,1.045,40.517,40.517,0,0,0,4.523,2.959,72.39,72.39,0,0,0,17.23,7.657A11.451,11.451,0,0,0,134.1,59c-.174.174-.348.521-.521.7a6,6,0,0,1-2.09,2.089,1.567,1.567,0,0,1-.869.174,1.325,1.325,0,0,1-.871-.349,3.858,3.858,0,0,1-.521-.87c0-.174-.174-.349-.348-.521a1.166,1.166,0,0,0-1.219-.7c-1.219,0-2.262,1.74-3.133,2.785-.174.174-.348.349-.348.521q-3.135,4.178-6.266,8.877a.326.326,0,0,0,0,.521c.174.174.348.349.521.349s.35-.175.521-.175c2.09-3.307,4.352-6.439,6.613-9.4.174-.174.35-.348.35-.521a8.632,8.632,0,0,1,1.219-1.392.634.634,0,0,1,.521-.175c.348,0,.521.349.7.87a.609.609,0,0,0,.172.349,2.484,2.484,0,0,0,2.09,1.045A1.294,1.294,0,0,0,131.49,63a6.784,6.784,0,0,0,2.959-2.437l.174-.174c.35-.521.871-1.044,1.219-1.566.174-.174.35-.174.7-.349.348,0,.521.175.7.522a3.809,3.809,0,0,0,.521.87h0a.611.611,0,0,0,.174.349l3.133,5.047v.174l1.391,2.263a.611.611,0,0,0,.174.349c.348.521.521,1.044,1.219,1.044H147.5a3.009,3.009,0,0,0,1.213.349Z" transform="translate(28.816)" fill="#39b54a"/></g><g transform="matrix(0.927, -0.375, 0.375, 0.927, 100.349, 1250.849)"><path d="M81.287,28.277a3.4,3.4,0,0,0,.174,1.219c.521,6.787,1.219,13.4,1.914,20.189,1.391,11.139,2.783,22.451,3.652,33.59.871,10.791,1.914,21.756,2.438,32.547.35,7.657-4.178,10.616-9.744,11.139-14.969,1.219-29.762,3.307-44.73,4-5.4.175-10.791,1.045-16.186,1.045a8.13,8.13,0,0,1-9.051-7.483v-.349c-2.262-14.794-4-29.413-5.395-44.207C2.445,60.649,1.227,41.157.182,21.838A31.579,31.579,0,0,1,.53,12.787,8.36,8.36,0,0,1,6.8,5.651a40.425,40.425,0,0,1,8-1.391C31.855,3.389,48.912,1.3,65.969.082c3.654-.174,7.311-.348,10.1,2.611,2.438,2.61,2.959,5.743,3.307,9.051.7,5.4,1.395,10.964,1.916,16.533" fill="#fef2e9" stroke="#000" stroke-width="0.5"/><path d="M16.609,0a5.743,5.743,0,0,1,4.7,3.133,10.017,10.017,0,0,1-.869,8.354c-2.09,3.829-4.178,7.658-6.613,11.313-.871,1.219-1.393,1.393-2.437.349A58.942,58.942,0,0,1,1.467,12.184,7.642,7.642,0,0,1,.424,5.222,4.365,4.365,0,0,1,5.818,2.089,4.18,4.18,0,0,1,7.906,3.308c.174.174.523.521.7.7C9.3,4.7,9.648,5.4,10.518,5.4c.871-.174.871-.349,1.566-1.74C12.953,1.566,15.564.87,16.609,0" transform="translate(33.872 54.036)" fill="#e89576" stroke="#000" stroke-width="0.5"/><path d="M6.447,0A2.134,2.134,0,0,1,8.361,1.219a4.415,4.415,0,0,1-.348,3.307A36.28,36.28,0,0,1,5.4,8.876c-.348.522-.521.522-1.043.175A22.922,22.922,0,0,1,.529,4.7,3.129,3.129,0,0,1,.182,1.914,1.653,1.653,0,0,1,2.27.7c.35,0,.521.175.871.522.174,0,.174.174.348.174.35.349.35.521.7.521s.348-.174.521-.7C5.057.521,5.926.348,6.447,0" transform="translate(7.137 10.525)" fill="#e89576" stroke="#000" stroke-width="0.5"/><path d="M2.1,9.293A2.138,2.138,0,0,1,.182,8.074,4.423,4.423,0,0,1,.529,4.768,36.293,36.293,0,0,1,3.141.416c.35-.521.521-.521,1.043-.174a22.946,22.946,0,0,1,3.83,4.351,3.129,3.129,0,0,1,.348,2.785A1.651,1.651,0,0,1,6.273,8.6c-.348,0-.521-.174-.871-.521-.172,0-.172-.175-.348-.175-.348-.349-.348-.521-.7-.521s-.348.174-.521.7A6.276,6.276,0,0,1,2.1,9.293" transform="translate(74.319 112.272)" fill="#e89576" stroke="#000" stroke-width="0.5"/></g><path d="M327.829,604.8a593.943,593.943,0,0,1-51.343,105.819C242.547,766.139,191.9,826.532,191.9,826.532" transform="translate(142.091 447.821)" fill="none" stroke="#fff" stroke-linecap="round" stroke-width="1"/><path d="M62.8,179.7v.7c0,.348-.174.7-.174,1.044s-.174.7-.174,1.044a1.892,1.892,0,0,1-.174.87c-.174.348-.174.87-.348,1.392l-.348,1.566a1.046,1.046,0,0,1-.174.7c-.174.348-.174.87-.348,1.218-.174.522-.348.87-.522,1.392-.174.348-.174.7-.348.87a3.475,3.475,0,0,1-1.74,1.392,6.505,6.505,0,0,1-2.263-2.611l-.7-1.392c-.348-.7-.7-1.566-1.218-2.611l-1.044,2.611-1.044,2.089a6.107,6.107,0,0,1-.87,1.392.957.957,0,0,1-.87.522,4.614,4.614,0,0,1-1.044-.87l-1.044-1.044c-.174-.174-.174-.348-.348-.7l-.522-1.044-.522-1.044c-.174-.348-.348-.522-.348-.7s-.174-.348-.348-.7a2.474,2.474,0,0,1-.348-1.044c-.174-.348-.174-.7-.348-1.044,0-.174-.174-.522-.174-.7a1.046,1.046,0,0,1,.174-.7.9.9,0,0,1,.7-.348,1.657,1.657,0,0,1,1.218.348l.522,1.392a6.182,6.182,0,0,0,.7,1.566A16.377,16.377,0,0,0,50.8,189.1a.639.639,0,0,0,.174-.522c.174-.174.174-.522.348-.87s.174-.522.348-.87c0-.174.174-.348.174-.522a3.5,3.5,0,0,0,.7-1.392l.348-1.218a3.773,3.773,0,0,1,1.74-1.915c.174.174.174.174.174.348.174.174.174.522.348.7a1.32,1.32,0,0,1,.348.7.374.374,0,0,0,.348.348,10.646,10.646,0,0,1,.87,2.089l1.566,3.133c.174-.522.348-.87.522-1.392a2.208,2.208,0,0,0,.174-1.044c0-.348.174-.7.174-1.044a5.081,5.081,0,0,1,.348-1.566,7.83,7.83,0,0,0,.348-1.392c0-.348.174-.522.174-.7a1.892,1.892,0,0,1,.174-.87,11.1,11.1,0,0,0,.348-1.566,1.156,1.156,0,0,1,.87-.7C62.108,178.66,62.456,179.008,62.8,179.7Zm12.009,9.4a8.865,8.865,0,0,1-2.959,1.218l-1.392-.174c-.348-.174-.7-.174-.87-.348a3.79,3.79,0,0,1-1.392-.87,6.815,6.815,0,0,1-1.392-1.74,4,4,0,0,1-.7-2.437,2.771,2.771,0,0,1,.522-2.263,11.984,11.984,0,0,1,1.914-2.263,5.97,5.97,0,0,1,5.4.7,7.667,7.667,0,0,1,1.914,4.351,15.693,15.693,0,0,1-1.041,3.826Zm-3.655-7.31a2.208,2.208,0,0,0-1.044-.174.9.9,0,0,0-.7.348,1.359,1.359,0,0,0-.7.7l-.522,1.044a1.922,1.922,0,0,0,0,1.392,3.728,3.728,0,0,0,2.088,2.958,3.393,3.393,0,0,0,1.392.174,2.807,2.807,0,0,0,1.566-.522,3.02,3.02,0,0,0,.522-2.437c-.509-1.914-1.2-3.132-2.6-3.48Zm16.012-4a.957.957,0,0,1,.522.87c0,.87-.174,1.218-.87,1.218a1.3,1.3,0,0,1-.87-.174,1.569,1.569,0,0,0-.87-.174,1.329,1.329,0,0,0-.87.348,2.1,2.1,0,0,0-.87.87L82.3,181.967v.7a2.208,2.208,0,0,0,.174,1.044c.174.348,0,.87,0,1.218A28.63,28.63,0,0,1,83,188.062c0,.7-.348,1.218-1.044,1.218a1.569,1.569,0,0,1-.87-.174,1.32,1.32,0,0,1-.348-.7,2.208,2.208,0,0,1-.174-1.044c0-.348-.174-.87-.174-1.218V185.8l-.174-1.044-.348-2.263v-1.044l-.522-1.566a1.046,1.046,0,0,1,.174-.7,1.329,1.329,0,0,1,.87-.348,1.046,1.046,0,0,1,.7.174l.7.7L83,178.665a3.055,3.055,0,0,1,.87-.7,1.569,1.569,0,0,1,.87-.174h2.437Zm13.924,6.962v.348c0,.7-.174,1.044-.87,1.218a.9.9,0,0,1-.7-.348l-.87-.87a8.04,8.04,0,0,0-1.218-1.218c-.522-.522-1.044-.87-1.566-1.392a6.515,6.515,0,0,1-1.74-1.044l-.7.522V185.1a6.154,6.154,0,0,1,.174,1.044,16.78,16.78,0,0,0,.348,2.089c0,.522-.348.7-1.044.87a.954.954,0,0,1-1.044-.7,10.186,10.186,0,0,1-.348-2.263,10.707,10.707,0,0,1-.174-2.263,5.366,5.366,0,0,0-.174-1.74l-.174-.87v-5.918c0-.7.174-1.392.174-2.089a6.184,6.184,0,0,1,.348-1.74c0-.174.348-.348.7-.348.7,0,1.044.174,1.044.7v.87c0,.348-.174.87-.174,1.218,0,.7-.174,1.392-.174,1.915v4.7c.174-.174.522-.348.7-.7l.87-.87c.348-.348.87-.7,1.392-1.218a13.286,13.286,0,0,1,1.914-1.392h.174a1.046,1.046,0,0,1,.7.174.9.9,0,0,1,.348.7v.348c-.174.174-.174.348-.348.348a3.8,3.8,0,0,1-.87.522A5.7,5.7,0,0,0,96.4,179.53a.17.17,0,0,1-.174.174c-.174.174-.348.348-.522.348-.174.174-.348.174-.522.348l-.174.174c.174,0,.348.174.522.174.174.174.348.174.522.348l1.044.87c.348.348,1.044.87,1.914,1.566a3.8,3.8,0,0,1,.7.87c.87-.522,1.218-.174,1.392.348Zm32.372-12.531v.7c0,.348-.174.7-.174,1.044s-.174.7-.174,1.044a1.892,1.892,0,0,1-.174.87c-.174.348-.174.87-.348,1.392l-.348,1.566a1.046,1.046,0,0,1-.174.7c-.174.348-.174.87-.348,1.218a12,12,0,0,0-.522,1.392c-.174.348-.174.7-.348.87a3.475,3.475,0,0,1-1.74,1.392,6.505,6.505,0,0,1-2.263-2.611l-.7-1.392c-.348-.7-.7-1.566-1.218-2.611l-1.044,2.611-1.044,2.089a6.1,6.1,0,0,1-.87,1.392.957.957,0,0,1-.87.522,4.613,4.613,0,0,1-1.044-.87l-1.044-1.218c-.174-.174-.174-.348-.348-.7l-.522-1.044-.522-1.044c-.174-.348-.348-.522-.348-.7s-.174-.348-.348-.7a2.474,2.474,0,0,1-.348-1.044,2.474,2.474,0,0,0-.348-1.044c0-.174-.174-.522-.174-.7-.174-.522.174-.87.7-1.044h.174a1.657,1.657,0,0,1,1.218.348l.522,1.392a6.181,6.181,0,0,0,.7,1.566,13.508,13.508,0,0,0,2.089,3.829.639.639,0,0,0,.174-.522c.174-.174.174-.522.348-.87s.174-.522.348-.87c0-.174.174-.348.174-.522a3.5,3.5,0,0,0,.7-1.392l.348-1.218a3.773,3.773,0,0,1,1.74-1.914c.174.174.174.174.174.348.174.174.174.522.348.7a1.319,1.319,0,0,1,.348.7.374.374,0,0,0,.348.348,10.647,10.647,0,0,1,.87,2.089l1.566,3.133c.174-.522.348-.87.522-1.392a2.208,2.208,0,0,0,.174-1.044c0-.348.174-.7.174-1.044a5.082,5.082,0,0,1,.348-1.566,7.83,7.83,0,0,0,.348-1.392c0-.348.174-.522.174-.7a1.892,1.892,0,0,1,.174-.87,11.094,11.094,0,0,0,.348-1.566,2.1,2.1,0,0,1,.87-.87,1.686,1.686,0,0,1,1.388,1.219Zm6.788-3.481v.87c0,.174-.174.348-.348.522s-.348.174-.522.348c-.174,0-.348.174-.7.174a3.056,3.056,0,0,1-.87-.7,1.32,1.32,0,0,1-.348-.7,1.046,1.046,0,0,1,.174-.7c.174-.174.174-.522.348-.7h1.392c.522-.174.87.348.87.87Zm-.7,4.525h0v6.614a1.046,1.046,0,0,0,.174.7,1.892,1.892,0,0,0,.174.87c-.174.7-.348.87-.87,1.044-.348,0-.87-.174-.87-.522a5.149,5.149,0,0,1-.348-1.74c0-.7-.174-1.392-.174-1.915v-1.74a4.818,4.818,0,0,1,.174-1.566c.174-.522,0-1.044.174-1.392a.957.957,0,0,1,.87-.522c.174-.174.522,0,.7.174Zm13.227-3.133a.9.9,0,0,1,.348.7c0,.7-.174.87-.7,1.044h-.174l-.522.174-1.044.174c-.348,0-.7.174-1.044.174-.174,0-.348.174-.522.174v4.177a7.209,7.209,0,0,1,.174,1.74c0,.348.174.522.348.87.174.174.348.348.522.348a3.609,3.609,0,0,1,1.044.348c.522.174.87.348.87.87a1.046,1.046,0,0,1-.174.7,1.319,1.319,0,0,1-.7.348h-.7c-.348,0-.522-.174-.87-.174s-.522-.174-.87-.348c-.174-.174-.348-.174-.522-.522a6.183,6.183,0,0,1-.7-1.566,5.082,5.082,0,0,1-.348-1.566,9.811,9.811,0,0,0-.174-1.218v-3.655a12.821,12.821,0,0,0-2.437.7,1.3,1.3,0,0,1-.87-.174,2.4,2.4,0,0,1-.522-.7v-.35c0-.174.174-.348.348-.522a.9.9,0,0,1,.7-.348,2.208,2.208,0,0,1,1.044-.174h.174a2.807,2.807,0,0,0,1.566-.522v-2.959a2.962,2.962,0,0,1,.174-1.218,4.429,4.429,0,0,1,.348-1.218c.174-.348.348-.522.7-.522.522-.174.87.174,1.044.7V167a1.3,1.3,0,0,1-.174.87v2.785a4.891,4.891,0,0,0,.87-.174h.87a.639.639,0,0,0,.522-.174h.522c.174-.348.522-.348.87-.174Zm14.446,8.876a1.231,1.231,0,0,1-1.044,1.044,1.046,1.046,0,0,1-.7-.174,1.329,1.329,0,0,1-.348-.87,2.581,2.581,0,0,1-.174-1.218c0-.348-.174-.87-.174-1.218a1.3,1.3,0,0,1-.174-.87v-1.044a6.185,6.185,0,0,0-.348-1.74l-.522-1.044a.9.9,0,0,0-.7-.348h-.7a2.474,2.474,0,0,0-1.044.348l-1.044.522a1.359,1.359,0,0,0-.7.7c-.174.174-.348.348-.348.522v2.437a5.921,5.921,0,0,0,.174,1.74c0,.7.174,1.392.174,1.914a.8.8,0,0,1-.87.7c-.348.174-.7,0-1.044-.348a5.149,5.149,0,0,1-.348-1.74v-5.4a1.3,1.3,0,0,0-.174-.87V164.04a3.227,3.227,0,0,1,.348-1.218.957.957,0,0,1,.87-.522c.522,0,.87.174,1.044.87v7.484a.17.17,0,0,0,.174-.174c.174-.174.348-.174.522-.348l.522-.522c.174-.174.348-.174.7-.348.522-.174,1.044-.174,1.392-.348a3.02,3.02,0,0,1,2.437.522,5.046,5.046,0,0,1,1.566,2.611c0,.522.174.87.174,1.218s.174.7.174,1.044a5.38,5.38,0,0,0,.348,1.392,5.515,5.515,0,0,0-.155,3.307Zm35.331-4.351c0,.348-.174.7-.87.7-.348,0-.522,0-.7-.348a2.473,2.473,0,0,1-.348-1.044,3.832,3.832,0,0,1-.174-1.392c0-.522-.174-1.044-.174-1.392a9.237,9.237,0,0,1-.522-1.915,4.614,4.614,0,0,0-1.044-.87,1.849,1.849,0,0,0-1.392-.174.639.639,0,0,0-.522.174c-.174,0-.522.174-.7.174-.174.174-.522.174-.7.348s-.348.174-.522.348a5.847,5.847,0,0,0-.87,2.437.639.639,0,0,0,.174.522v3.655a7.548,7.548,0,0,1-.174.87c-.174.348-.348.522-.7.522-.7,0-1.044-.174-1.044-.7v-3.307c0-.348-.174-.7-.174-1.218v-.522c0-.348-.174-.7-.174-1.218-.174-.348-.174-.7-.348-1.044a2.092,2.092,0,0,0-1.392-1.392H189.14a2.1,2.1,0,0,0-1.218,1.218l-.522,1.566v3.307a6.184,6.184,0,0,1,.348,1.74v1.044c0,.348-.348.348-.87.522h-.522a.374.374,0,0,1-.348-.348c-.174-.348-.174-.7-.348-1.044-.174-.522-.174-1.218-.348-2.089a8.387,8.387,0,0,1,0-2.089,15.028,15.028,0,0,1,.174-2.611,7.273,7.273,0,0,0-.7-1.74c0-.348,0-.522.174-.7a1.319,1.319,0,0,1,.7-.348,1.046,1.046,0,0,1,.7.174c.348.348.522.7.87,1.044a5.91,5.91,0,0,1,1.044-1.044c.348-.174.522-.348.87-.522h1.392c.174,0,.348.174.522.174a3.8,3.8,0,0,0,.87.522,5.51,5.51,0,0,1,1.392,2.089c.174-.174.348-.348.348-.522.174-.348.522-.522.7-.7a2.8,2.8,0,0,1,1.218-.7,5.082,5.082,0,0,1,1.566-.348h1.74a2.516,2.516,0,0,1,1.218.348,4.616,4.616,0,0,1,1.044.87,5.289,5.289,0,0,1,.87,1.218v.174a1.892,1.892,0,0,0,.174.87c.174.522.174.87.348,1.392a3.4,3.4,0,0,1,.174,1.218c0,.174,0,.348.174.348v1.4Zm15.316-1.218a20.86,20.86,0,0,1-2.089,1.914,6.867,6.867,0,0,1-2.611,1.044,15.932,15.932,0,0,1-2.785-.174,3.122,3.122,0,0,1-1.218-.87,4.066,4.066,0,0,1-1.218-1.218c-.348-.522-.7-.87-1.044-1.392a2.94,2.94,0,0,1-.522-1.74h0v-2.611l1.044-2.089a9.123,9.123,0,0,1,1.74-1.915,8.2,8.2,0,0,1,2.959-.7H213a1.046,1.046,0,0,1,.7.174c.174.174.522.174.7.348s.522.348.87.7c.174.174.522.348.522.522.174.174.174.174.348.174a.17.17,0,0,1,.174.174v1.92a2.8,2.8,0,0,1-.7,1.218,7.054,7.054,0,0,1-1.566.87,15.871,15.871,0,0,1-2.785,1.044h-.174a6.171,6.171,0,0,0-1.915.522c1.044,2.089,2.263,3.133,3.829,2.959a7,7,0,0,0,3.655-2.089.639.639,0,0,1,.522-.174.845.845,0,0,1,1.044.522v.174c-.172.345-.346.519-.346.693Zm-3.655-6.614a2.691,2.691,0,0,0-2.089-1.218c-.348,0-.7.174-1.044.174l-1.044.522a3.056,3.056,0,0,0-.87.7l-.7.7c0,.174-.174.522-.174.7,0,.348-.174.7-.174,1.218a6.184,6.184,0,0,1,1.74-.348,7.847,7.847,0,0,0,1.915-.522,3.5,3.5,0,0,0,1.392-.7c.87-.348,1.044-.7,1.044-1.218Z" transform="translate(33.616 120.174)" fill="#4d45ba"/><g transform="translate(479.603 132.305)"><path d="M-25.658,1.2c-2.089.522-4.525,1.218-6.614,1.914a6.821,6.821,0,0,0-1.566.7.8.8,0,0,0-.87.522c-.522.7,0,1.218.522,1.566.87.174,1.914.7,2.785.87,1.218.522,2.611.87,3.829,1.392A6.519,6.519,0,0,1-25.484,9.38c.174.174.7.522.87.7.522.174.7.7.87,1.218a5.943,5.943,0,0,1,1.218,4.177,3.071,3.071,0,0,1-2.089,2.263,10.028,10.028,0,0,1-8.006-.87c-.174-.174-.522-.522-.7-.522a.5.5,0,0,0-.506-.189.5.5,0,0,0-.382.382.5.5,0,0,0,.189.506,9.574,9.574,0,0,0,8.354,1.914,5.932,5.932,0,0,0,3.307-1.914,4.24,4.24,0,0,0,.7-3.829,5.731,5.731,0,0,0-1.218-2.263c-.174-.522-.7-.87-.87-1.392l-.87-.87L-28.79,6.6a27.626,27.626,0,0,0-3.481-1.218c-.174,0-.522-.174-.7-.174h-.174l-.174-.174c-.174,0-.174-.174-.522-.174h0l.174-.174h.174a.17.17,0,0,0,.124-.05.17.17,0,0,0,.05-.124c.174,0,.522-.174.7-.174a31.531,31.531,0,0,1,5.4-1.566A9.179,9.179,0,0,1-25.13,2.25c.174-.348,0-1.044-.522-1.044Z" transform="translate(34.924 0.889)" fill="#f57474"/><path d="M-23.563,6.025c-.7.87-1.392,1.914-2.089,2.959A5.924,5.924,0,0,0-26,11.42c.174,1.218,1.566,1.392,2.785,1.392a6.468,6.468,0,0,0,3.829-1.392,2.315,2.315,0,0,0,1.392-2.959c-.174-.174-.522-.7-.7-.87l-1.218-1.218c-.7-.7-2.089-2.089-3.307-1.392-.174.174-.7.522-.7.7-.174.174,0,.522.174.7s.522,0,.7-.174c-.174-.174,0-.174,0-.522h.87c.174,0,.174.174.522.174.174.174.522.522.7.522L-19.735,7.6c.174.7.174.7.522.87h0a.17.17,0,0,0,.05.124.17.17,0,0,0,.124.05V8.81h0v.174h0v.174h0v.174h0V9.68c0,.174-.174.174,0,0-.522.174-.522.522-.7.7h0l-.174.174c-.174,0-.174.174-.522.174-.174,0-.174,0-.522.174h-.174a7.538,7.538,0,0,1-.87.174h-2.437a.17.17,0,0,1-.124-.05.17.17,0,0,1-.05-.124h0v-.174h0V10.55h0v-.174c0-.174,0-.174.174-.522V9.506h0c0-.174.174-.522.174-.7a6.106,6.106,0,0,1,.87-1.392.933.933,0,0,1,.522-.7.529.529,0,0,0,0-.7Z" transform="translate(41.532 3.547)" fill="#f57474"/><path d="M-21.1,5.937a33.21,33.21,0,0,1,2.785,5.569l.7-.522A4.965,4.965,0,0,1-16.053,4.37a.529.529,0,0,0,0-.7c.174-.174,0-.174-.174-.174a5.9,5.9,0,0,0-2.089,7.658c.522.7,1.218.174.87-.522A39.476,39.476,0,0,0-20.4,5.24a.529.529,0,0,0-.7,0c0,.174,0,.348,0,.7Z" transform="translate(45.16 2.592)" fill="#f57474"/><path d="M-16.6,4.092l1.392,5.221c.174.522.87.522.87,0a24.025,24.025,0,0,1,.522-3.481,1.8,1.8,0,0,1,.7-1.392c.174-.522.87-.7,1.392-.87s.174-.87-.174-.87a3.833,3.833,0,0,0-2.611,2.785,12.513,12.513,0,0,0-.7,3.829h.87L-15.556,3.57c-.174,0-.522-.174-.7,0-.348,0-.348.348-.348.522Z" transform="translate(48.492 1.999)" fill="#f57474"/><path d="M-11.86,3.375c2.611,2.089,2.611,6.614,6.092,7.658a.556.556,0,0,0,.522-.522c0-.174,0-.174-.174-.522C-7.16,9.64-7.857,8.074-8.553,6.856a10.582,10.582,0,0,0-2.611-4.177c-.348-.522-1.044.174-.7.7Z" transform="translate(51.932 1.846)" fill="#f57474"/><path d="M-.413,2.748A110.4,110.4,0,0,1-10.507,21.023c-1.218,1.566-2.263,3.307-3.481,4.7-.174.7.522,1.218.87.7A100.275,100.275,0,0,0-2.153,8.318C-1.283,6.4-.587,4.837.109,2.922c0-.174,0-.522-.174-.522S-.413,2.4-.413,2.748Z" transform="translate(50.406 1.777)" fill="#f57474"/><path d="M-1.437,7.834a10.54,10.54,0,0,1-2.785,4.873c-.522.522.174.87.7.7a9.259,9.259,0,0,0,2.959-5.4A.446.446,0,0,0-.92,7.528a.446.446,0,0,0-.513.305Z" transform="translate(57.521 5.567)" fill="#f57474"/><path d="M6.4.522c.174,5.221,2.089,10.1,1.566,15.142a.438.438,0,0,0,.87,0C9.359,10.443,7.444,5.569,7.27.522,7.444-.174,6.4-.174,6.4.522Z" transform="translate(65.523)" fill="#f57474"/><path d="M6.022,7.67a19.161,19.161,0,0,0,6.962-.87c.522-.174.174-1.218-.174-.87a17.731,17.731,0,0,1-6.788.7.522.522,0,1,0,0,1.044Z" transform="translate(64.856 4.339)" fill="#f57474"/><path d="M10.1,1.752c2.263,4,2.785,8.354,4.525,12.7a32.33,32.33,0,0,0,1.914,3.307c.174.522.87.174.87-.522a12.385,12.385,0,0,1-.87-3.829,5.011,5.011,0,0,1,.174-2.263.556.556,0,0,1,.522-.522c.174,0,.174-.174.522-.174a3.365,3.365,0,0,1,1.566.87A9.274,9.274,0,0,1,21.586,14.8c.174.522,1.218,0,.7-.522A8.768,8.768,0,0,0,19.672,10.8a4.048,4.048,0,0,0-2.088-1.39C15.67,9.236,15.5,11.324,15.5,12.717a24.538,24.538,0,0,0,.87,4.7l.87-.522c-2.785-3.481-3.307-8.18-4.7-12.357a30.625,30.625,0,0,0-1.57-3.482.529.529,0,0,0-.7,0c-.174.174-.174.348-.174.7Z" transform="translate(68.262 0.685)" fill="#f57474"/><path d="M19.988,9.028a4.431,4.431,0,0,0,2.785-2.785A1.635,1.635,0,0,0,22.6,4.677,1.126,1.126,0,0,0,21.033,4.5a3.464,3.464,0,0,0-2.089,1.4,5.129,5.129,0,0,0-.87,2.263A3.639,3.639,0,0,0,19.64,12.34c.348.174.87.522,1.218.174a6.106,6.106,0,0,0,1.392-.87c1.044-.7,1.914-1.218,2.785-1.74a.446.446,0,0,0-.174-.87,3.464,3.464,0,0,0-2.089,1.392,1.43,1.43,0,0,0-.87.87,2.318,2.318,0,0,1-.87.522h-.174a2.22,2.22,0,0,1-1.218-.87,8.194,8.194,0,0,1-.522-1.566A4.86,4.86,0,0,1,20.51,5.9a2.318,2.318,0,0,1,.87-.522h.348V5.9a2.773,2.773,0,0,1-2.263,2.263c-.348.174-.174.87.522.87Z" transform="translate(74.038 3.155)" fill="#f57474"/><path d="M33.612,4.948,36.4,11.735c0,.174.522.522.7.174a.17.17,0,0,0,.174-.174c.522-1.566,1.218-2.959,1.914-4.525.348-.174.348-.348.522-.522l.174-.174h.7a.933.933,0,0,1,.7.522,12.848,12.848,0,0,1,2.089,2.785,1.046,1.046,0,0,0,.7.174l.348-.348A26.777,26.777,0,0,1,45.795,6.34a12.626,12.626,0,0,1,.87-1.566h0l.174.174.174.174c1.218,1.566,1.392,3.829,2.611,5.4a1.661,1.661,0,0,0,2.089.522c.174,0,.174-.174.522-.522,0-.7-.522-1.392-.87-.87,0,.174-.174.174-.522.174h0a.17.17,0,0,1-.174-.174h0a10.318,10.318,0,0,1-1.219-2.79c-.522-1.218-1.566-4.7-3.481-2.959-.522.522-.87,1.218-1.218,1.566A14.547,14.547,0,0,0,43.359,8.95h.87A14.527,14.527,0,0,0,42.14,6.166a1.89,1.89,0,0,0-1.566-.7c-1.392,0-2.089,1.914-2.263,2.959s-1.566,2.089-2.089,2.959h.87c-.87-2.263-1.914-4.525-2.785-6.788-.174-.522-.87-.348-.7.348Z" transform="translate(85.651 2.536)" fill="#f57474"/><path d="M45.348,6.557c.87,1.566,2.959.87,4,0a5.441,5.441,0,0,0,1.566-1.914c.174-.7.174-1.566-.522-1.914a3.869,3.869,0,0,0-2.785.522,8.518,8.518,0,0,0-2.089,2.263C45.348,6.035,45,6.383,45,6.9v.7a.8.8,0,0,0,.522.87,5.378,5.378,0,0,0,2.089,2.611c2.263,1.392,4.7-.522,6.266-2.089a.5.5,0,1,0-.7-.7c-.87,1.218-2.785,2.785-4.525,2.263A3.65,3.65,0,0,1,46.74,9.167a1.165,1.165,0,0,1-.7-1.218c0-.174-.174-.522-.174-.7V6.731A5.006,5.006,0,0,1,49.351,3.25h.87v.174h0V3.6a6.106,6.106,0,0,1-.87,1.392,2.8,2.8,0,0,1-1.914.87,1.1,1.1,0,0,1-1.392-.522.529.529,0,0,0-.7,0V6.557Z" transform="translate(94.104 1.971)" fill="#f57474"/><path d="M51.068,3.37a12.088,12.088,0,0,1,2.611,6.092c0,.522.87.522.87-.174a7.753,7.753,0,0,1,.522-4c.174-.522.174-.7.522-.87.174-.174.522-.174.7-.522h.7a1.59,1.59,0,0,1,.87.522A8.182,8.182,0,0,1,59.423,6.5a10.324,10.324,0,0,1,.87,4,.556.556,0,0,0,.522.522.17.17,0,0,0,.174-.174,5.519,5.519,0,0,1,.87-1.044c.522-.522-.174-.87-.7-.7-.174.522-.522.7-.7.7l.7.174A8.559,8.559,0,0,0,58.378,3.37a2.882,2.882,0,0,0-2.263-.87A2.31,2.31,0,0,0,54.2,3.892a13.7,13.7,0,0,0-.522,5.221l.87-.174a15.479,15.479,0,0,0-2.611-6.266c-.522-.348-1.392.174-.87.7Z" transform="translate(98.478 1.851)" fill="#f57474"/><path d="M58.4,3.608a25.169,25.169,0,0,0,1.566,3.829A10.927,10.927,0,0,0,61.88,9.526a1.588,1.588,0,0,0,2.089,0,2.654,2.654,0,0,0,1.218-2.089,21.2,21.2,0,0,0,0-4.7c0-.174-.174-.522-.522-.174-.174,0-.522.174-.174.522a25.742,25.742,0,0,1,.174,3.829,1.046,1.046,0,0,1-.174.7c0,.174,0,.522-.174.522a.933.933,0,0,1-.522.7h-.522A4.492,4.492,0,0,1,61.707,7.27,9.386,9.386,0,0,1,60.14,3.434a1.046,1.046,0,0,0-.7-.174c-.87-.174-1.044.174-1.044.348Z" transform="translate(104.026 1.788)" fill="#f57474"/><path d="M6.435,16.982A30.26,30.26,0,0,1,8.349,23.77a.438.438,0,0,0,.87,0A18.51,18.51,0,0,0,7.13,16.46c-.174-.348-1.044,0-.7.522Z" transform="translate(65.488 12.084)" fill="#f57474"/><path d="M5.822,15.544a.556.556,0,0,0,.522-.522c0-.174-.174-.174-.522-.522a.556.556,0,0,0-.522.522C5.648,15.544,5.822,15.544,5.822,15.544Z" transform="translate(64.708 10.736)" fill="#f57474"/><path d="M12.212,15.3a4.79,4.79,0,0,0-3.481,2.611c-.174.174,0,.522.174.7a4.2,4.2,0,0,0,2.611.7,1.314,1.314,0,0,1,1.218.7,3.079,3.079,0,0,0,1.392.87,1.949,1.949,0,0,1,1.218,1.392v.174l-.174.174a1.046,1.046,0,0,1-.7.174,8.492,8.492,0,0,1-2.959-.174.446.446,0,0,0-.174.87,21.063,21.063,0,0,0,3.307.174,3.863,3.863,0,0,0,1.914-.87,1.964,1.964,0,0,0-.522-1.914l-1.218-1.218c-.174-.174-.522-.522-.7-.522-.174-.174-.522-.522-.7-.522a8.194,8.194,0,0,0-1.566-.522,2.43,2.43,0,0,1-1.566-.522l.174.7a3.213,3.213,0,0,1,2.611-2.089.556.556,0,0,0,.522-.522C12.56,15.3,12.56,15.3,12.212,15.3Z" transform="translate(67.195 11.329)" fill="#f57474"/><path d="M23.53,15.9a2.726,2.726,0,0,0-2.785-.522,4.338,4.338,0,0,0-1.914,2.611A2.327,2.327,0,0,0,19,19.551c.174.522.7.7,1.218.87a3.029,3.029,0,0,0,2.611-.87,2.415,2.415,0,0,0,.7-2.959,1.046,1.046,0,0,0-.7-.174.762.762,0,0,0-.174.522,15.8,15.8,0,0,0,.522,4c0,.174.174.522.7.174h.174l.174-.174a.495.495,0,1,0-.7-.7l-.174.174.7.174a33.4,33.4,0,0,1-.522-3.829l-.87.348v.174h0v.174h0v.174h0V17.8a.17.17,0,0,1-.174.174h0l-.522.522h0a.17.17,0,0,0-.174.174H20.223V18.5h0v-.174h0V17.8a.17.17,0,0,1,.174-.174c.174-.174.522-.7.7-.87h.174a.17.17,0,0,0,.174-.174h.7a.556.556,0,0,1,.522.522.529.529,0,0,0,.7,0c.348-.7.348-1.044.174-1.218Z" transform="translate(74.673 11.255)" fill="#f57474"/><path d="M23.8,11.948c1.218,4,.174,8.18.7,12.183,0,.522.87.174.87-.174-.7-4,.174-8.18-.7-12.183a1.046,1.046,0,0,0-.7-.174c-.174,0-.174.174-.174.348Z" transform="translate(78.406 8.589)" fill="#f57474"/><path d="M23.189,18.014a5.01,5.01,0,0,0,2.263-.174,3.345,3.345,0,0,1,2.089-.7.556.556,0,0,0,.522-.522c-.174-.522-.522-.522-.522-.522a3.828,3.828,0,0,0-2.263.7,2.4,2.4,0,0,1-1.914.174c-.7,0-.87.87-.174,1.044Z" transform="translate(77.625 11.921)" fill="#f57474"/><path d="M31.6,11.522A106.458,106.458,0,0,1,30.9,24.4a.438.438,0,0,0,.87,0,79.9,79.9,0,0,0,.7-12.879A.556.556,0,0,0,31.944,11C31.944,11.348,31.6,11.348,31.6,11.522Z" transform="translate(83.663 8.145)" fill="#f57474"/><path d="M30.322,17.289c2.263.174,4.177-1.392,6.614-1.218a.438.438,0,0,0,0-.87,7.063,7.063,0,0,0-3.307.7,6.626,6.626,0,0,1-3.307.7.556.556,0,0,0-.522.522c.174,0,.348.174.522.174Z" transform="translate(82.849 11.255)" fill="#f57474"/><path d="M35.03,12.077c1.914,4.873-.522,10.269.522,15.49,0,.174.522.522.7.174a.17.17,0,0,0,.174-.174,32.452,32.452,0,0,0,.522-4.525,8.474,8.474,0,0,1,.174-2.089c0-.174,0-.174.174-.522.174,0,.174-.174.522-.174,1.218-.174,1.914,1.914,2.089,2.785a9.924,9.924,0,0,1,.174,2.263.438.438,0,0,0,.87,0,9.2,9.2,0,0,0-.174-2.263,22.869,22.869,0,0,0-.87-2.611,2.636,2.636,0,0,0-1.914-1.218c-.522,0-.7.174-1.218.522-.174.174-.522.174-.522.7s-.174.7-.174,1.218a28.806,28.806,0,0,1-.522,5.569h.87C35.552,22,37.815,16.95,35.9,11.729c-.174-.522-1.218-.348-.87.348Z" transform="translate(86.669 8.46)" fill="#f57474"/><path d="M40.289,20.106a3.39,3.39,0,0,0,3.481-2.785h0a2,2,0,0,0-.7-2.089,1.64,1.64,0,0,0-2.263-.174,4.006,4.006,0,0,0-.522,3.481A3.143,3.143,0,0,0,42.9,21.324a4.532,4.532,0,0,0,2.611-.7,15.883,15.883,0,0,0,3.307-3.481c.174-.522-.522-.87-.7-.522a9.294,9.294,0,0,1-2.263,2.785,3.863,3.863,0,0,1-1.914.87c-.522,0-.87,0-1.218-.522-.522-.174-.7-.7-.87-1.218a3.533,3.533,0,0,1-.174-2.959h0V15.4c0-.174,0,0,.174-.174h0a.932.932,0,0,1,.87.87c.174,1.218-.87,2.959-2.263,2.785-.7.174-.87,1.218-.174,1.218Z" transform="translate(90.287 10.874)" fill="#f57474"/><path d="M19.91,23.866a57.558,57.558,0,0,1,3.307,15.142.446.446,0,0,0,.87.174,22.842,22.842,0,0,0-.522-4.7c0-.522,0-1.218.522-1.566a3.4,3.4,0,0,1,1.218-.174,7.139,7.139,0,0,1,1.914.174,4.532,4.532,0,0,1,2.611.7.933.933,0,0,1,.7.522.17.17,0,0,1,.174.174l.174.174v.348h0v.174h0v.174c-.174.522-.7.7-.87,1.218a16.6,16.6,0,0,1-5.918,2.611,1.046,1.046,0,0,0-.174.7c0,.174.174.174.522.174l1.914-.522c.522,0,.174-.87-.174-.87l-1.914.522.174.87a34.617,34.617,0,0,0,5.918-2.263c.87-.7,2.089-1.566,1.566-2.785-.522-1.392-2.263-1.914-3.829-2.089-.7,0-1.218-.174-1.914-.174a8.387,8.387,0,0,0-2.089,0,1.85,1.85,0,0,0-1.566,1.392,8.432,8.432,0,0,0,0,2.959A14.971,14.971,0,0,1,22.7,39.71l.87.522a46.511,46.511,0,0,0-3.307-15.49c.348-1.914-.522-1.74-.348-.87Z" transform="translate(75.509 17.208)" fill="#f57474"/><path d="M28.692,28.1A3.984,3.984,0,0,0,27.3,31.063a2.127,2.127,0,0,0,.522,1.566c.174.174.174.522.522.7.174.174.522.174.7.522a3.162,3.162,0,0,0,3.481,0,4.278,4.278,0,0,0,.87-2.959A3.633,3.633,0,0,0,32,28.1a2.86,2.86,0,0,0-3.307.7l-.522.522a.5.5,0,1,0,.7.7l.7-.7h0a.17.17,0,0,0,.174-.174l.174-.174H31.3l.174.174h0v.174a.17.17,0,0,0,.174.174v.174h0c0,.174.174.522.174.7v.174h0v1.218h0v.522h0a.17.17,0,0,1-.174.174h0L32,32.98H30.781c-.174,0-.174,0-.522-.174h-.174c-.174,0-.174-.174-.522-.174-.174-.174-.7-.7-.7-.87a3.15,3.15,0,0,1,.174-2.785l.522-.522c.348.348-.174-.522-.87-.348Z" transform="translate(80.998 20.628)" fill="#f57474"/><path d="M34.485,23.84c.87,4.7-1.566,9.05-2.785,13.75a.556.556,0,0,0,.522.522c.174,0,.174,0,.522-.174,1.218-4.7,3.829-9.05,2.785-14.272C35.355,22.966,34.485,23.318,34.485,23.84Z" transform="translate(84.256 17.235)" fill="#f57474"/><path d="M31.3,29.67c1.914,1.392,4.177.174,5.918-1.218a.495.495,0,1,0-.7-.7c-1.218.87-2.959,2.089-4.525,1.218a.529.529,0,0,0-.7,0v.7Z" transform="translate(83.96 20.455)" fill="#f57474"/><path d="M36.775,24.681c-.174,1.914-.174,3.829-.174,5.4v2.785a2.127,2.127,0,0,1-.522,1.566.5.5,0,1,0,.7.7,2.617,2.617,0,0,0,.7-1.914c0-.87.174-1.914.174-2.785-.174-1.914,0-3.829,0-5.569.174-.348-.87-.522-.87-.174Z" transform="translate(87.361 18.134)" fill="#f57474"/><path d="M35.611,30.159a26.244,26.244,0,0,0,4.525-2.089.529.529,0,0,0,0-.7c-.174-.174-.174-.174-.522-.174-1.392.87-2.785,1.392-4.177,2.089-.174,0-.522.174-.174.522-.174.174,0,.348.348.348Z" transform="translate(86.784 20.14)" fill="#f57474"/><path d="M41.089,27.609A2.974,2.974,0,0,0,39,30.568a2,2,0,0,0,.87,1.566,2.491,2.491,0,0,0,1.914.522,6.263,6.263,0,0,0,3.829-1.566,2.826,2.826,0,0,0,.87-1.566,2.617,2.617,0,0,0-.7-1.914,3.776,3.776,0,0,0-5.221.174l-.174.174a.495.495,0,1,0,.7.7A7.187,7.187,0,0,1,43,27.435a2.407,2.407,0,0,1,2.089.522c.174.174.522.174.522.522,0,.174.174.174.174.522v.174h0v.348a.933.933,0,0,1-.522.7,5.037,5.037,0,0,1-2.785,1.566h-.87c-.174,0-.174,0-.522-.174a.556.556,0,0,1-.522-.522c-.174-.174-.174-.174-.174-.522V30.4h0v-.87a.17.17,0,0,1,.174-.174,2.742,2.742,0,0,1,1.218-1.218c0,.174-.174-.7-.7-.522Z" transform="translate(89.661 19.731)" fill="#f57474"/><path d="M45.67,28.261a4.456,4.456,0,0,1-.7,3.307l.87.174c0-.7-.174-1.566-.174-2.263a1.427,1.427,0,0,1,0-1.218c0-.174,0-.522.174-.522h.174c.174.174.522.174.7.522s.522.522.7.7c.522.522.87,1.218,1.566,1.566.522.522.87.87,1.392.7.174,0,.522-.174.522-.7.174-.87.7-1.914.87-2.785.174-.7.522-1.218.7-1.914,0-.174.174-.174.174-.522a.17.17,0,0,1,.174-.174h0a.17.17,0,0,0,.174.174c0,.174.174.174.174.522a25.376,25.376,0,0,1,1.218,3.307,40.732,40.732,0,0,0,1.566,4.177c.174.522.87,0,.7-.522-1.218-2.263-1.566-4.873-2.785-7.31-.174-.7-.7-1.566-1.392-1.566-.87-.174-1.392.7-1.566,1.392s-.7,1.392-.87,2.089a4.549,4.549,0,0,1-.522,1.392,7.538,7.538,0,0,0-.174.87v.174h0a.17.17,0,0,1-.174-.174h0a.17.17,0,0,1-.174-.174l-1.577-1.57c-.522-.522-.87-1.218-1.566-1.392a1.1,1.1,0,0,0-1.566.174h0a3.533,3.533,0,0,0-.174,2.959,3.832,3.832,0,0,0,.174,1.392.556.556,0,0,0,.522.522c.174,0,.174,0,.522-.174a5.488,5.488,0,0,0,.87-4c.174.174-.7.348-.522.87Z" transform="translate(93.26 17.687)" fill="#f57474"/></g><path d="M18.064,159.243a17,17,0,0,1,1.323-4.594c2.147-6.047,5.24-11.642,8.241-17.284,1.931-3.634,3.778-7.311,5.722-10.937a26.185,26.185,0,0,1,4.678-6.364,5.941,5.941,0,0,1,7.252-1.318,25.54,25.54,0,0,1,8.41,6.064,4.844,4.844,0,0,1,.7,6.242A57.725,57.725,0,0,1,47.3,140.4q-9.939,11.258-20.563,21.878a6.081,6.081,0,0,1-5.109,2.083c-2.028-.22-3.562-2.324-3.571-5.113h0Z" transform="translate(-3.476 -21.713)" fill="#2e2925"/><path d="M20.454,160.719a16.422,16.422,0,0,1,1.344-4.6,130.05,130.05,0,0,1,8.4-17.445c2.328-4.294,4.264-8.794,6.935-12.91a18.918,18.918,0,0,1,3.52-4.086,4.614,4.614,0,0,1,5.151-.786,22.529,22.529,0,0,1,8.473,5.942c1.665,1.931,1.72,3.22.406,5.477-2.43,4.175-5.718,7.666-8.929,11.216q-8.285,9.166-16.874,18.049a18.012,18.012,0,0,1-2.645,2.3,3.574,3.574,0,0,1-3.96.511c-1.34-.74-1.813-1.986-1.821-3.672h0Z" transform="translate(-4.856 -23.091)" fill="#e89576"/><path d="M27.357,168.882a11.034,11.034,0,0,1,1.213-4.146,164.176,164.176,0,0,1,9.483-19.245c1.107-1.948,2.206-3.9,3.457-5.764,2.1-3.131,2.924-3.33,6.216-1.5a41.167,41.167,0,0,1,4.61,3.017c2.071,1.555,2.269,3.364.592,5.32C46.543,154,40,161.3,33.126,168.3a15.608,15.608,0,0,1-3.034,2.295,1.8,1.8,0,0,1-1.99.093,1.761,1.761,0,0,1-.744-1.809Z" transform="translate(-8.839 -32.687)" fill="#2d2a26"/><path d="M51.65,157.121c-.292-.1-.418-.283-.3-.541a5.77,5.77,0,0,1,.478-.765c2.933-4.281,5.878-8.549,8.786-12.843.427-.63.752-.786,1.4-.292a18.366,18.366,0,0,0,2.041,1.276c.452.258.52.511.216.951q-4.583,6.713-9.141,13.447a3.137,3.137,0,0,1-.376.473c-.127.127-.224.406-.461.258-.262-.165-.152-.393,0-.6.625-.828,1.264-1.648,1.864-2.489a30.67,30.67,0,0,0,3.195-4.733c.368-.79.452-1.462-.355-2.02-.828-.57-1.331-.1-1.868.494a58.309,58.309,0,0,0-4.83,6.656,1.824,1.824,0,0,1-.647.727h0Z" transform="translate(-22.672 -35.762)" fill="#f0eadf"/><path d="M38.85,160.793A159.151,159.151,0,0,1,46.909,145.1a49.375,49.375,0,0,1,3.013-4.382,2.1,2.1,0,0,1,2.379-.849c.731.182.824.439.376,1.073-2.016,2.836-3.989,5.7-5.971,8.562q-3.746,5.407-7.484,10.814c-.114.165-.249.313-.372.473h0Z" transform="translate(-15.48 -34.259)" fill="#decfc1"/><path d="M49.424,169.9c1.217-1.614,2.421-3.233,3.651-4.834,3.765-4.915,7.129-10.1,10.569-15.239.693-1.035,1.2-1.014,1.8.114a2.327,2.327,0,0,1-.418,2.776q-4.095,4.881-8.388,9.593l-6.364,6.96c-.232.254-.456.516-.689.773l-.161-.139h0Z" transform="translate(-21.583 -39.622)" fill="#decfc0"/><path d="M29.354,195.29a7.821,7.821,0,0,1,1.1-3.1c1.471-2.751,3.423-5.185,5.139-7.776a2.3,2.3,0,0,1,.342-.49c.254-.224.266-.917.837-.562.592.368.03.706-.161.972-1,1.424-2.028,2.827-3.055,4.226a13.959,13.959,0,0,0-1.8,3c-.207.516-.359,1.052.186,1.454.516.38.879-.076,1.23-.33a17.308,17.308,0,0,0,3.237-3.541c.866-1.1,1.7-2.236,2.565-3.343.156-.2.283-.676.655-.368.258.211-.055.482-.186.689a79.016,79.016,0,0,1-7.6,9.576,3.859,3.859,0,0,1-.854.693c-.989.609-1.614.249-1.631-1.107h0Z" transform="translate(-9.995 -59.365)" fill="#efeadf"/><path d="M36.668,178.748a1.816,1.816,0,0,1,.507-.993c4.023-5.388,7.852-10.916,11.583-16.507.287-.431.63-1.179,1.154-.875.587.342-.008.947-.232,1.39a25.617,25.617,0,0,1-2.333,3.385c-3.119,4.348-6.212,8.718-9.682,12.8-.258.3-.418.748-1.006.8h.008Z" transform="translate(-14.216 -46.106)" fill="#d9d0c5"/><path d="M49.1,179.2c-.177.3-.275.723-.693.841a.328.328,0,0,1-.389-.351,1.087,1.087,0,0,1,.685-.887C48.911,178.734,49.05,178.937,49.1,179.2Z" transform="translate(-20.774 -56.781)" fill="#dcdfd7"/><path d="M55.089,184.791c-.152-.03-.33-.093-.287-.228a1.758,1.758,0,0,1,.807-1.082c.106-.059.308.08.262.211a1.946,1.946,0,0,1-.778,1.1h0Z" transform="translate(-24.687 -59.481)" fill="#d1cfc9"/></g><path d="M-.25-.016,279.766,0" transform="translate(621.5 1273.75)" fill="none" stroke="#000" stroke-linecap="round" stroke-width="0.5"/></g></svg>