<svg xmlns="http://www.w3.org/2000/svg" width="487.312" height="418.64" viewBox="0 0 487.312 418.64"><g transform="translate(-2115.472 -8403.965)"><path d="M101.681,193.348l111.231-63.533,64.266,56.129,83.353-84.224L329.672,70.862,459.29,17.56,426.178,157.678l-28.669-25.843L268.705,257.34l-69.461-72.608-52.951,43.707" transform="translate(2135.294 8388.447)"/><path d="M101.681,193.348l111.231-63.533,64.266,56.129,83.353-84.224L329.672,70.862,459.29,17.56,426.178,157.678l-28.669-25.843L268.705,257.34l-69.461-72.608-52.951,43.707" transform="translate(2135.294 8388.447)" fill="none" stroke="#000" stroke-miterlimit="10" stroke-width="2.453"/><path d="M107.077,193.348l111.231-63.533,64.266,56.129,83.353-84.224L335.068,70.862l129.619-53.3L431.575,157.678l-28.669-25.843L274.1,257.34l-69.461-72.608L151.69,228.439" transform="translate(2136.354 8388.447)" fill="#fff"/><path d="M107.077,193.348l111.231-63.533,64.266,56.129,83.353-84.224L335.068,70.862l129.619-53.3L431.575,157.678l-28.669-25.843L274.1,257.34l-69.461-72.608L151.69,228.439" transform="translate(2136.354 8388.447)" fill="none" stroke="#000" stroke-miterlimit="10" stroke-width="2.453"/><path d="M.8,169.386l20.544,234.2H184.924l-22.306-234.2Z" transform="translate(2115.472 8418.281)"/><path d="M184.924,403.588H21.349L.8,169.385H162.618Z" transform="translate(2115.472 8418.28)" fill="none" stroke="#000" stroke-miterlimit="10" stroke-width="1.472"/><path d="M189.83,398.682H26.255L5.71,164.479H167.524Z" transform="translate(2116.436 8417.316)" fill="#e0dcfa"/><path d="M189.83,398.682H26.255L5.71,164.479H167.524Z" transform="translate(2116.436 8417.316)" fill="none" stroke="#000" stroke-miterlimit="10" stroke-width="1.472"/><path d="M91.9,355.432H63.418l-2.239-29.149H89.248Z" transform="translate(2127.336 8449.11)"/><path d="M92.882,354.451H64.4L62.16,325.3H90.229Z" transform="translate(2127.528 8448.917)" fill="#fff"/><path d="M92.882,354.451H64.4L62.16,325.3H90.229Z" transform="translate(2127.528 8448.917)" fill="none" stroke="#000" stroke-miterlimit="10" stroke-width="0.491"/><path d="M122.653,355.432H94.171l-2.239-29.149H120Z" transform="translate(2133.378 8449.11)"/><path d="M123.635,354.451H95.152L92.913,325.3h28.069Z" transform="translate(2133.571 8448.917)" fill="#fff"/><path d="M123.635,354.451H95.152L92.913,325.3h28.069Z" transform="translate(2133.571 8448.917)" fill="none" stroke="#000" stroke-miterlimit="10" stroke-width="0.491"/><path d="M153.406,355.432H124.924l-2.239-29.149h28.069Z" transform="translate(2139.421 8449.11)"/><path d="M154.388,354.451H125.9l-2.239-29.15h28.069Z" transform="translate(2139.614 8448.917)" fill="#fff"/><path d="M154.388,354.451H125.9l-2.239-29.15h28.069Z" transform="translate(2139.614 8448.917)" fill="none" stroke="#000" stroke-miterlimit="10" stroke-width="0.491"/><path d="M89.059,323.709H60.577l-2.239-29.15H86.407Z" transform="translate(2126.777 8442.877)"/><path d="M90.041,322.727H61.558l-2.239-29.15H87.388Z" transform="translate(2126.97 8442.684)" fill="#fff"/><path d="M90.041,322.727H61.558l-2.239-29.15H87.388Z" transform="translate(2126.97 8442.684)" fill="none" stroke="#000" stroke-miterlimit="10" stroke-width="0.491"/><path d="M119.658,323.709H91.175l-2.239-29.15h28.069Z" transform="translate(2132.79 8442.877)"/><path d="M120.639,322.727H92.157l-2.239-29.15h28.069Z" transform="translate(2132.983 8442.684)" fill="#fff"/><path d="M120.639,322.727H92.157l-2.239-29.15h28.069Z" transform="translate(2132.983 8442.684)" fill="none" stroke="#000" stroke-miterlimit="10" stroke-width="0.491"/><path d="M150.257,323.709H121.774l-2.239-29.15H147.6Z" transform="translate(2138.802 8442.877)"/><path d="M151.238,322.727H122.755l-2.239-29.15h28.069Z" transform="translate(2138.995 8442.684)" fill="#fff"/><path d="M151.238,322.727H122.755l-2.239-29.15h28.069Z" transform="translate(2138.995 8442.684)" fill="none" stroke="#000" stroke-miterlimit="10" stroke-width="0.491"/><path d="M86.7,292.01H58.22l-2.239-29.15H84.05Z" transform="translate(2126.314 8436.648)"/><path d="M87.683,291.029H59.2l-2.239-29.15H85.031Z" transform="translate(2126.507 8436.455)" fill="#fff"/><path d="M87.683,291.029H59.2l-2.239-29.15H85.031Z" transform="translate(2126.507 8436.455)" fill="none" stroke="#000" stroke-miterlimit="10" stroke-width="0.491"/><path d="M117.017,292.01H88.534L86.3,262.86h28.069Z" transform="translate(2132.271 8436.648)"/><path d="M118,291.029H89.516l-2.239-29.15h28.069Z" transform="translate(2132.464 8436.455)" fill="#fff"/><path d="M118,291.029H89.516l-2.239-29.15h28.069Z" transform="translate(2132.464 8436.455)" fill="none" stroke="#000" stroke-miterlimit="10" stroke-width="0.491"/><path d="M147.332,292.01H118.849l-2.239-29.15h28.069Z" transform="translate(2138.228 8436.648)"/><path d="M148.313,291.029H119.83l-2.239-29.15H145.66Z" transform="translate(2138.42 8436.455)" fill="#fff"/><path d="M148.313,291.029H119.83l-2.239-29.15H145.66Z" transform="translate(2138.42 8436.455)" fill="none" stroke="#000" stroke-miterlimit="10" stroke-width="0.491"/><path d="M82.64,260.384H54.157l-2.239-29.149H79.987Z" transform="translate(2125.516 8430.434)"/><path d="M83.621,259.4H55.139L52.9,230.254H80.968Z" transform="translate(2125.709 8430.241)" fill="#fff"/><path d="M83.621,259.4H55.139L52.9,230.254H80.968Z" transform="translate(2125.709 8430.241)" fill="none" stroke="#000" stroke-miterlimit="10" stroke-width="0.491"/><path d="M51.869,260.384H23.386l-2.239-29.149H49.216Z" transform="translate(2119.47 8430.434)"/><path d="M52.85,259.4H24.368l-2.239-29.149H50.2Z" transform="translate(2119.663 8430.241)" fill="#fff"/><path d="M52.85,259.4H24.368l-2.239-29.149H50.2Z" transform="translate(2119.663 8430.241)" fill="none" stroke="#000" stroke-miterlimit="10" stroke-width="0.491"/><path d="M55.214,289.126h-27.9L25.666,265.9H53.148Z" transform="translate(2120.357 8437.246)"/><path d="M55.214,289.126h-27.9L25.666,265.9H53.148Z" transform="translate(2120.357 8437.246)" fill="none" stroke="#000" stroke-miterlimit="10" stroke-width="0.491"/><path d="M56.195,288.07H28.3l-1.652-23.224H54.13Z" transform="translate(2120.55 8437.038)" fill="#fff"/><path d="M56.195,288.07H28.3l-1.652-23.224H54.13Z" transform="translate(2120.55 8437.038)" fill="none" stroke="#000" stroke-miterlimit="10" stroke-width="0.491"/><path d="M61.682,362.228h-27.9L29.2,294.981H56.682Z" transform="translate(2121.052 8442.96)"/><path d="M61.682,362.228h-27.9L29.2,294.981H56.682Z" transform="translate(2121.052 8442.96)" fill="none" stroke="#000" stroke-miterlimit="10" stroke-width="0.501"/><path d="M62.663,361.689h-27.9l-4.587-67.247H57.663Z" transform="translate(2121.245 8442.854)" fill="#fff"/><path d="M62.663,361.689h-27.9l-4.587-67.247H57.663Z" transform="translate(2121.245 8442.854)" fill="none" stroke="#000" stroke-miterlimit="10" stroke-width="0.501"/><path d="M113.411,260.384H84.928L82.69,231.235h28.069Z" transform="translate(2131.562 8430.434)"/><path d="M114.392,259.4H85.909l-2.239-29.149h28.069Z" transform="translate(2131.755 8430.241)" fill="#fff"/><path d="M114.392,259.4H85.909l-2.239-29.149h28.069Z" transform="translate(2131.755 8430.241)" fill="none" stroke="#000" stroke-miterlimit="10" stroke-width="0.491"/><path d="M144.182,260.384H115.7l-2.239-29.149h28.069Z" transform="translate(2137.609 8430.434)"/><path d="M145.163,259.4H116.68l-2.239-29.149H142.51Z" transform="translate(2137.802 8430.241)" fill="#fff"/><path d="M145.163,259.4H116.68l-2.239-29.149H142.51Z" transform="translate(2137.802 8430.241)" fill="none" stroke="#000" stroke-miterlimit="10" stroke-width="0.491"/><path d="M155.546,225.53H20.006l-4.537-46.078H150.961Z" transform="translate(2118.354 8420.259)"/><path d="M155.546,225.53H20.006l-4.537-46.078H150.961Z" transform="translate(2118.354 8420.259)" fill="none" stroke="#000" stroke-miterlimit="10" stroke-width="0.46"/><path d="M156.825,224.058H21.285L17.922,177.98H152.24Z" transform="translate(2118.836 8419.97)" fill="#fff"/><path d="M156.825,224.058H21.285L17.922,177.98H152.24Z" transform="translate(2118.836 8419.97)" fill="none" stroke="#000" stroke-miterlimit="10" stroke-width="0.46"/><path d="M29.981,198.953v-.781h1.564v-3.128h-.781v-.781h.781v-.783h1.564v4.691h1.563v.781Z" transform="translate(2121.205 8423.016)"/><path d="M36.119,198.953v-.781h-.783v-.783h-.781v-2.345h.781v-.781h.783v-.783h2.345v.783h.781v.781h.783v2.345h-.783v.783h-.781v.781Zm.781-.781h1.564v-3.128h-.783v-.781H36.119v3.126H36.9Z" transform="translate(2122.104 8423.016)"/><path d="M41.345,195.825H39.782v-1.563h.781v.781h.781Zm-1.563,2.346h.781v.781h-.781Zm1.563-3.909h-.781v-.783h1.564v1.564h-.783Zm-.781,3.126h.783v.783h-.783Zm.781-.781h.781v.781h-.781Zm.783-.783h.783v.783h-.783Zm.781-.781h.781v.781h-.781Zm.781,3.128h.783v.781H42.908v-1.564h.781Zm0-3.909h.781v.783H43.69Zm0,2.345h1.564v1.564h-.781v-.783H43.69Zm1.564-2.345h-.783v-.781h.783Z" transform="translate(2123.131 8423.016)"/><path d="M50.235,199.477v-4.69h4.69v.781h.783v1.564h-.783v.783H51.8v1.563Zm1.564-2.345h2.345v-1.564H51.8Z" transform="translate(2125.185 8423.271)"/><path d="M56.243,198.7v-.781h-.781v-.783h.781v-.781h3.128v-.782H56.243v-.781h3.909v.781h.783V198.7Zm.783-.781h2.345v-.783H57.026Z" transform="translate(2126.212 8423.271)"/><path d="M60.689,198.7v-.781H64.6v-.783H61.47v-.781h-.781v-.783h.781v-.781h3.909v.781H62.253v.783h3.126v.781h.783v.783h-.783v.781Z" transform="translate(2127.239 8423.271)"/><path d="M65.916,198.7v-.781h3.909v-.783H66.7v-.781h-.781v-.783H66.7v-.781h3.909v.781H67.48v.783h3.126v.781h.783v.783h-.783v.781Z" transform="translate(2128.266 8423.271)"/><path d="M71.8,198.953v-.781H73.36v-2.346h-.781v-.781h2.345v3.128h1.563v.781Zm1.564-5.473h1.564v.781H73.36Z" transform="translate(2129.422 8423.016)"/><path d="M78.586,198.7v-.781h-.781v-.783h-.783v-2.345h1.564v2.345H80.15v-2.345h1.564v2.345h-.783v.783H80.15v.781Z" transform="translate(2130.449 8423.271)"/><path d="M82.379,198.7v-.781H81.6v-2.346h.783v-.781h3.908v.781h.783v1.564H83.16v.783h3.126v.781Zm.781-2.345H85.5v-.782H83.16Z" transform="translate(2131.347 8423.271)"/><path d="M92.7,198.953v-.781h1.564v-2.346h-.781v-.781h2.345v3.128h1.564v.781Zm1.564-5.473h1.564v.781H94.267Z" transform="translate(2133.53 8423.016)"/><path d="M97.277,198.7v-3.909h4.69v.781h.783V198.7h-1.564v-3.128H98.841V198.7Z" transform="translate(2134.429 8423.271)"/><path d="M103.285,198.7v-.781H102.5v-2.346h.781v-.781h4.69v.781h-3.909v2.346h3.909v.781Z" transform="translate(2135.456 8423.271)"/><path d="M108.513,198.7v-.781h-.783v-2.346h.783v-.781h3.908v.781h.783v2.346h-.783v.781Zm.781-.781h2.345v-2.345h-2.345Z" transform="translate(2136.483 8423.271)"/><path d="M118.967,198.7v-.781h-.783v-2.346h.783v-.781h3.908v.781h.783v1.564h-3.909v.783h3.126v.781Zm.781-2.345h2.345v-.782h-2.345Z" transform="translate(2138.537 8423.271)"/><path d="M0,0V3.909H.782V.782h.782V3.909H3.127V.782h.782V3.909H5.473V.782H4.691V0Z" transform="translate(2250.476 8618.059)"/></g></svg>