<svg xmlns="http://www.w3.org/2000/svg" width="426.448" height="137.49" viewBox="0 0 426.448 137.49"><g transform="translate(-0.003 -0.003)"><path d="M51.34,53.69c-9.7,4.57-21.13,7.94-28.48,16.2a19.928,19.928,0,0,0-4.45,7.88,2.524,2.524,0,0,0,1.15,2.82c4.4,2.3,9.34,2.98,14.23,3.3,2.45.16,4.9.22,7.35.33,1.24.05,2.49.12,3.73.22.59.05,1.18.1,1.77.16l.81.09c.13.02.27.03.4.05.49.06-.58-.09.27.04a29.706,29.706,0,0,1,6.48,1.67,15.706,15.706,0,0,1,5.12,3.49,17.375,17.375,0,0,1,4.63,12.97c-.01.13-.07.69-.06.57.01-.09-.09.52-.12.69a18.106,18.106,0,0,1-.44,1.76,15.859,15.859,0,0,1-1.12,2.84,26.876,26.876,0,0,1-4.05,5.93,50.762,50.762,0,0,1-12.4,9.91,65.313,65.313,0,0,1-14.3,6.38,45.545,45.545,0,0,1-6.63,1.54c-.13.02-.73.05-.24.04s0,0-.11,0c-.34,0-.68-.02-1.03-.05-.57-.04.37.09-.08,0-.17-.04-.35-.06-.53-.1-.45-.09-.89-.2-1.33-.31a44.669,44.669,0,0,1-11.47-5.02c-.86-.51-1.71-1.04-2.53-1.6-.37-.26-.74-.52-1.1-.8.38.29-.02-.02-.18-.15s-.32-.27-.48-.41c-.27-.24-.52-.48-.77-.74-.1-.11-.19-.22-.29-.33-.36-.38.19.42,0-.02a1.492,1.492,0,0,0-.18-.3c-.29-.34.14.43.07.17-.12-.4.01.16.02.31,0-.46-.08.37-.06.29.04-.15-.34.65-.1.26-.07.11-.43.54-.15.24-.17.19-.51.37-.1.13.03-.02-.58.21-.06.04,3.05-.98,1.75-5.81-1.33-4.82-2.04.66-3.61,2.34-3.1,4.6a7.708,7.708,0,0,0,2.74,3.89,45.511,45.511,0,0,0,11.95,7c3.92,1.67,7.94,3.16,12.24,2.47a59.375,59.375,0,0,0,15.34-5.04c10.31-4.79,21.22-12.33,25.59-23.26A21.484,21.484,0,0,0,55.54,81.5c-4.89-1.86-10.31-2.09-15.49-2.29s-10.1-.19-14.96-1.68a14.5,14.5,0,0,1-2.99-1.21l1.15,2.82c1.61-5.76,7.12-9.68,12.39-12.62,5.87-3.27,12.17-5.61,18.24-8.47a2.523,2.523,0,0,0,.9-3.42,2.563,2.563,0,0,0-3.42-.9h0l-.02-.02Z" fill="#4d45ba"/><path d="M100.43,94.65a19.618,19.618,0,0,0,23.58-21.9c-1.02-6.35-6.08-10.81-12.16-12.29a24.933,24.933,0,0,0-3.11-.53,8.077,8.077,0,0,0-3.23.43,46.259,46.259,0,0,0-5.17,1.76,38.444,38.444,0,0,0-8.75,4.87A29.406,29.406,0,0,0,80.05,96.32c1.71,10.18,8.52,19.49,18.13,23.49,12.2,5.08,25.11-.33,34.62-8.33,1.65-1.39,3.22-2.87,4.73-4.4,2.26-2.3-1.28-5.84-3.54-3.54a57.618,57.618,0,0,1-8.41,7.21,42.368,42.368,0,0,1-4.34,2.62,28.581,28.581,0,0,1-3.74,1.69,31.591,31.591,0,0,1-3.99,1.18c-.63.14-1.26.25-1.89.36-.11.02-.49.07.04,0-.14.02-.27.04-.41.05-.37.04-.75.08-1.12.1a24.977,24.977,0,0,1-3.67,0c-.29-.02-.58-.06-.87-.08-.61-.05.35.07-.38-.05-.59-.1-1.18-.21-1.76-.34a25.338,25.338,0,0,1-3.28-1.01c-.11-.04-.23-.09-.34-.14-.56-.22.36.16,0,0-.25-.11-.5-.22-.75-.34-.52-.25-1.03-.52-1.53-.8a27.092,27.092,0,0,1-2.8-1.85c.53.39-.16-.13-.28-.23-.21-.17-.42-.35-.62-.53-.46-.4-.9-.81-1.33-1.24a31.393,31.393,0,0,1-2.18-2.44c-.38-.47.23.31,0,0-.09-.12-.18-.24-.27-.37-.14-.2-.29-.39-.43-.59-.35-.5-.68-1.01-1-1.53a29.026,29.026,0,0,1-1.56-2.91c-.13-.28-.26-.56-.38-.84-.15-.34.12.33-.1-.25s-.44-1.15-.63-1.73a29.221,29.221,0,0,1-.87-3.21c-.12-.54-.21-1.09-.3-1.64-.12-.74.02.31-.06-.44-.03-.31-.07-.61-.09-.92a28.014,28.014,0,0,1-.09-3.43c.02-.53.05-1.05.1-1.58.03-.31.06-.62.1-.93.02-.13.07-.49-.02.11.03-.18.06-.37.09-.55a28.044,28.044,0,0,1,.78-3.38c.16-.54.35-1.08.54-1.62.1-.27.21-.53.31-.8-.23.57.13-.28.21-.46a26.936,26.936,0,0,1,1.74-3.16c.32-.5.67-.99,1.02-1.48s-.15.16.29-.37c.22-.26.44-.53.66-.78a28.305,28.305,0,0,1,2.86-2.83c.22-.19.45-.38.67-.56.11-.09.23-.19.35-.28-.37.29.02-.02.11-.08.58-.43,1.17-.85,1.78-1.24a37.209,37.209,0,0,1,4-2.24,31.593,31.593,0,0,1,4.01-1.62q1.185-.4,2.4-.75a6.23,6.23,0,0,1,2.08-.34,19.352,19.352,0,0,1,2.38.5c.33.09.65.19.97.29.13.04,1.13.42.76.26a12.532,12.532,0,0,1,1.82.94q.465.285.9.6c.08.06.37.29,0,0,.16.13.32.26.47.4a14.082,14.082,0,0,1,1.26,1.3c.07.09.29.38-.03-.04a3.711,3.711,0,0,1,.23.32c.2.3.39.59.57.9.14.25.27.51.4.76a3.729,3.729,0,0,1,.16.35c-.22-.5-.08-.18-.03-.07a12.816,12.816,0,0,1,.54,1.83c.06.28.11.56.16.85.06.36-.05-.46-.01-.09.01.16.03.32.04.48a14.122,14.122,0,0,1,.02,1.84c-.01.29-.04.59-.07.88-.04.47,0,0,.01-.08-.02.16-.05.33-.08.49-.12.62-.26,1.24-.44,1.85a15.166,15.166,0,0,1-.61,1.72c.22-.52-.09.19-.16.34-.16.34-.34.67-.52,1a17.368,17.368,0,0,1-.99,1.58l-.3.42c.05-.07.3-.38,0-.01-.22.27-.44.54-.68.8a16.817,16.817,0,0,1-1.34,1.33c-.24.21-.48.41-.73.61-.32.26.47-.33-.08.06l-.52.37a16.6,16.6,0,0,1-1.57.93c-.29.15-.58.29-.88.43-.44.2-.1.04,0,0-.21.08-.41.16-.62.23a15.933,15.933,0,0,1-1.94.55,7.7,7.7,0,0,1-1.87.26,16.047,16.047,0,0,1-4.1-.24,2.571,2.571,0,0,0-3.08,1.75,2.525,2.525,0,0,0,1.75,3.08h0v-.02Z" fill="#4d45ba"/><path d="M163.9,93.47c6.32-2.75,12.75-5.84,18.05-10.33,2.64-2.23,5.54-5.48,5.33-9.19-.18-3.26-2.59-5.65-5.43-6.95a27.32,27.32,0,0,0-10.98-2.18,39.737,39.737,0,0,0-12.3,1.74,26.479,26.479,0,0,0-10.86,6.17,17.168,17.168,0,0,0-5.02,11.43c-.2,5.53,2.16,10.95,5.02,15.56a70.323,70.323,0,0,0,7.27,9.55,22.171,22.171,0,0,1,2.14,2.51,28.438,28.438,0,0,0,3.07,3.93,20.115,20.115,0,0,0,6.7,4.73c10.2,4.35,21.55-.98,30.08-6.64,2.25-1.49,4.41-3.11,6.54-4.78a2.526,2.526,0,0,0,0-3.54,2.564,2.564,0,0,0-3.54,0c-7.22,5.67-16.64,11.94-26.03,11.53a15.425,15.425,0,0,1-11.46-6.29c-.87-1.12-1.54-2.36-2.51-3.4-.72-.78-1.43-1.56-2.13-2.36-.65-.75-1.29-1.51-1.92-2.29-.69-.86-.74-.91-1.45-1.88a46.24,46.24,0,0,1-4.86-8.07c-.07-.15-.14-.31-.21-.47-.24-.54.21.53,0-.02-.12-.3-.24-.6-.36-.91-.22-.58-.41-1.16-.59-1.76-.16-.56-.31-1.12-.43-1.69-.05-.23-.09-.45-.13-.68-.02-.13-.04-.27-.07-.4-.13-.68.03.44,0,0a21.634,21.634,0,0,1-.1-3.01c0-.24.04-.47.06-.71.04-.62-.13.64.02-.14.09-.45.17-.89.29-1.33s.26-.85.4-1.26c.07-.21.39-.81,0,0,.11-.23.21-.46.32-.69a21.562,21.562,0,0,1,1.36-2.19c.24-.37-.43.49-.13.17.07-.08.13-.17.2-.25.14-.16.28-.33.42-.49.29-.32.6-.63.91-.93s.65-.59.99-.87c.17-.14.74-.52.02-.02.21-.15.42-.31.63-.46a22.839,22.839,0,0,1,2.32-1.42c.39-.21.79-.41,1.19-.6.19-.09.39-.18.58-.27.71-.33-.47.17.27-.11a36.013,36.013,0,0,1,5.48-1.65c.43-.09.86-.18,1.3-.25l.71-.12c.24-.04,1.25-.16.28-.05.94-.11,1.88-.21,2.83-.27a36.445,36.445,0,0,1,5.43.09c.3.03,1.62.22.61.06.44.07.89.13,1.33.22a19.253,19.253,0,0,1,2.27.55c.32.1.64.2.96.31.17.06.33.13.5.19.65.23-.57-.29.03.01.57.29,1.13.58,1.67.92a1.846,1.846,0,0,0,.33.24c-.24-.05-.51-.45-.14-.1.21.21.43.41.64.62.57.55-.28-.54.09.11.05.09.45.63.39.71-.08.12-.23-.8-.12-.25.02.12.07.24.1.36a2.965,2.965,0,0,1,.07.37c-.36.14-.02-.85-.06-.41a1.045,1.045,0,0,1,0,.25v.32c.03.68-.05-.26.04-.2.07.05-.19.81-.21.9-.03.12-.11.24-.13.36,0,.05.32-.64.03-.09-.18.33-.35.66-.55.98-.08.13-.18.26-.26.39-.05.08-.12.15-.17.24-.22.36.43-.5.15-.19-.32.35-.6.72-.93,1.06a23.3,23.3,0,0,1-2.26,2.07c-.19.15-.38.3-.56.45.64-.5-.19.13-.34.25-.57.42-1.16.82-1.75,1.22a75.587,75.587,0,0,1-8.47,4.76c-1.81.89-3.64,1.72-5.49,2.53a2.518,2.518,0,0,0-.9,3.42,2.565,2.565,0,0,0,3.42.9h0v-.02Z" fill="#4d45ba"/><path d="M324.42,55.3c-10.83-.37-22.27.46-32.19,5.19-6.4,3.05-11.74,8.08-14.24,14.79a25.969,25.969,0,0,0,.08,17.29,29.223,29.223,0,0,0,10,13.94,18.191,18.191,0,0,0,15.06,3.41c6.67-1.63,11.5-7.32,14.64-13.12a65.955,65.955,0,0,0,5.5-14.3c.82-3.03,1.48-6.1,2.04-9.19q.48-2.64.85-5.29c.14-.96.26-1.91.39-2.87a5.205,5.205,0,0,1,.09-.69c.06-.25.1-.16.07-.08.06-.17.28-.64.4-.93a39.3,39.3,0,0,1,2.6-5.09c.31-.5-.47.38.1-.1.33-.28-.23.17-.29.21.38-.24-.45.15-.35.12a2.257,2.257,0,0,1-2.04-.52c-.31-.32-.41-.53-.41-.64a2.224,2.224,0,0,0,.13.58c.12.32-.06-.75-.03-.21,0,.16.03.31.04.47.05.71.05,1.41.03,2.12-.03,1.9-.15,3.8-.28,5.69-.32,4.71-.72,9.41-.88,14.13-.14,3.96-.34,8.32.8,12.17.08.29.19.56.29.84.12.3.24.6.39.89s.18.39.03-.01a20.142,20.142,0,0,0,1.73,3.63,27.911,27.911,0,0,0,5.73,6.53c3.87,3.25,10.11,6.99,15.14,3.97,2.61-1.57,3.85-4.52,4.33-7.4a2.585,2.585,0,0,0-1.75-3.08,2.528,2.528,0,0,0-3.08,1.75,9.248,9.248,0,0,1-1.23,3.65c-.06.09-.29.37.01,0a3.853,3.853,0,0,1-.27.3c-.1.09-.56.5-.33.32.25-.19-.38.21-.45.26-.42.27.29-.03-.34.12-.18.04-.91.16-.25.09-.22.02-.45.04-.67.04-.27,0-.53-.02-.79-.04-.29-.02.13.02.16.02-.21-.03-.41-.07-.62-.12a12.546,12.546,0,0,1-1.58-.49c-.06-.02-.5-.21-.24-.09.24.1-.11-.06-.13-.06-.33-.16-.65-.32-.97-.49a21.821,21.821,0,0,1-6.16-4.95,16.388,16.388,0,0,1-2.19-2.87c-.3-.48-.58-.98-.84-1.49-.07-.15-.37-.88-.18-.37-.1-.25-.17-.51-.27-.76-.03-.09-.69-1.8-.37-.75-.09-.31-.22-.6-.31-.91-.1-.35-.18-.7-.25-1.06l-.09-.51c-.05-.29-.09-.78-.03-.18a55.474,55.474,0,0,1-.28-5.9c.02-4.6.37-9.19.7-13.78a88.98,88.98,0,0,0,.5-11.07c-.07-1.33-.2-2.87-1.19-3.88a3.085,3.085,0,0,0-4.56.34,17.171,17.171,0,0,0-2.56,4.33,26.974,26.974,0,0,0-1.77,4.06,48.037,48.037,0,0,0-.74,5.4,103.59,103.59,0,0,1-4.1,17.49c-.4,1.17-.82,2.33-1.29,3.48-.1.24-.19.48-.29.71.2-.47-.11.25-.17.39-.22.51-.46,1.01-.7,1.51a40.781,40.781,0,0,1-2.97,5.22c-.24.35-.48.7-.73,1.04-.05.07-.5.65-.25.34.23-.3-.23.29-.3.37a23.211,23.211,0,0,1-1.63,1.8c-.51.52-1.06,1-1.62,1.47-.07.06-.59.46-.22.18s-.09.06-.17.12c-.3.21-.6.42-.91.61a15.979,15.979,0,0,1-1.72.95c-.12.06-.26.11-.38.17-.28.15.6-.22.05-.02-.31.11-.61.23-.92.33a13.943,13.943,0,0,1-1.69.43c-.14.03-.29.04-.44.07-.39.09.71-.06.12-.02-.29.02-.58.06-.87.07a12.492,12.492,0,0,1-1.73-.03c-.14-.01-.29-.03-.43-.04-.5-.03.25.05.18.03a6.78,6.78,0,0,0-.9-.16,15.806,15.806,0,0,1-1.67-.45c-.26-.08-.52-.18-.77-.27-.12-.04-.24-.1-.36-.14-.21-.07.56.27.04.01a23.35,23.35,0,0,1-3.11-1.78c-.24-.16-.46-.34-.69-.51.74.53-.11-.1-.31-.26-.48-.4-.94-.83-1.39-1.27s-.89-.91-1.3-1.39c-.21-.24-.41-.49-.62-.74-.07-.08-.39-.5-.1-.13s-.1-.14-.17-.23a28.7,28.7,0,0,1-2.1-3.33c-.3-.57-.59-1.14-.85-1.73-.07-.15-.13-.31-.2-.46-.04-.1.22.56.04.08-.13-.33-.26-.66-.38-.99a26.611,26.611,0,0,1-1.07-3.81q-.105-.5-.18-.99c-.03-.17-.05-.33-.07-.5.07.44.05.46,0,.04-.07-.67-.13-1.34-.15-2.01s-.01-1.35.02-2.02c.02-.32.04-.63.07-.95.02-.17.04-.34.05-.5.05-.54-.11.62,0-.03a23.8,23.8,0,0,1,.98-3.91c.11-.31.24-.61.35-.91s-.25.54,0,0c.08-.18.16-.36.25-.54a20.219,20.219,0,0,1,1.03-1.88c.38-.61.78-1.19,1.21-1.77-.49.66.24-.29.41-.49.25-.29.51-.58.77-.86.55-.58,1.13-1.13,1.73-1.66.29-.26.6-.5.9-.74.47-.39-.38.26.12-.09.2-.14.39-.29.59-.43a31.967,31.967,0,0,1,4.78-2.77c.39-.19.79-.36,1.19-.54l-.07.03.36-.15c.27-.11.54-.22.82-.32,1.02-.38,2.05-.73,3.09-1.04a60,60,0,0,1,14.87-2.39c3.11-.16,6.22-.17,9.33-.06s3.21-4.89,0-5h.01Z" fill="#4d45ba"/><path d="M378.91,9.58c-2.51,13.55-2.51,27.32-1.31,41,1.18,13.52,3.4,26.91,4.92,40.39.85,7.58,1.47,15.19,1.58,22.82.04,3.21,5.04,3.22,5,0-.37-26.85-7.26-53.15-7.3-80.01a125.34,125.34,0,0,1,1.94-22.88,2.571,2.571,0,0,0-1.75-3.08,2.528,2.528,0,0,0-3.08,1.75h0Z" fill="#4d45ba"/><path d="M407.67,3.11c4.33,15.64,4.84,31.9,4.36,48.04-.24,8.09-.71,16.17-1.04,24.25-.08,2.05-.22,4.1-.22,6.15,0,1.81.89,3.67,1.52,5.34,1.26,3.32,2.72,6.56,4.12,9.82,3.04,7.07,5.65,14.38,4.9,22.18a2.514,2.514,0,0,0,2.5,2.5,2.554,2.554,0,0,0,2.5-2.5c.69-7.17-1.24-14.13-3.9-20.72-1.3-3.22-2.75-6.38-4.08-9.59-.67-1.63-1.32-3.26-1.9-4.93a10.5,10.5,0,0,1-.65-2.11,22.9,22.9,0,0,1,.11-3.31c.59-16.31,1.94-32.64.96-48.97A131.691,131.691,0,0,0,412.5,1.77c-.86-3.1-5.68-1.78-4.82,1.33h0Z" fill="#4d45ba"/></g></svg>