<?xml version="1.0" encoding="UTF-8"?>
<svg id="Layer_2" data-name="Layer 2" xmlns="http://www.w3.org/2000/svg" viewBox="0 0 557.17 188.62">
  <g id="Layer_1-2" data-name="Layer 1">
    <path d="M30.75,6.95c-7.25,1.78-14.54,3.52-21.64,5.83-1.92,.62-3.84,1.29-5.65,2.16-1,.48-2.04,1.05-2.76,1.91-1.7,2.04,0,4.01,1.88,5.02,2.78,1.51,5.93,2.41,8.9,3.44,4.19,1.46,8.36,2.96,12.4,4.79,2.28,1.03,4.51,2.16,6.67,3.42,1.07,.62,2.29,1.23,3.24,2.02,1.28,1.06,2.28,2.87,3.18,4.27,2.54,3.93,5,9,3.87,13.75-.85,3.55-3.62,6.02-6.98,7.48-7.97,3.47-18.42,2.12-25.77-2.23-.93-.55-1.83-1.15-2.67-1.83-1.49-1.2-3.62,.91-2.12,2.12,7.43,6.01,18.11,8.1,27.38,6.07,3.95-.86,7.98-2.68,10.58-5.89,2.83-3.49,3.37-7.95,2.31-12.24-.71-2.85-2.03-5.56-3.57-8.05-.96-1.55-2.03-3.03-3.15-4.47-.96-1.23-2.1-1.96-3.42-2.77-4.3-2.65-8.92-4.74-13.62-6.58-3.83-1.5-7.73-2.77-11.6-4.17-.72-.26-1.44-.53-2.15-.81-.17-.07-.33-.13-.49-.2-.01,0,.07,.03-.17-.07-.3-.13-.6-.27-.89-.41-.44-.22-.86-.47-1.28-.74-.3-.2,.12,.12,0,0-.06-.06-.12-.11-.18-.17-.41-.35,.1,.09-.13-.15-.17-.18,.1,.38,.01-.03,.1,.45,.04,.33,.05,.15,0,.71,.04-.04-.05,.28-.05,.16,.21-.22-.02,.02,.14-.15,.29-.29,.44-.42-.35,.3,.27-.18,.42-.26,.27-.17,.56-.32,.84-.46,.78-.39,1.25-.59,2.02-.88,5.83-2.25,11.99-3.73,18.03-5.26,2.29-.58,4.59-1.15,6.89-1.72,1.87-.46,1.08-3.35-.8-2.89h0Z" fill="#4d45ba"/>
    <path d="M59.45,31.62c-2.54,3.09-5.03,6.37-6.64,10.06-.98,2.24-1.75,4.75-1.18,7.21,.95,4.11,5.48,5.26,9.16,5.05,4.36-.25,8.9-1.8,12.42-4.4,3.29-2.42,6-6.23,4.17-10.4-.43-.98-1.08-1.88-1.83-2.64-1.29-1.31-2.66-2.57-3.96-3.88-2.58-2.6-6.71-6.9-10.82-5.3-1.14,.44-1.96,1.23-2.69,2.19-.49,.64-.1,1.68,.54,2.05,.77,.45,1.56,.11,2.05-.54,.12-.16,.62-.61,.67-.65,.15-.1,.3-.19,.47-.26-.27,.13,.25-.06,.36-.09,.27-.07,.03-.01-.03,0,.1-.01,.21-.02,.31-.02,.08,0,.65,.05,.3,0,.4,.06,.8,.18,1.17,.33-.22-.09,.29,.14,.37,.18,.2,.11,.4,.22,.6,.34,.41,.25,.81,.53,1.2,.82,.63,.48,1.5,1.26,2.18,1.91,1.41,1.34,2.71,2.79,4.13,4.13,.46,.43,.95,.82,1.36,1.3,.07,.08,.14,.17,.21,.25,.14,.15-.19-.28,0,.01,.14,.2,.27,.39,.4,.6,.1,.17,.19,.36,.29,.54,.15,.29,.03,.09,0-.01,.03,.11,.08,.21,.11,.31,.06,.17,.11,.35,.15,.53,.02,.09,.03,.19,.05,.28,.06,.26-.02-.43,0-.03,0,.17,.02,.35,.02,.52,0,.09,0,.18-.01,.28,0,.08-.06,.46,0,.13,.04-.3-.05,.22-.08,.34-.04,.18-.1,.36-.16,.53-.03,.1-.08,.19-.11,.29,.07-.21,.13-.29,.02-.07-.09,.17-.17,.35-.27,.52s-.2,.34-.31,.51c-.1,.15-.49,.63-.17,.25-.57,.67-1.16,1.3-1.85,1.86-.08,.07-.16,.13-.24,.19-.11,.09,.28-.21-.07,.05-.19,.14-.38,.28-.58,.41-.4,.27-.82,.53-1.24,.78s-.88,.48-1.32,.71c-.21,.11-.43,.21-.65,.31-.12,.05-.23,.1-.35,.15-.36,.16,.26-.1-.11,.05-.94,.37-1.88,.7-2.86,.97-.48,.13-.97,.25-1.47,.35-.23,.05-.46,.09-.69,.13-.12,.02-.24,.04-.36,.06-.28,.04-.3,.04-.08,.01-.91,.1-1.81,.17-2.73,.13-.22,0-.43-.02-.65-.04-.09,0-.19-.02-.28-.03-.38-.03,.35,.06-.02,0-.4-.07-.79-.14-1.18-.26-.18-.05-.36-.12-.54-.18-.51-.17,.26,.15-.21-.09-.32-.16-.6-.38-.91-.55,.46,.26,.03,.02-.11-.12-.13-.12-.24-.27-.37-.39-.22-.22,.14,.26,.06,.08-.03-.07-.1-.14-.14-.21-.1-.16-.17-.32-.27-.48-.16-.28,.09,.29,.03,.09-.02-.09-.06-.17-.09-.26-.06-.19-.1-.38-.15-.58-.02-.08-.02-.18-.04-.26,.15,.39,.02,.25,.01,.03s-.03-.45-.02-.67c0-.2,.02-.4,.03-.61,.02-.34,.02-.14,0-.04,.03-.15,.05-.3,.08-.45,.1-.53,.24-1.05,.41-1.56,.09-.28,.19-.55,.3-.83,.03-.07,.21-.51,.13-.33-.07,.17,.14-.31,.18-.39,.31-.69,.66-1.35,1.03-2.01,.9-1.59,1.93-3.11,3.02-4.58,.63-.85,1.27-1.65,1.96-2.49,.51-.63,.61-1.51,0-2.12-.53-.53-1.6-.63-2.12,0h0Z" fill="#4d45ba"/>
    <path d="M79.26,27.49c3.59,5.84,6.74,11.94,9.41,18.25l2.59-1.51c-4.28-7.3-1.73-17.32,5.55-21.65,1.66-.99,.15-3.58-1.51-2.59-8.67,5.16-11.74,17.05-6.63,25.76,1.01,1.72,3.32,.21,2.59-1.51-2.67-6.31-5.82-12.41-9.41-18.25-1.01-1.64-3.61-.14-2.59,1.51h0Z" fill="#4d45ba"/>
    <path d="M105.21,19.65c1.64,5.7,3.29,11.4,4.93,17.11,.39,1.34,2.61,1.51,2.89,0,.72-3.78,.55-7.67,1.3-11.43,.34-1.72,.87-3.45,1.93-4.88,1.12-1.5,2.75-2.41,4.52-2.94s1.06-3.45-.8-2.89c-4.43,1.32-7.26,4.58-8.35,9.03-.99,4.04-.72,8.25-1.49,12.32h2.89c-1.64-5.7-3.29-11.4-4.93-17.11-.53-1.85-3.43-1.06-2.89,.8h0Z" fill="#4d45ba"/>
    <path d="M132.45,16.62c8.2,6.91,8.47,21.97,19.86,25.39,1.85,.56,2.65-2.34,.8-2.89-5-1.5-7.59-6.67-9.76-10.99-2.4-4.78-4.59-10.09-8.78-13.62-1.47-1.24-3.6,.87-2.12,2.12h0Z" fill="#4d45ba"/>
    <path d="M164.47,14.79c-8.88,21.06-19.88,41.23-32.73,60.13-3.63,5.34-7.42,10.58-11.34,15.71-1.17,1.53,1.43,3.03,2.59,1.51,14.01-18.33,26.2-38.03,36.31-58.76,2.86-5.86,5.54-11.79,8.07-17.8,.32-.75-.34-1.64-1.05-1.85-.86-.25-1.53,.31-1.85,1.05h0Z" fill="#4d45ba"/>
    <path d="M184.66,44.15c-1.47,6.19-4.74,11.78-9.41,16.1-1.42,1.31,.71,3.43,2.12,2.12,5.02-4.64,8.6-10.77,10.18-17.42,.45-1.88-2.45-2.68-2.89-.8h0Z" fill="#4d45ba"/>
    <path d="M236.92,1.45c.77,16.77,6.85,33.08,5.04,49.99-.2,1.92,2.8,1.9,3,0,1.81-16.92-4.28-33.22-5.04-49.99-.09-1.92-3.09-1.93-3,0h0Z" fill="#4d45ba"/>
    <path d="M232.92,39.15c7.75,.49,15.56-.6,22.88-3.2,1.81-.64,1.03-3.54-.8-2.89-7.1,2.52-14.57,3.57-22.09,3.09-1.93-.12-1.92,2.88,0,3h0Z" fill="#4d45ba"/>
    <path d="M257.99,7.59c7.33,12.89,8.89,28.04,14.66,41.57,1.58,3.72,3.5,7.29,5.93,10.53,.93,1.24,3.34,.6,2.74-1.16-1.34-3.92-2.48-7.98-2.87-12.11-.24-2.56-.34-5.43,.64-7.87,.29-.73,.63-1.31,1.25-1.79,.36-.29,.79-.42,1.46-.41,1.77,.03,3.86,1.76,5.24,3.14,3.31,3.31,5.75,7.46,7.92,11.58,.9,1.71,3.49,.19,2.59-1.51-2.22-4.22-4.75-8.42-8.08-11.87-1.87-1.94-4.24-3.9-7.01-4.27-5.96-.79-7.26,6.48-7.15,10.88,.12,5.13,1.45,10.21,3.1,15.04l2.74-1.16c-8.86-11.8-10.69-27.13-15.51-40.71-1.39-3.92-3.02-7.77-5.08-11.39-.95-1.68-3.55-.17-2.59,1.51h0Z" fill="#4d45ba"/>
    <path d="M308.95,39.99c4.39-.95,8.16-4.84,9.55-9.04,.54-1.64,.7-3.74-.56-5.11-1.43-1.56-3.78-1.32-5.61-.73-2.81,.91-4.93,2.46-6.56,4.91-1.47,2.2-2.37,4.81-2.75,7.42-.73,5.02,.4,11.07,5.19,13.76,1.4,.79,3,1.38,4.58,.88,1.75-.55,3.25-1.59,4.64-2.76,2.74-2.32,5.09-5.49,8.74-6.37,1.88-.45,1.08-3.35-.8-2.89-2.86,.69-5.12,2.54-7.22,4.52-1.01,.95-1.99,1.94-3.06,2.81s-2.15,1.32-3.36,1.89c-.05,.03-.49,.08-.13,.08,.33,0-.02-.02-.1-.05-.25-.1-.53-.14-.79-.24-.48-.17-.92-.4-1.35-.67-.74-.47-1.38-1.12-1.87-1.84-1.13-1.69-1.61-3.72-1.68-5.73-.13-4.08,1.25-8.78,4.5-11.45,.86-.71,2.09-1.15,3.16-1.46,.31-.09,.88-.22,1.05-.24,.19-.02,.38-.02,.57-.02,.37,0-.03-.02,.3,.03,.12,.02,.45,.14,.16,.04,.24,.09,.15,.08,.11,.05,.07,.06,.34,.35,.08,.06,.08,.09,.2,.48,.09,.14,.14,.42,.13,.86,.05,1.27-.75,3.55-4.01,7.06-7.69,7.86-1.89,.41-1.09,3.3,.8,2.89h0Z" fill="#4d45ba"/>
    <path d="M391.82,24.39l8.91,22.48c.55,1.39,2.36,1.45,2.89,0,1.8-4.91,3.23-10.15,5.81-14.73,.41-.73,.86-1.45,1.41-2.06,.24-.27,.5-.53,.79-.75-.04,.03,.68-.36,.56-.32,.61-.23,.86-.22,1.43-.03,.65,.22,1.41,.7,2.02,1.24,2.79,2.45,4.78,5.8,6.64,8.97,.69,1.17,2.32,.83,2.74-.36,1.26-3.57,2.59-7.14,4.29-10.53,.95-1.9,1.98-3.83,3.37-5.19,.13-.13,.26-.25,.39-.36,.28-.24-.05,.02,.12-.1,.12-.08,.25-.16,.38-.24,.23-.15,.36-.16,.13-.08,.31-.1,.64-.18,.35-.12,.11-.02,.27-.02,.38,0,.16,.02-.39-.11,.04,.02,.49,.15-.1-.16,.32,.13,.1,.07,.21,.13,.31,.2s-.21-.22,.1,.09c.19,.19,.38,.37,.56,.57,.37,.41,.13,.12,.43,.56,3.69,5.43,4.36,12.45,8.61,17.74,.93,1.15,2.16,2.14,3.68,2.28,1.65,.15,3.09-.76,4.22-1.87,1.38-1.36-.75-3.48-2.12-2.12-.49,.48-.84,.77-1.25,.93,.2-.08-.82,.11-.23,.08-.13,0-.26,.02-.39,.01-.38-.02,.31,.09-.06-.01-.1-.03-.2-.05-.3-.09-.14-.05,.3,.19-.04-.03-.1-.07-.21-.13-.32-.19-.34-.2,.19,.19-.11-.08-.21-.19-.41-.38-.61-.59-.09-.1-.18-.2-.26-.31-.22-.27,.14,.19,0,.01-.05-.07-.11-.14-.16-.22-1.98-2.83-2.96-5.76-4.19-8.84-1.64-4.1-5.42-15.06-11.6-9.95-1.77,1.47-3,3.63-4.04,5.64-1.97,3.8-3.49,7.84-4.91,11.88l2.74-.36c-1.91-3.24-3.97-6.64-6.74-9.24-1.5-1.41-3.42-2.73-5.58-2.55-4.55,.38-6.65,6.35-8.06,9.9s-2.5,6.86-3.75,10.28h2.89c-2.97-7.49-5.94-14.99-8.91-22.48-.7-1.77-3.61-1-2.89,.8h0Z" fill="#4d45ba"/>
    <path d="M458.64,27.41c2.9,5.11,9.7,2.7,13.43,0,2.12-1.54,4.11-3.49,5.13-5.94,.82-1.97,.89-5.51-1.54-6.46-2.99-1.18-6.69,.14-9.23,1.76-3.03,1.93-5.62,4.75-7.25,7.95-.8,1.56-1.38,3.22-1.6,4.96-.09,.7-.12,1.39-.05,2.09,.11,1.16,.71,2.3,1.18,3.36,1.5,3.37,3.66,6.73,6.86,8.71,7.47,4.62,15.6-1.64,20.53-7.07,1.29-1.43-.82-3.55-2.12-2.12-3.45,3.81-8.9,9.01-14.61,7.58-2.5-.63-4.44-2.49-5.86-4.57-.98-1.44-1.79-3.01-2.46-4.62-.32-.76-.57-1.34-.56-2.17,0-.64,.09-1.25,.25-1.87,1.22-5.02,6.03-10.5,11.32-11.31,.51-.08,1.05-.1,1.57-.05,.25,.02,.5,.11,.75,.12,.35,.02,.21,.26-.04-.11-.06-.09,.08,.12,.08,.11,.08,.42,.27,.4,.34,.85-.03-.18,.01,.26,.01,.33,0,.21-.02,.39-.03,.44-.31,1.77-1.7,3.31-3.01,4.5-1.7,1.53-3.79,2.79-6.02,3.34-1.8,.44-3.53,.32-4.46-1.32s-3.55-.17-2.59,1.51h0Z" fill="#4d45ba"/>
    <path d="M491.34,16.75c4.43,5.79,7.31,12.51,8.46,19.71,.27,1.67,3.02,1.28,2.95-.4-.19-4.46-.17-9.17,1.36-13.42,.43-1.19,1.06-2.38,1.84-3.21,.72-.76,1.29-1.09,2.22-1.33,.72-.18,1.51-.08,2.47,.22,.77,.24,1.97,.96,2.71,1.56,2.36,1.92,4.08,4.54,5.39,7.26,1.91,3.96,2.89,8.36,3.11,12.74,.07,1.39,1.55,1.86,2.56,1.06,.89-.71,1.78-1.42,2.68-2.13,1.51-1.2-.63-3.31-2.12-2.12-.89,.71-1.78,1.42-2.68,2.13l2.56,1.06c-.4-7.78-3.01-16.61-9.1-21.88-2-1.73-4.58-3.19-7.32-2.95-2.94,.26-5.14,2.33-6.41,4.89-2.42,4.89-2.5,10.8-2.27,16.12l2.95-.4c-1.18-7.41-4.2-14.46-8.76-20.42-1.16-1.51-3.76-.02-2.59,1.51h0Z" fill="#4d45ba"/>
    <path d="M533.96,17.49c1.3,4.36,3,8.7,5.46,12.54,1.64,2.56,3.72,5.16,6.44,6.65,2.06,1.12,4.57,1.48,6.65,.2,2.35-1.44,3.48-4.25,4.03-6.83,1.1-5.15,.58-10.57-.21-15.73-.12-.8-1.13-1.25-1.85-1.05-.86,.24-1.17,1.04-1.05,1.85,.64,4.18,1.05,8.58,.45,12.79-.1,.72-.25,1.44-.43,2.14-.15,.59-.45,1.48-.59,1.79-.5,1.1-.79,1.57-1.61,2.28-.2,.18,0,0,.04-.03-.09,.06-.17,.13-.27,.18-.18,.11-.36,.21-.55,.3,.4-.18-.2,.05-.32,.08-.1,.02-.2,.04-.3,.06-.24,.05,.31,.02-.11,0-.17,0-.35,0-.53,0-.09,0-.44-.06-.03,0-.11-.02-.22-.03-.33-.06-.22-.06-.44-.12-.66-.19-.11-.04-.23-.08-.34-.12,.35,.14-.15-.07-.21-.1-2.15-1.12-3.85-3.04-5.3-5.2-2.53-3.76-4.22-8.02-5.51-12.35-.55-1.85-3.45-1.06-2.89,.8h0Z" fill="#4d45ba"/>
    <path d="M236.48,95.38c3.38,7.08,5.49,14.75,6.2,22.56,.18,1.91,3.18,1.92,3,0-.77-8.37-3-16.48-6.61-24.08-.83-1.74-3.42-.22-2.59,1.51h0Z" fill="#4d45ba"/>
    <path d="M232.46,86.41c1.93,0,1.93-3,0-3s-1.93,3,0,3h0Z" fill="#4d45ba"/>
    <path d="M261.34,87.35c-5.05,.14-8.98,4.23-11.34,8.35-.43,.74-.13,1.58,.54,2.05,2.36,1.64,5.43,1.78,8.11,2.54,1.46,.42,2.81,1,3.93,2.04,1.36,1.26,3.08,2.15,4.5,3.36s3.64,3.18,3.49,4.92c0,.09,0,.17-.16,.41-.05,.07-.37,.4-.51,.5-.73,.51-1.64,.73-2.51,.9-3.21,.61-6.68,.13-9.85-.48-1.89-.37-2.69,2.53-.8,2.89,3.47,.67,7.06,1.11,10.58,.62,2.15-.3,4.68-1.04,5.78-3.1,1.18-2.21-.07-4.61-1.48-6.35-1.12-1.38-2.5-2.53-3.9-3.61-.87-.67-1.81-1.23-2.68-1.9-.79-.6-1.48-1.29-2.35-1.79-1.74-.99-3.7-1.46-5.63-1.88-1.71-.37-3.54-.65-5.01-1.67l.54,2.05c1.81-3.14,4.82-6.76,8.75-6.87,1.93-.05,1.93-3.05,0-3h0Z" fill="#4d45ba"/>
    <path d="M322.8,89.44c-2.39-2.79-6.09-3.06-9.16-1.24-2.9,1.72-5.22,4.86-5.95,8.16-.35,1.58-.46,3.62,.44,5.05s2.27,2.49,3.88,2.85c3.16,.72,6.43-.92,8.61-3.13,2.52-2.54,4.05-6.48,2.08-9.8-.75-1.26-2.82-.75-2.8,.76,.06,4.4,.57,8.79,1.51,13.09,.23,1.03,1.8,1.54,2.51,.66,.28-.35,.57-.71,.85-1.06,.51-.63,.62-1.51,0-2.12-.53-.53-1.61-.63-2.12,0-.28,.35-.57,.71-.85,1.06l2.51,.66c-.88-4.04-1.35-8.15-1.41-12.29l-2.8,.76c.08,.14,.15,.27,.23,.41,.08,.15,0-.03-.02-.06,.03,.06,.05,.12,.07,.18,.05,.14,.1,.28,.13,.43,.02,.07,.1,.46,.07,.3-.03-.18,.02,.25,.02,.31,0,.13,0,.25,0,.38s-.01,.25-.02,.38c-.02,.29,0,.04,0-.02-.02,.08-.03,.17-.05,.25-.06,.28-.14,.55-.23,.82-.02,.07-.18,.47-.07,.2-.06,.15-.13,.29-.2,.43-.14,.27-.29,.53-.45,.78-.08,.12-.16,.23-.24,.35-.05,.08-.11,.15-.17,.23,.1-.13,.03-.04-.03,.03-.41,.5-.86,.96-1.35,1.38-.05,.04-.39,.31-.2,.17-.11,.09-.23,.17-.35,.25-.27,.19-.55,.36-.84,.52-.14,.08-.29,.16-.43,.23-.06,.03-.37,.18-.26,.13s-.27,.1-.33,.12c-.15,.05-.3,.1-.45,.14-.27,.08-.55,.14-.83,.19s.18,0-.11,.01c-.17,0-.34,.02-.51,.02-.15,0-.29-.01-.44-.02-.08,0,.2,.05-.09-.01s-.56-.13-.83-.23c-.16-.06,.06,.02,.07,.03-.08-.04-.15-.07-.22-.11-.11-.06-.22-.13-.33-.2-.08-.05-.31-.23-.12-.08-.14-.12-.27-.24-.4-.37-.06-.06-.3-.33-.26-.28,.05,.06-.15-.21-.19-.27-.09-.14-.04,0-.02,.03-.04-.07-.06-.18-.08-.26-.04-.15-.07-.31-.11-.46-.08-.34-.01,.05-.03-.21,0-.14-.02-.27-.02-.41,0-.33,0-.66,.04-.98-.03,.25,.02-.09,.03-.17,.03-.17,.07-.33,.11-.5,.08-.34,.19-.67,.3-1,.14-.38,.11-.31,.3-.7,.16-.33,.33-.65,.52-.96,.68-1.13,1.47-2.08,2.61-2.97-.16,.12,.25-.18,.3-.21,.14-.1,.29-.19,.43-.28,.31-.19,.62-.36,.95-.5-.25,.11,.22-.07,.29-.1,.15-.05,.3-.09,.46-.13,.08-.02,.53-.11,.39-.09-.14,.02,.25-.02,.33-.02,.18,0,.35,0,.53,0,.07,0,.13,.01,.2,.02,.18,.02-.23-.05,.06,.01,.15,.04,.3,.07,.45,.12,.06,.02,.13,.04,.19,.06,.4,.13-.14-.07,.08,.03,.75,.36,1.07,.65,1.66,1.33,.53,.62,1.58,.54,2.12,0,.61-.61,.53-1.5,0-2.12h0Z" fill="#4d45ba"/>
    <path d="M335.72,67.47c3.76,13.14,.63,26.93,2.64,40.3,.29,1.9,3.18,1.09,2.89-.8-2.01-13.39,1.14-27.09-2.64-40.3-.53-1.85-3.43-1.07-2.89,.8h0Z" fill="#4d45ba"/>
    <path d="M331.14,98.05c2.54,.87,5.14,.17,7.52-.83s4.61-2.27,7.12-2.32c1.93-.04,1.93-3.04,0-3-2.69,.05-5.1,1.19-7.52,2.25-2.05,.9-4.19,1.75-6.34,1.01-1.83-.63-2.61,2.27-.8,2.89h0Z" fill="#4d45ba"/>
    <path d="M379.25,64.65c.47,14.13-1.03,28.2-2.57,42.23-.21,1.92,2.79,1.9,3,0,1.55-14.02,3.04-28.1,2.57-42.23-.06-1.93-3.06-1.93-3,0h0Z" fill="#4d45ba"/>
    <path d="M372.38,94.08c7.49,.81,14.02-4.73,21.52-4,1.92,.19,1.91-2.81,0-3-3.81-.37-7.5,.75-11.07,1.95-3.37,1.13-6.83,2.44-10.45,2.05-.81-.09-1.49,.75-1.5,1.5,0,.88,.7,1.41,1.5,1.5h0Z" fill="#4d45ba"/>
    <path d="M399.99,67.31c5.92,16.33-1.9,33.74,1.45,50.43,.29,1.45,2.58,1.41,2.89,0,1.04-4.71,1.11-9.52,1.28-14.32,.08-2.32,.19-4.66,.52-6.97,.14-.95,.1-1.01,.94-1.53,.47-.29,.94-.53,1.48-.65,4.13-.93,6.38,6.18,7.15,9.22,.64,2.5,1.06,5.14,.78,7.72-.21,1.92,2.79,1.9,3,0,.29-2.65-.15-5.43-.76-8.01-.68-2.86-1.71-5.81-3.43-8.21-1.46-2.06-3.59-3.9-6.27-3.79-1.36,.06-2.67,.58-3.78,1.34-.76,.52-1.59,1.06-1.82,1.99-.32,1.29-.41,2.71-.53,4.04-.55,6.12-.11,12.34-1.45,18.38h2.89c-3.35-16.72,4.52-33.98-1.45-50.43-.65-1.8-3.55-1.02-2.89,.8h0Z" fill="#4d45ba"/>
    <path d="M428.81,101.88c5.86,1.12,10.65-4.06,11.44-9.54,.36-2.51-.15-5.27-2.18-6.98s-5.66-2.58-7.68-.61c-2.95,2.88-2.7,8.09-1.77,11.75,1.05,4.13,3.78,8.65,8.32,9.45,3,.52,5.94-.61,8.39-2.3,4.29-2.96,7.55-7.27,10.42-11.55,1.08-1.61-1.52-3.11-2.59-1.51-2.3,3.43-4.85,6.8-8.03,9.47-1.66,1.39-3.88,2.77-5.91,3-1.63,.18-3.06-.28-4.17-1.19-1.28-1.05-2.18-2.47-2.78-3.89-1.31-3.1-1.8-6.79-.61-9.8-.01,.04-.01,0,.11-.24,.08-.15,.16-.29,.24-.44,.25-.44,.1-.19,.46-.59,.05-.05,.4-.4,.13-.14,.08-.07,.27-.22,.38-.25-.79,.15,.09,.13,.39,.15s.58,.05,.88,.11c1.85,.37,2.9,1.63,3.1,3.28,.5,4.07-3.1,9.8-7.73,8.92-1.89-.36-2.69,2.53-.8,2.89h0Z" fill="#4d45ba"/>
    <path d="M313.58,134.37c5.82,16.09,9.37,32.94,10.48,50.01,.1,1.57,2.66,2.17,2.95,.4,.82-5.1-1.33-10.28-1.51-15.38-.06-1.77-.04-4.16,1.57-5.22,1.2-.79,2.73-.56,4.07-.48,2.09,.12,4.17,.3,6.25,.56,2.98,.38,6,.94,8.81,2.02,.9,.35,1.77,.77,2.57,1.31,.34,.23,.42,.28,.75,.61s.44,.45,.55,.64c.21,.35,.27,.51,.29,.58,.04,.13,.07,.26,.1,.4,.03,.12,0-.12,0,.24,0,.14,0,.27-.02,.41,.04-.37-.02,.09-.05,.2-.14,.46-.15,.51-.27,.74-.76,1.43-1.99,2.57-3.4,3.6-5.51,4.05-12.36,6.3-18.88,8.08-1.87,.51-1.08,3.28,.8,2.89,2.16-.45,4.33-.9,6.49-1.35,1.89-.39,1.09-3.29-.8-2.89-2.16,.45-4.33,.9-6.49,1.35l.8,2.89c6.54-1.79,13.34-4.07,18.97-7.94,2.91-2,6.86-5.39,5.63-9.41-1.41-4.63-8.03-6.03-12.07-6.78-2.01-.37-4.04-.63-6.07-.83-2.23-.22-4.7-.63-6.93-.31-2.66,.38-4.62,2.11-5.33,4.71-.84,3.1-.21,6.53,.3,9.63,.46,2.82,1.39,6.2,.95,8.95l2.95,.4c-1.12-17.34-4.67-34.47-10.59-50.81-.65-1.8-3.55-1.02-2.89,.8h0Z" fill="#4d45ba"/>
    <path d="M361,160.18c-3.35,2.19-4.85,6.19-4.44,10.1,.21,1.96,.77,3.88,1.8,5.57,.49,.8,1.08,1.6,1.78,2.23,.59,.54,1.36,.94,2.05,1.33,3.57,2,8.3,3.17,11.6,.02,2.54-2.42,3.21-6.4,2.89-9.75s-1.61-7.26-4.66-9.24c-3.7-2.4-7.95-.11-10.76,2.55-.52,.49-1.01,1.01-1.49,1.55-1.28,1.44,.83,3.57,2.12,2.12,.82-.92,1.7-1.8,2.67-2.57,.06-.05-.15,.11,.08-.06,.11-.08,.22-.16,.33-.24,.21-.15,.43-.29,.65-.42,.37-.22,.76-.42,1.16-.6-.4,.17,.14-.05,.28-.09,.18-.06,.36-.11,.54-.15,.1-.02,.63-.12,.37-.08s.26-.02,.39-.02c.16,0,.33,0,.49,0,.07,0,.15,.02,.22,.02,.19,0-.38-.09-.04,0,.3,.08,.59,.18,.89,.25,.22,.05-.29-.16-.1-.04,.07,.04,.15,.07,.22,.11,.14,.07,.27,.15,.4,.23,.08,.05,.48,.33,.26,.17s.18,.16,.27,.23c.24,.22,.45,.46,.67,.7,.27,.31-.15-.23,.12,.15,.1,.15,.21,.3,.31,.46,.19,.3,.36,.6,.51,.92,.08,.16,.15,.33,.23,.49,.02,.04-.12-.32,0-.01,.03,.09,.07,.18,.11,.28,.27,.72,.47,1.46,.62,2.21,.04,.19,.07,.38,.1,.57,.01,.06,.05,.37,.02,.11s.01,.09,.02,.15c.04,.4,.07,.8,.09,1.2,.03,.78-.02,1.55-.1,2.33,.05-.47-.01,.08-.04,.24-.03,.18-.07,.36-.11,.54-.08,.37-.18,.73-.3,1.08-.06,.17-.12,.33-.18,.5-.08,.21-.05,.1,.03-.06-.04,.08-.07,.17-.12,.25-.15,.32-.32,.63-.51,.92-.08,.13-.18,.25-.26,.38-.13,.19,.24-.26,.03-.04-.06,.06-.11,.13-.17,.2-.23,.25-.47,.47-.73,.69-.06,.06,.3-.2,.07-.06-.06,.04-.12,.09-.18,.13-.15,.1-.3,.18-.45,.26-.08,.04-.16,.07-.24,.12-.2,.13,.31-.09,.08-.03-.17,.05-.34,.12-.51,.17-.15,.04-.31,.08-.46,.11-.09,.02-.19,.03-.28,.05-.02,0,.34-.02,.03,0-.4,.01-.8,.03-1.2,0-.09,0-.19-.02-.28-.03-.09,0,.32,.06,.01,0-.23-.05-.47-.08-.7-.14-.49-.12-.97-.27-1.44-.44-.11-.04-.22-.09-.34-.13-.27-.11,.17,.08-.1-.04s-.56-.26-.83-.39c-.58-.29-1.14-.62-1.69-.96-1.12-.7-1.95-1.95-2.49-3.24-1.16-2.83-1.17-6.4,.75-8.88,.38-.49,.94-1,1.5-1.36,1.61-1.05,.11-3.65-1.51-2.59h0Z" fill="#4d45ba"/>
    <path d="M390.64,134.86c2.92,15.59-5.22,30.32-8.95,45.02-.48,1.87,2.42,2.67,2.89,.8,3.9-15.36,12.01-30.33,8.95-46.62-.36-1.9-3.25-1.09-2.89,.8h0Z" fill="#4d45ba"/>
    <path d="M379.4,164.88c6.25,4.84,13.76,.79,19.04-3.52,.63-.51,.53-1.59,0-2.12-.62-.62-1.49-.51-2.12,0-3.76,3.08-10.12,7.14-14.79,3.52-.64-.5-1.5-.62-2.12,0-.52,.52-.64,1.62,0,2.12h0Z" fill="#4d45ba"/>
    <path d="M408.32,140.93c-1.06,5.86-.57,11.93-.49,17.85,.04,2.96,.07,5.94-.23,8.89-.18,1.82-.47,4.23-1.6,5.66-1.19,1.5,.92,3.64,2.12,2.12,1.43-1.81,1.99-4.03,2.3-6.27,.42-2.99,.45-6.02,.43-9.04-.05-6.06-.73-12.4,.36-18.4,.34-1.89-2.55-2.7-2.89-.8h0Z" fill="#4d45ba"/>
    <path d="M402.2,165.12c5.17-1.84,10.15-4.18,14.84-7.03,1.65-1,.14-3.6-1.51-2.59-4.47,2.72-9.19,4.98-14.12,6.73-.76,.27-1.27,1.02-1.05,1.85,.2,.74,1.08,1.32,1.85,1.05h0Z" fill="#4d45ba"/>
    <path d="M429.74,154.96c-4.14,1.42-7.22,5.72-6.91,10.16,.15,2.23,1.14,4.24,2.97,5.56s4.25,1.79,6.41,1.75c4.48-.1,9.16-2.3,12.27-5.49,1.4-1.43,2.6-3.23,2.91-5.24,.35-2.26-.46-4.37-2.02-6.02-4.72-4.97-13.6-3.59-17.62,1.59-.5,.64-.62,1.5,0,2.12,.52,.52,1.62,.64,2.12,0,1.48-1.92,3.55-3.14,5.92-3.61,2.14-.43,4.77-.19,6.54,1.19,.7,.54,1.26,1.15,1.62,1.77,.34,.58,.52,1.16,.53,1.73,0,.19,0,.39-.02,.58,0,.07-.04,.29,0-.01-.01,.09-.03,.17-.05,.26-.04,.17-.08,.34-.13,.51-.03,.1-.23,.65-.13,.4-.31,.74-.83,1.51-1.19,1.94-2.35,2.79-5.84,4.6-9.47,5.19-.31,.05-.14,.02-.07,.01-.1,.01-.21,.02-.31,.03-.2,.02-.41,.04-.61,.05-.47,.02-.94,0-1.41-.02-.35-.02,.03,.03-.31-.04-.21-.04-.41-.09-.61-.13-.53-.11-1.05-.21-1.56-.4-.62-.23-1.25-.67-1.73-1.17-.38-.39-.71-1.05-.88-1.65-.06-.22-.11-.44-.14-.67-.04-.24,.02,.23,0-.01,0-.12-.02-.23-.03-.35-.01-.23-.01-.47,0-.7,0-.1,.07-.73,.03-.45,.07-.48,.19-.95,.34-1.41,.17-.52,.19-.55,.46-1.08,.5-.94,.87-1.43,1.65-2.14,.6-.55,1.48-1.08,2.23-1.34,1.82-.62,1.04-3.52-.8-2.89h0Z" fill="#4d45ba"/>
    <path d="M456.49,150.92c.73,3.81-.2,7.66-2.41,10.82l2.8,.76c-.31-2.64-.58-5.3-.59-7.97,0-1.51,0-2.88,.41-4.26,.19-.64,.07-.37,.38-.88,.18-.28-.18,.29-.02,.02,.03-.05,.12-.15,.18-.17-.41,.22,.27-.19-.08,.05,.32-.23-.15-.02,.11-.02,.49,0-.22-.07,.16,.02,.14,.04,.28,.09,.42,.14-.44-.15,.23,.12,.36,.2,.97,.55,1.3,.88,2.17,1.69,.92,.85,1.78,1.76,2.63,2.67,1.67,1.8,3.27,3.7,5.06,5.39,1.23,1.16,3.01,2.84,4.87,2.36,.99-.25,1.59-1.06,1.92-1.98,1.13-3.08,1.93-6.27,3.06-9.35,.73-2,1.52-3.99,2.55-5.86,.24-.44,.75-1.26,.9-1.44,.16-.21,.35-.4,.53-.6,.34-.36-.01-.08,.37-.29,.11-.06,.31-.24-.03,0,.02-.01,.24-.06,.24-.07,0,.1-.42,0-.08,.02,.24,.02-.16-.03-.17-.03,.39,.08,.16,.04,.17,.04,.06,.03,.17,.09,.22,.14-.31-.34,0,0,.06,.07,.07,.08,.49,.57,.27,.28,.15,.2,.29,.41,.43,.63,.32,.51,.59,1.05,.84,1.59,1.61,3.43,2.71,7.37,3.96,11.05,1.62,4.8,3.37,9.58,5.65,14.11,.87,1.72,3.46,.21,2.59-1.51-3.81-7.56-5.71-15.81-8.93-23.6-.84-2.03-1.98-5.05-4.39-5.67-2.79-.72-4.66,2.59-5.68,4.62-1.12,2.22-2,4.56-2.83,6.89-.57,1.6-1.1,3.22-1.61,4.83-.28,.9-.56,1.8-.83,2.7-.07,.22-.12,.44-.2,.65-.09,.24,.13-.31,0-.02-.15,.33,.22-.15-.08,.09,.25-.19,.21-.15,.39-.2,.19-.06-.26-.06,.14,.01-.18-.03-.55-.21-.16-.02-.35-.17-.67-.38-.98-.6-.06-.04,.19,.16-.04-.03-.09-.07-.18-.15-.26-.22-.2-.17-.4-.35-.6-.53-1.87-1.73-3.52-3.7-5.25-5.57-1.6-1.73-3.3-3.61-5.36-4.81-1.86-1.08-4.11-1.12-5.34,.9-1.71,2.81-1.22,7.02-1,10.11,.11,1.48,.26,2.96,.44,4.43s1.9,2.04,2.8,.76c2.69-3.83,3.59-8.56,2.71-13.13-.37-1.89-3.26-1.09-2.89,.8h0Z" fill="#4d45ba"/>
  </g>
</svg>